SplineFontDB: 3.0
FontName: AdventPro-SemiBold
FullName: Advent Pro SemiBold
FamilyName: Advent Pro
Weight: SemiBold
Copyright: Copyright (c) 2008 Andreas Kalpakidis (hello@inderesting.com), with Reserved Font Name "Advent Pro"
Version: 001.001
ItalicAngle: 0
UnderlinePosition: -50
UnderlineWidth: 50
Ascent: 800
Descent: 200
sfntRevision: 0x00020083
LayerCount: 2
Layer: 0 1 "Back"  1
Layer: 1 1 "Fore"  0
NeedsXUIDChange: 1
XUID: [1021 288 713564382 304706]
FSType: 0
OS2Version: 2
OS2_WeightWidthSlopeOnly: 0
OS2_UseTypoMetrics: 1
CreationTime: 1322417969
ModificationTime: 1322447145
PfmFamily: 17
TTFWeight: 600
TTFWidth: 5
LineGap: 0
VLineGap: 0
Panose: 2 0 5 6 4 0 0 2 0 4
OS2TypoAscent: 162
OS2TypoAOffset: 1
OS2TypoDescent: -32
OS2TypoDOffset: 1
OS2TypoLinegap: 0
OS2WinAscent: -1
OS2WinAOffset: 1
OS2WinDescent: 8
OS2WinDOffset: 1
HheadAscent: 1
HheadAOffset: 1
HheadDescent: -8
HheadDOffset: 1
OS2SubXSize: 650
OS2SubYSize: 600
OS2SubXOff: 0
OS2SubYOff: 75
OS2SupXSize: 650
OS2SupYSize: 600
OS2SupXOff: 0
OS2SupYOff: 350
OS2StrikeYSize: 50
OS2StrikeYPos: 250
OS2Vendor: 'ADBE'
OS2CodePages: 0000009b.00000000
OS2UnicodeRanges: 800000af.1000204a.00000000.00000000
Lookup: 258 0 0 "'kern' Horizontal Kerning lookup 0"  {"'kern' Horizontal Kerning lookup 0 subtable"  } ['kern' ('DFLT' <'dflt' > 'grek' <'dflt' > 'latn' <'dflt' > ) ]
MarkAttachClasses: 1
DEI: 91125
TtTable: prep
PUSHW_1
 511
SCANCTRL
PUSHB_1
 4
SCANTYPE
EndTTInstrs
LangName: 1033 "" "" "" "AndreasKalpakidis: Advent Pro SemiBold: 2008" "AdventPro-SemiBold" "Version 2.002 2008" "" "Advent Pro Thin is a trademark of INDE Andreas Kalpakidis." "Andreas Kalpakidis" "Andreas Kalpakidis" "" "www.inderesting.com" "www.inderesting.com" "This Font Software is licensed under the SIL Open Font License, Version 1.1. This license is available with a FAQ at: http://scripts.sil.org/OFL" "http://scripts.sil.org/OFL" 
GaspTable: 1 65535 15
Encoding: UnicodeBmp
UnicodeInterp: none
NameList: Adobe Glyph List
DisplaySize: -36

StartChar: .notdef
Encoding: 65536 -1 0
Width: 500
Flags: HMW
HStem: 0 650<50 450 50 500 0 450> 50 650<50 450 450 450>
VStem: 0 450<50 650 50 700 50 700> 50 450<50 650 50 50>
LayerCount: 2
Fore
SplineSet
500 0 m 1,0,-1
 0 0 l 1,1,-1
 0 700 l 1,2,-1
 500 700 l 1,3,-1
 500 0 l 1,0,-1
450 50 m 1,4,-1
 450 650 l 1,5,-1
 50 650 l 1,6,-1
 50 50 l 1,7,-1
 450 50 l 1,4,-1
425 133 m 1,8,-1
 386 101 l 1,9,-1
 250 305 l 1,10,-1
 113 100 l 1,11,-1
 73 129 l 1,12,-1
 220 350 l 1,13,-1
 73 571 l 1,14,-1
 113 600 l 1,15,-1
 250 395 l 1,16,-1
 386 599 l 1,17,-1
 425 567 l 1,18,-1
 280 350 l 1,19,-1
 425 133 l 1,8,-1
EndSplineSet
EndChar

StartChar: numbersign
Encoding: 35 35 4
Width: 613
Flags: HMW
HStem: 0 21G<77 165 77 77 284 376 284 284> 175 86<34 118 34 138 226 323 34 205 438 582> 377 92<34 166 34 188 34 253 275 372 487 582>
VStem: 34 548<175 261 175 261 377 469 175 469> 77 88<0 0> 241 88<700 700> 284 92<0 0> 448 93<700 700>
LayerCount: 2
Fore
SplineSet
582 175 m 1,0,-1
 417 175 l 1,1,-1
 376 0 l 1,2,-1
 284 0 l 1,3,-1
 323 175 l 1,4,-1
 205 175 l 1,5,-1
 165 0 l 1,6,-1
 77 0 l 1,7,-1
 118 175 l 1,8,-1
 34 175 l 1,9,-1
 34 261 l 1,10,-1
 138 261 l 1,11,-1
 166 377 l 1,12,-1
 34 377 l 1,13,-1
 34 469 l 1,14,-1
 188 469 l 1,15,-1
 241 700 l 1,16,-1
 329 700 l 1,17,-1
 275 469 l 1,18,-1
 394 469 l 1,19,-1
 448 700 l 1,20,-1
 541 700 l 1,21,-1
 487 469 l 1,22,-1
 582 469 l 1,23,-1
 582 377 l 1,24,-1
 465 377 l 1,25,-1
 438 261 l 1,26,-1
 582 261 l 1,27,-1
 582 175 l 1,0,-1
344 261 m 1,28,-1
 372 377 l 1,29,-1
 253 377 l 1,30,-1
 226 261 l 1,31,-1
 344 261 l 1,28,-1
EndSplineSet
EndChar

StartChar: dollar
Encoding: 36 36 5
Width: 540
Flags: HMW
HStem: -17 80 178 155 710 20G
VStem: 34 97<178 189> 51 98 52 58 225 91<-114 -8 85 310 453 612 612 612 708 817> 243 56 316 193<-114 256.5 84 256.5 142.5 256.5 142.5 310 142.5 413 142.5 615> 394 29 406 17 449 60
LayerCount: 2
Fore
SplineSet
316 -114 m 1,0,-1
 225 -114 l 1,1,-1
 225 -7 l 1,2,3
 136 4 136 4 86 58.5 c 128,-1,4
 36 113 36 113 34 178 c 1,5,-1
 131 189 l 1,6,7
 134 152 134 152 159 123 c 128,-1,8
 184 94 184 94 225 85 c 1,9,-1
 225 352 l 1,10,11
 92.7854035766 403.595940068 92.7854035766 403.595940068 64.5 467.5 c 0,12,13
 51 498 51 498 51 537 c 0,14,15
 51 597 51 597 96 645 c 128,-1,16
 141 693 141 693 225 706 c 1,17,-1
 225 817 l 1,18,-1
 316 817 l 1,19,-1
 316 708 l 1,20,21
 371 704 371 704 423 680 c 1,22,-1
 418.5 666.5 l 2,23,24
 414 653 414 653 406.5 631 c 128,-1,25
 399 609 399 609 394 594 c 1,26,27
 355 609 355 609 316 615 c 1,28,-1
 316 413 l 1,29,30
 396.017241379 378.706896552 396.017241379 378.706896552 446.5 336.5 c 0,31,32
 509 284.245901639 509 284.245901639 509 198.12295082 c 128,-1,33
 509 112 509 112 461.5 57.5 c 128,-1,34
 414 3 414 3 316 -8 c 1,35,-1
 316 -114 l 1,0,-1
316 310 m 1,36,-1
 316 84 l 1,37,38
 359 94 359 94 384 121 c 128,-1,39
 409 148 409 148 409 188.5 c 128,-1,40
 409 229 409 229 384.5 258 c 128,-1,41
 360 287 360 287 316 310 c 1,36,-1
225 453 m 1,42,-1
 225 612 l 1,43,44
 146 593 146 593 149 530 c 1,45,46
 150 486 150 486 225 453 c 1,42,-1
EndSplineSet
EndChar

StartChar: percent
Encoding: 37 37 6
Width: 680
Flags: HMW
HStem: 59 74 78 55 308 55 527 56 583 56 654 55 711 20G
VStem: 132 55 187 56 341 106 443 55 498 55
LayerCount: 2
Fore
SplineSet
100 0 m 1,0,-1
 34 59 l 1,1,-1
 578 743 l 1,2,-1
 649 686 l 1,3,-1
 100 0 l 1,0,-1
498 -11 m 128,-1,5
 438 -11 438 -11 396 31 c 128,-1,6
 354 73 354 73 354 133 c 128,-1,7
 354 193 354 193 396 235 c 128,-1,8
 438 277 438 277 498 277 c 128,-1,9
 558 277 558 277 600 235 c 128,-1,10
 642 193 642 193 642 133 c 128,-1,11
 642 73 642 73 600 31 c 128,-1,4
 558 -11 558 -11 498 -11 c 128,-1,5
553 133 m 128,-1,13
 553 155 553 155 538 171.5 c 128,-1,14
 523 188 523 188 498 188 c 128,-1,15
 473 188 473 188 458 171.5 c 128,-1,16
 443 155 443 155 443 133 c 128,-1,17
 443 111 443 111 458 94.5 c 128,-1,18
 473 78 473 78 498 78 c 128,-1,19
 523 78 523 78 538 94.5 c 128,-1,12
 553 111 553 111 553 133 c 128,-1,13
187 439 m 128,-1,21
 127 439 127 439 85 481 c 128,-1,22
 43 523 43 523 43 583 c 128,-1,23
 43 643 43 643 85 685 c 128,-1,24
 127 727 127 727 187 727 c 128,-1,25
 247 727 247 727 289 685 c 128,-1,26
 331 643 331 643 331 583 c 128,-1,27
 331 523 331 523 289 481 c 128,-1,20
 247 439 247 439 187 439 c 128,-1,21
243 583 m 128,-1,29
 243 605 243 605 227.5 622 c 128,-1,30
 212 639 212 639 187.5 639 c 0,31,32
 163 639 163 639 147.5 622 c 128,-1,33
 132 605 132 605 132 583 c 128,-1,34
 132 561 132 561 147.5 544 c 128,-1,35
 163 527 163 527 187.5 527 c 0,36,37
 212 527 212 527 227.5 544 c 128,-1,28
 243 561 243 561 243 583 c 128,-1,29
EndSplineSet
EndChar

StartChar: ampersand
Encoding: 38 38 7
Width: 556
Flags: HMW
HStem: -12 75 0 21G 383 21G
VStem: 36 186 232 109 432 93<168 409 409 609 409 484>
LayerCount: 2
Fore
SplineSet
498 61 m 1,0,-1
 482 -11 l 1,1,2
 399 -2 399 -2 362 58 c 1,3,4
 317 -11 317 -11 220 -11 c 128,-1,5
 123 -11 123 -11 75.5 52.5 c 0,6,7
 34.8468468468 106.846846847 34.8468468468 106.846846847 34.8468468468 179.139680221 c 0,8,9
 34.8468468468 232.888513514 34.8468468468 232.888513514 53.4234234234 272.944256757 c 128,-1,10
 72 313 72 313 91.5 335.5 c 128,-1,11
 111 358 111 358 137 377 c 0,12,13
 176.072625698 405.553072626 176.072625698 405.553072626 218 421 c 1,14,15
 185 432 185 432 162 468 c 0,16,17
 137.888198758 505.74021064 137.888198758 505.74021064 137.888198758 555.646271363 c 0,18,19
 137.888198758 640.695652174 137.888198758 640.695652174 212.5 684.5 c 0,20,21
 258.594771242 711.562091503 258.594771242 711.562091503 301.359477124 711.562091503 c 128,-1,22
 344.124183007 711.562091503 344.124183007 711.562091503 381 699 c 1,23,-1
 329 620 l 1,24,25
 316.409836066 624.721311475 316.409836066 624.721311475 300.508196721 624.721311475 c 128,-1,26
 284.606557377 624.721311475 284.606557377 624.721311475 265.5 613.5 c 0,27,28
 231.573333333 593.574814815 231.573333333 593.574814815 231.573333333 551.534074074 c 128,-1,29
 231.573333333 509.493333333 231.573333333 509.493333333 260.348070175 489.308070175 c 128,-1,30
 289.122807018 469.122807018 289.122807018 469.122807018 313.686057248 469.122807018 c 0,31,32
 318.912280702 469.122807018 318.912280702 469.122807018 324 470 c 2,33,-1
 341 472 l 1,34,-1
 341 600 l 1,35,-1
 432 609 l 1,36,-1
 432 484 l 1,37,-1
 505 500 l 1,38,-1
 525 409 l 1,39,-1
 432 390 l 1,40,-1
 432 168 l 2,41,42
 432 83 432 83 498 61 c 1,0,-1
341 222 m 2,43,-1
 341 370 l 1,44,45
 198.611285266 337.141065831 198.611285266 337.141065831 151.5 272.5 c 0,46,47
 123.515151515 234.102184637 123.515151515 234.102184637 123.515151515 189.7329105 c 128,-1,48
 123.515151515 145.363636364 123.515151515 145.363636364 146.757575758 113.181818182 c 128,-1,49
 170 81 170 81 223.5 81 c 128,-1,50
 277 81 277 81 309 124 c 128,-1,51
 341 167 341 167 341 222 c 2,43,-1
EndSplineSet
EndChar

StartChar: quoteright
Encoding: 8217 8217 8
Width: 129
Flags: HMW
HStem: 456 50 603 111 621 111
VStem: 1 104 33 93<661 665>
LayerCount: 2
Fore
SplineSet
60 537 m 1,0,-1
 1 566 l 1,1,2
 45.1304347826 591.217391304 45.1304347826 591.217391304 70 618 c 1,3,-1
 59 621 l 1,4,5
 33 636 33 636 33.5 660.5 c 128,-1,6
 34 685 34 685 47.0178571429 697.535714286 c 128,-1,7
 60.0357142857 710.071428571 60.0357142857 710.071428571 79.0382653061 710.071428571 c 0,8,9
 102.295918367 710.071428571 102.295918367 710.071428571 114.155312125 692.024525027 c 128,-1,10
 126.014705882 673.977621483 126.014705882 673.977621483 126.014705882 654.235510381 c 0,11,12
 126.014705882 595.132352941 126.014705882 595.132352941 60 537 c 1,0,-1
EndSplineSet
EndChar

StartChar: parenleft
Encoding: 40 40 9
Width: 315
Flags: HMW
HStem: -198 21G 204 63 711 20G
VStem: 78 90<71 82 82 617>
LayerCount: 2
Fore
SplineSet
235 -51 m 1,0,-1
 193 -117 l 1,1,2
 132 -82 132 -82 105 -43.5 c 128,-1,3
 78 -5 78 -5 78 71 c 2,4,-1
 78 627 l 2,5,6
 78 703 78 703 105 743 c 128,-1,7
 132 783 132 783 192 817 c 1,8,-1
 234 747 l 1,9,10
 168 719 168 719 168 617 c 2,11,-1
 168 82 l 2,12,13
 168 11.875 168 11.875 189 -13.5 c 0,14,15
 201 -28 201 -28 209 -34 c 128,-1,16
 217 -40 217 -40 235 -51 c 1,0,-1
EndSplineSet
EndChar

StartChar: parenright
Encoding: 41 41 10
Width: 315
Flags: HMW
HStem: -198 21G 711 20G
VStem: 155 56
LayerCount: 2
Fore
SplineSet
120 -117 m 1,0,-1
 78 -51 l 1,1,2
 102 -37 102 -37 112.5 -28 c 128,-1,3
 123 -19 123 -19 133.5 9 c 128,-1,4
 144 37 144 37 144 82 c 2,5,-1
 144 617 l 2,6,7
 144 719 144 719 79 747 c 1,8,-1
 121 817 l 1,9,10
 181 783 181 783 208 743 c 128,-1,11
 235 703 235 703 235 627 c 2,12,-1
 235 71 l 2,13,14
 235 -5 235 -5 208 -43.5 c 128,-1,15
 181 -82 181 -82 120 -117 c 1,0,-1
EndSplineSet
EndChar

StartChar: asterisk
Encoding: 42 42 11
Width: 352
Flags: HMW
HStem: 694 20G
VStem: 127 96<404 404>
LayerCount: 2
Fore
SplineSet
304 460 m 1,0,-1
 223 404 l 1,1,-1
 175 515 l 1,2,-1
 127 404 l 1,3,-1
 47 461 l 1,4,-1
 130 541 l 1,5,-1
 17 561 l 1,6,-1
 48 645 l 1,7,-1
 148 587 l 1,8,-1
 127 700 l 1,9,-1
 223 700 l 1,10,-1
 201 587 l 1,11,-1
 300 646 l 1,12,-1
 336 560 l 1,13,-1
 219 540 l 1,14,-1
 304 460 l 1,0,-1
EndSplineSet
EndChar

StartChar: plus
Encoding: 43 43 12
Width: 385
Flags: HMW
HStem: 0 21G 112 321
VStem: 34 320<325 413 325 413> 148 92<205 325 413 545>
LayerCount: 2
Fore
SplineSet
240 205 m 1,0,-1
 148 205 l 1,1,-1
 148 325 l 1,2,-1
 34 325 l 1,3,-1
 34 413 l 1,4,-1
 148 413 l 1,5,-1
 148 545 l 1,6,-1
 240 545 l 1,7,-1
 240 413 l 1,8,-1
 354 413 l 1,9,-1
 354 325 l 1,10,-1
 240 325 l 1,11,-1
 240 205 l 1,0,-1
EndSplineSet
EndChar

StartChar: comma
Encoding: 44 44 13
Width: 171
Flags: HMW
HStem: 0 111
VStem: 36 93<40 44>
LayerCount: 2
Fore
SplineSet
63 -84 m 1,0,-1
 4 -55 l 1,1,2
 48.1304347826 -29.7826086957 48.1304347826 -29.7826086957 73 -3 c 1,3,-1
 62 0 l 1,4,5
 36 15 36 15 36.5 39.5 c 128,-1,6
 37 64 37 64 50.0178571429 76.5357142857 c 128,-1,7
 63.0357142857 89.0714285714 63.0357142857 89.0714285714 82.0382653061 89.0714285714 c 0,8,9
 105.295918367 89.0714285714 105.295918367 89.0714285714 117.155312125 71.0245250274 c 128,-1,10
 129.014705882 52.9776214834 129.014705882 52.9776214834 129.014705882 33.2355103806 c 0,11,12
 129.014705882 -25.8676470588 129.014705882 -25.8676470588 63 -84 c 1,0,-1
EndSplineSet
EndChar

StartChar: hyphen
Encoding: 45 45 14
Width: 410
Flags: HMW
HStem: 238 80
VStem: 45 320<325 413 325 413>
LayerCount: 2
Fore
SplineSet
365 325 m 1,0,-1
 45 325 l 1,1,-1
 45 413 l 1,2,-1
 365 413 l 1,3,-1
 365 325 l 1,0,-1
EndSplineSet
EndChar

StartChar: period
Encoding: 46 46 15
Width: 135
Flags: HMW
HStem: 0 111
VStem: 4 89<32 56.5>
LayerCount: 2
Fore
SplineSet
49 0 m 128,-1,1
 31 0 31 0 17.5 13 c 128,-1,2
 4 26 4 26 4 44.5 c 0,3,4
 4 63 4 63 17.5 76 c 128,-1,5
 31 89 31 89 49 89 c 128,-1,6
 67 89 67 89 80 76 c 128,-1,7
 93 63 93 63 93 44.5 c 0,8,9
 93 26 93 26 80 13 c 128,-1,0
 67 0 67 0 49 0 c 128,-1,1
EndSplineSet
EndChar

StartChar: slash
Encoding: 47 47 16
Width: 455
Flags: HMW
HStem: 711 20G
VStem: -23 456
LayerCount: 2
Fore
SplineSet
114 -114 m 1,0,-1
 17 -114 l 1,1,-1
 341 817 l 1,2,-1
 439 817 l 1,3,-1
 114 -114 l 1,0,-1
EndSplineSet
EndChar

StartChar: zero
Encoding: 48 48 17
Width: 549
Flags: HMW
HStem: -12 75 620 96<229 317.5> 634 75
VStem: 63 91<185 198 198 487> 66 53 262 81 364 53 392 91<199 486 486 506>
LayerCount: 2
Fore
SplineSet
483 506 m 2,0,-1
 483 185 l 2,1,2
 483 84 483 84 421.5 36.5 c 128,-1,3
 360 -11 360 -11 274 -11 c 128,-1,4
 188 -11 188 -11 125.5 36.5 c 128,-1,5
 63 84 63 84 63 185 c 2,6,-1
 63 507 l 2,7,8
 63 610 63 610 119.5 663 c 128,-1,9
 176 716 176 716 275 716 c 128,-1,10
 374 716 374 716 428.5 660 c 128,-1,11
 483 604 483 604 483 506 c 2,0,-1
392 199 m 2,12,-1
 392 486 l 2,13,14
 392 552 392 552 364.5 586 c 128,-1,15
 337 620 337 620 273 620 c 128,-1,16
 209 620 209 620 181.5 586.5 c 128,-1,17
 154 553 154 553 154 487 c 2,18,-1
 154 198 l 2,19,20
 154 142 154 142 185.5 111 c 128,-1,21
 217 80 217 80 272 80 c 0,22,23
 327 80 327 80 359.5 111.5 c 128,-1,24
 392 143 392 143 392 199 c 2,12,-1
EndSplineSet
EndChar

StartChar: one
Encoding: 49 49 18
Width: 235
Flags: HMW
HStem: 0 21G<127 219 127 127> 508 68
VStem: 128 91<577 577>
LayerCount: 2
Fore
SplineSet
219 0 m 1,0,-1
 127 0 l 1,1,-1
 128 577 l 1,2,3
 99.9255319149 559.723404255 99.9255319149 559.723404255 57 554 c 2,4,-1
 42 552 l 1,5,-1
 17 633 l 1,6,7
 44.226744186 636.889534884 44.226744186 636.889534884 75.613372093 654.444767442 c 128,-1,8
 107 672 107 672 128 700 c 1,9,-1
 219 700 l 1,10,-1
 219 0 l 1,0,-1
EndSplineSet
EndChar

StartChar: two
Encoding: 50 50 19
Width: 400
Flags: HMW
HStem: 0 75 634 75
VStem: 17 106<0 84 84 84> 308 62
LayerCount: 2
Fore
SplineSet
383 0 m 1,0,-1
 17 0 l 1,1,-1
 17 84 l 1,2,-1
 255 438 l 1,3,4
 288.816901408 494.591549296 288.816901408 494.591549296 288.816901408 536.179825431 c 0,5,6
 288.816901408 554.852112676 288.816901408 554.852112676 282 570.5 c 0,7,8
 260 621 260 621 199 621 c 0,9,10
 168 621 168 621 144 600 c 128,-1,11
 120 579 120 579 114 549 c 1,12,-1
 32 590 l 1,13,14
 50 642 50 642 96 676 c 128,-1,15
 142 710 142 710 210.5 710 c 128,-1,16
 279 710 279 710 327.5 665.5 c 0,17,18
 380.307692308 617.047581285 380.307692308 617.047581285 380.307692308 548.446867565 c 128,-1,19
 380.307692308 479.846153846 380.307692308 479.846153846 336 406 c 1,20,-1
 123 84 l 1,21,-1
 383 84 l 1,22,-1
 383 0 l 1,0,-1
EndSplineSet
EndChar

StartChar: three
Encoding: 51 51 20
Width: 423
Flags: HMW
HStem: -12 75 634 75
VStem: 17 60 90 199 316 91<168 239.5>
LayerCount: 2
Fore
SplineSet
17 83 m 1,0,-1
 77 144 l 1,1,2
 94 114 94 114 125.5 95.5 c 128,-1,3
 157 77 157 77 193 77 c 0,4,5
 248 77 248 77 282 113.5 c 128,-1,6
 316 150 316 150 316 203.5 c 0,7,8
 316 257 316 257 275 289.5 c 128,-1,9
 234 322 234 322 169 325 c 1,10,-1
 59 325 l 1,11,-1
 248 609 l 1,12,-1
 61 609 l 1,13,-1
 61 700 l 1,14,-1
 349 700 l 1,15,-1
 349 611 l 1,16,-1
 217 413 l 1,17,-1
 221 412 l 1,18,19
 296 403 296 403 351.5 344.5 c 128,-1,20
 407 286 407 286 407 199 c 0,21,22
 407 112 407 112 344.5 50 c 128,-1,23
 282 -12 282 -12 194 -12 c 0,24,25
 140 -12 140 -12 93 13.5 c 128,-1,26
 46 39 46 39 17 83 c 1,0,-1
EndSplineSet
EndChar

StartChar: four
Encoding: 52 52 21
Width: 509
Flags: HMW
HStem: 0 21G<332 423 332 332> 166 75
VStem: 332 91<0 325 413 700>
LayerCount: 2
Fore
SplineSet
423 0 m 1,0,-1
 332 0 l 1,1,-1
 332 325 l 1,2,-1
 17 325 l 1,3,-1
 210 700 l 1,4,-1
 303 700 l 1,5,-1
 166 413 l 1,6,-1
 332 413 l 1,7,-1
 332 700 l 1,8,-1
 423 700 l 1,9,-1
 423 413 l 1,10,-1
 493 413 l 1,11,-1
 474 325 l 1,12,-1
 423 325 l 1,13,-1
 423 0 l 1,0,-1
EndSplineSet
EndChar

StartChar: five
Encoding: 53 53 22
Width: 423
Flags: HMW
HStem: -12 75 392 75 622 75
VStem: 17 60 316 91<169 238.5>
LayerCount: 2
Fore
SplineSet
17 83 m 1,0,-1
 77 145 l 1,1,2
 125 78 125 78 188.5 78 c 0,3,4
 252 78 252 78 284 114 c 128,-1,5
 316 150 316 150 316 203.5 c 0,6,7
 316 257 316 257 274.5 291 c 128,-1,8
 233 325 233 325 167 325 c 2,9,-1
 45 325 l 1,10,-1
 85 700 l 1,11,-1
 351 700 l 1,12,-1
 351 609 l 1,13,-1
 169 609 l 1,14,-1
 149 413 l 1,15,-1
 194 413 l 2,16,17
 283 413 283 413 345 351 c 128,-1,18
 407 289 407 289 407 200.5 c 0,19,20
 407 112 407 112 344.5 50 c 128,-1,21
 282 -12 282 -12 194 -12 c 0,22,23
 140 -12 140 -12 93 13.5 c 128,-1,24
 46 39 46 39 17 83 c 1,0,-1
EndSplineSet
EndChar

StartChar: six
Encoding: 54 54 23
Width: 458
Flags: HMW
HStem: -12 213<17 288>
VStem: 17 91<368 445 368 461 368 509> 229 67 229 213
LayerCount: 2
Fore
SplineSet
17 201 m 2,0,-1
 17 461 l 2,1,2
 17 544.037735849 17 544.037735849 67.5 615.5 c 0,3,4
 94 653 94 653 144 676.5 c 128,-1,5
 194 700 194 700 261 700 c 2,6,-1
 296 700 l 1,7,-1
 296 609 l 1,8,-1
 265 609 l 2,9,10
 108 609 108 609 108 445 c 2,11,-1
 108 368 l 1,12,13
 126 387 126 387 161 400 c 128,-1,14
 196 413 196 413 229 413 c 0,15,16
 318 413 318 413 380 351 c 128,-1,17
 442 289 442 289 442 200.5 c 128,-1,18
 442 112 442 112 380 50 c 128,-1,19
 318 -12 318 -12 229.5 -12 c 128,-1,20
 141 -12 141 -12 79 50 c 128,-1,21
 17 112 17 112 17 201 c 2,0,-1
107 206 m 1,22,-1
 107 201 l 2,23,24
 107 150 107 150 142.5 114 c 128,-1,25
 178 78 178 78 229 78 c 128,-1,26
 280 78 280 78 315.5 114 c 128,-1,27
 351 150 351 150 351 201 c 128,-1,28
 351 252 351 252 315.5 287 c 128,-1,29
 280 322 280 322 229.5 322 c 128,-1,30
 179 322 179 322 143.5 288.5 c 128,-1,31
 108 255 108 255 107 206 c 1,22,-1
EndSplineSet
EndChar

StartChar: seven
Encoding: 55 55 24
Width: 439
Flags: HMW
HStem: 0 21G<21 122 21 21> 609 91<29 321 29 423 29 423>
VStem: 29 394<609 700 609 700>
LayerCount: 2
Fore
SplineSet
122 0 m 1,0,-1
 21 0 l 1,1,-1
 321 609 l 1,2,-1
 29 609 l 1,3,-1
 29 700 l 1,4,-1
 423 700 l 1,5,-1
 423 609 l 1,6,-1
 122 0 l 1,0,-1
EndSplineSet
EndChar

StartChar: eight
Encoding: 56 56 25
Width: 459
Flags: HMW
HStem: -12 75 324 125<226 226> 381 21G 634 75
VStem: 17 335<167 234.5 167 242> 56 52 227 180 231 212
LayerCount: 2
Fore
SplineSet
352 201 m 128,-1,1
 352 252 352 252 317 287.5 c 128,-1,2
 282 323 282 323 226 324 c 1,3,4
 177 323 177 323 142.5 287 c 128,-1,5
 108 251 108 251 108 200.5 c 128,-1,6
 108 150 108 150 143.5 114.5 c 128,-1,7
 179 79 179 79 230 79 c 128,-1,8
 281 79 281 79 316.5 114.5 c 128,-1,0
 352 150 352 150 352 201 c 128,-1,1
330 388 m 1,9,10
 381 360 381 360 412 310.5 c 128,-1,11
 443 261 443 261 443 201 c 0,12,13
 443 112 443 112 380.5 50 c 128,-1,14
 318 -12 318 -12 230 -12 c 128,-1,15
 142 -12 142 -12 79.5 50 c 128,-1,16
 17 112 17 112 17 201 c 0,17,18
 17 262 17 262 48 312 c 128,-1,19
 79 362 79 362 131 389 c 1,20,21
 56 440 56 440 56 533 c 0,22,23
 56 606 56 606 107 657.5 c 128,-1,24
 158 709 158 709 231 709 c 128,-1,25
 304 709 304 709 355.5 657.5 c 128,-1,26
 407 606 407 606 407 533 c 0,27,28
 407 439 407 439 330 388 c 1,9,10
168.5 473.5 m 128,-1,30
 193 449 193 449 229 449 c 128,-1,31
 265 449 265 449 290.5 473.5 c 128,-1,32
 316 498 316 498 316 533.5 c 128,-1,33
 316 569 316 569 291 594.5 c 128,-1,34
 266 620 266 620 230.5 620 c 128,-1,35
 195 620 195 620 169.5 594.5 c 128,-1,36
 144 569 144 569 144 533.5 c 128,-1,29
 144 498 144 498 168.5 473.5 c 128,-1,30
EndSplineSet
EndChar

StartChar: nine
Encoding: 57 57 26
Width: 458
Flags: HMW
HStem: -12 75 241 75 634 75
VStem: 17 213 163 67 352 90<257 329 329 329 464.5 497>
LayerCount: 2
Fore
SplineSet
198 0 m 2,0,-1
 163 0 l 1,1,-1
 163 85 l 1,2,-1
 202 85 l 2,3,4
 270 85 270 85 311 131 c 128,-1,5
 352 177 352 177 352 257 c 2,6,-1
 352 329 l 1,7,8
 301 285 301 285 230 285 c 0,9,10
 141 285 141 285 79 347 c 128,-1,11
 17 409 17 409 17 497.5 c 128,-1,12
 17 586 17 586 79.5 648 c 128,-1,13
 142 710 142 710 230 710 c 128,-1,14
 318 710 318 710 380 648 c 128,-1,15
 442 586 442 586 442 497 c 2,16,-1
 442 239 l 2,17,18
 442 155.962264151 442 155.962264151 391.5 84.5 c 0,19,20
 365 47 365 47 315 23.5 c 128,-1,21
 265 0 265 0 198 0 c 2,0,-1
230 376 m 128,-1,23
 280 376 280 376 316 411.5 c 128,-1,24
 352 447 352 447 352 498.5 c 128,-1,25
 352 550 352 550 315.5 585 c 128,-1,26
 279 620 279 620 229.5 620 c 128,-1,27
 180 620 180 620 144 583.5 c 128,-1,28
 108 547 108 547 108 497 c 128,-1,29
 108 447 108 447 144 411.5 c 128,-1,22
 180 376 180 376 230 376 c 128,-1,23
EndSplineSet
EndChar

StartChar: colon
Encoding: 58 58 27
Width: 128
Flags: HMW
HStem: 0 111 406 111
VStem: 15 72 18 93<358.5 383.5>
LayerCount: 2
Fore
SplineSet
65 325 m 128,-1,1
 46 325 46 325 32 338.5 c 128,-1,2
 18 352 18 352 18 371 c 128,-1,3
 18 390 18 390 32 404 c 128,-1,4
 46 418 46 418 65 418 c 128,-1,5
 84 418 84 418 97.5 404 c 128,-1,6
 111 390 111 390 111 371 c 128,-1,7
 111 352 111 352 97.5 338.5 c 128,-1,0
 84 325 84 325 65 325 c 128,-1,1
98 124 m 128,-1,9
 84 110 84 110 64.5 110 c 128,-1,10
 45 110 45 110 31 124 c 128,-1,11
 17 138 17 138 17 158 c 128,-1,12
 17 178 17 178 31 192 c 128,-1,13
 45 206 45 206 64.5 206 c 128,-1,14
 84 206 84 206 98 192 c 128,-1,15
 112 178 112 178 112 158 c 128,-1,8
 112 138 112 138 98 124 c 128,-1,9
EndSplineSet
EndChar

StartChar: semicolon
Encoding: 59 59 28
Width: 158
Flags: HMW
HStem: 0 111 406 111
VStem: 50 91<249 274.5>
LayerCount: 2
Fore
SplineSet
95 216 m 128,-1,1
 76 216 76 216 63 229.5 c 128,-1,2
 50 243 50 243 50 262 c 128,-1,3
 50 281 50 281 63 294 c 128,-1,4
 76 307 76 307 95 307 c 128,-1,5
 114 307 114 307 127.5 294 c 128,-1,6
 141 281 141 281 141 262 c 128,-1,7
 141 243 141 243 127.5 229.5 c 128,-1,0
 114 216 114 216 95 216 c 128,-1,1
76 -84 m 1,8,-1
 17 -55 l 1,9,10
 61.1304347826 -29.7826086957 61.1304347826 -29.7826086957 86 -3 c 1,11,-1
 74 0 l 1,12,13
 49 14 49 14 49 39 c 128,-1,14
 49 64 49 64 62.5 76.5357142857 c 128,-1,15
 76 89.0714285714 76 89.0714285714 94.1734693878 89.0714285714 c 0,16,17
 118.295918367 89.0714285714 118.295918367 89.0714285714 130.147959184 71.0357142857 c 128,-1,18
 142 53 142 53 142 35 c 0,19,20
 142 -24 142 -24 76 -84 c 1,8,-1
EndSplineSet
EndChar

StartChar: less
Encoding: 60 60 29
Width: 373
Flags: HMW
HStem: -8 21G
VStem: 17 340<358 578 359 578>
LayerCount: 2
Fore
SplineSet
355 136 m 1,0,-1
 295 80 l 1,1,-1
 17 358 l 1,2,-1
 17 359 l 1,3,-1
 295 637 l 1,4,-1
 357 578 l 1,5,-1
 135 358 l 1,6,-1
 355 136 l 1,0,-1
EndSplineSet
EndChar

StartChar: equal
Encoding: 61 61 30
Width: 353
Flags: HMW
HStem: 134 80 270 80
VStem: 17 320<221 309 221 309 357 445 221 445>
LayerCount: 2
Fore
SplineSet
337 357 m 1,0,-1
 17 357 l 1,1,-1
 17 445 l 1,2,-1
 337 445 l 1,3,-1
 337 357 l 1,0,-1
337 221 m 1,4,-1
 17 221 l 1,5,-1
 17 309 l 1,6,-1
 337 309 l 1,7,-1
 337 221 l 1,4,-1
EndSplineSet
EndChar

StartChar: greater
Encoding: 62 62 31
Width: 373
Flags: HMW
HStem: -8 21G
VStem: -41 313 16 340<358 578>
LayerCount: 2
Fore
SplineSet
78 80 m 1,0,-1
 18 136 l 1,1,-1
 238 358 l 1,2,-1
 16 578 l 1,3,-1
 78 637 l 1,4,-1
 356 359 l 1,5,-1
 356 358 l 1,6,-1
 78 80 l 1,0,-1
EndSplineSet
EndChar

StartChar: question
Encoding: 63 63 32
Width: 398
Flags: HMW
HStem: 89 30<170 194> 656 75
VStem: 17 92<532 560 532 578.5> 139 88<119 144.5 144.5 182> 313 59
LayerCount: 2
Fore
SplineSet
227 119 m 1,0,-1
 139 119 l 1,1,-1
 139 212 l 2,2,3
 139 258 139 258 153 297 c 128,-1,4
 167 336 167 336 183.5 358 c 128,-1,5
 200 380 200 380 226 410 c 128,-1,6
 252 440 252 440 270.052238806 467.910447761 c 128,-1,7
 288.104477612 495.820895522 288.104477612 495.820895522 288.104477612 528.897304522 c 0,8,9
 288.104477612 571.303880597 288.104477612 571.303880597 260.552238806 596.651940299 c 128,-1,10
 233 622 233 622 196 622 c 128,-1,11
 159 622 159 622 134 598 c 128,-1,12
 109 574 109 574 109 532 c 1,13,-1
 17 532 l 1,14,15
 17 607 17 607 63.5 658 c 128,-1,16
 110 709 110 709 195 709 c 0,17,18
 236 709 236 709 273.5 692 c 0,19,20
 344.375081682 659.869962971 344.375081682 659.869962971 373 579.5 c 0,21,22
 381.666666667 555.166666667 381.666666667 555.166666667 381.666666667 535.083333333 c 0,23,24
 381.666666667 471.518518519 381.666666667 471.518518519 346 420 c 0,25,26
 328 393 328 393 301.5 365.5 c 128,-1,27
 275 338 275 338 262 322.5 c 128,-1,28
 249 307 249 307 238.5 271.5 c 128,-1,29
 228 236 228 236 227 182 c 1,30,-1
 227 119 l 1,0,-1
213.5 76 m 128,-1,32
 227 63 227 63 227 44.5 c 128,-1,33
 227 26 227 26 213.5 13 c 128,-1,34
 200 0 200 0 182 0 c 128,-1,35
 164 0 164 0 151 13 c 128,-1,36
 138 26 138 26 138 44.5 c 128,-1,37
 138 63 138 63 151 76 c 128,-1,38
 164 89 164 89 182 89 c 128,-1,31
 200 89 200 89 213.5 76 c 128,-1,32
EndSplineSet
EndChar

StartChar: at
Encoding: 64 64 33
Width: 747
Flags: HMW
HStem: -17 55 131 68 133 55 505 68 676 55
VStem: 41 68 184 75 454 80 684 68
LayerCount: 2
Fore
SplineSet
542 91 m 1,0,1
 411.443137255 52.7333333333 411.443137255 52.7333333333 324.16 52.7333333333 c 0,2,3
 280.133333333 52.7333333333 280.133333333 52.7333333333 246.066666667 64.8666666667 c 128,-1,4
 212 77 212 77 186.5 112 c 128,-1,5
 161 147 161 147 157 204 c 1,6,-1
 157 305 l 2,7,8
 157 416 157 416 245 449 c 1,9,10
 272.176470588 460.529411765 272.176470588 460.529411765 293 460.529411765 c 128,-1,11
 313.823529412 460.529411765 313.823529412 460.529411765 339.411764706 458.764705882 c 0,12,13
 395.724907063 454.881040892 395.724907063 454.881040892 450 431 c 1,14,15
 445 473 445 473 410 492.5 c 0,16,17
 373.047337278 513.087912088 373.047337278 513.087912088 323.276415892 513.087912088 c 0,18,19
 229.142857143 513.087912088 229.142857143 513.087912088 165.571428571 470.543956044 c 128,-1,20
 102 428 102 428 102 334 c 2,21,-1
 102 190 l 2,22,23
 102 120 102 120 139.5 75.5 c 128,-1,24
 177 31 177 31 227.5 15.5 c 128,-1,25
 278 0 278 0 340 0 c 0,26,27
 445 0 445 0 525 41 c 128,-1,28
 605 82 605 82 605 162 c 2,29,-1
 604 337 l 2,30,31
 604 425.15 604 425.15 625 453.5 c 0,32,33
 651.380090498 489.113122172 651.380090498 489.113122172 704 500 c 1,34,-1
 731 429 l 1,35,36
 706 419 706 419 698.5 400.5 c 128,-1,37
 691 382 691 382 691 353 c 2,38,-1
 692 176 l 2,39,40
 692 117 692 117 668.5 70 c 128,-1,41
 645 23 645 23 608.5 -4.5 c 128,-1,42
 572 -32 572 -32 523 -50.5 c 0,43,44
 436.918918919 -83 436.918918919 -83 338 -83 c 0,45,46
 336.056338028 -83.014084507 336.056338028 -83.014084507 334.121900417 -83.014084507 c 0,47,48
 198.711267606 -83.014084507 198.711267606 -83.014084507 107.855633803 -13.5070422535 c 128,-1,49
 17 56 17 56 17 183 c 2,50,-1
 17 342 l 2,51,52
 17 398 17 398 35.5 443 c 128,-1,53
 54 488 54 488 85.5 516 c 0,54,55
 147.206008584 570.849785408 147.206008584 570.849785408 222 585 c 1,56,57
 278.980295567 594.275862069 278.980295567 594.275862069 319.352216749 594.275862069 c 128,-1,58
 359.724137931 594.275862069 359.724137931 594.275862069 398.362068966 582.637931034 c 128,-1,59
 437 571 437 571 470 550 c 128,-1,60
 503 529 503 529 522.5 489.5 c 128,-1,61
 542 450 542 450 542 399 c 1,62,-1
 579 384 l 1,63,-1
 579 298 l 1,64,-1
 542 314 l 1,65,-1
 542 91 l 1,0,1
267.5 159.5 m 0,66,67
 282 145 282 145 300.5625 139.6375 c 128,-1,68
 319.125 134.275 319.125 134.275 353.32734375 134.275 c 128,-1,69
 387.5296875 134.275 387.5296875 134.275 451 155 c 1,70,-1
 451 344 l 1,71,72
 385.947368421 376.526315789 385.947368421 376.526315789 322.029085873 376.526315789 c 0,73,74
 285.580296896 376.526315789 285.580296896 376.526315789 263.790148448 356.763157895 c 128,-1,75
 242 337 242 337 242 298 c 2,76,-1
 242 228 l 2,77,78
 242 185 242 185 267.5 159.5 c 0,66,67
EndSplineSet
EndChar

StartChar: A
Encoding: 65 65 34
Width: 527
Flags: HMW
HStem: 0 21G<18 119 18 18 411 517 411 411> 280 20G<194 334 334 334>
VStem: 119 292<0 0>
LayerCount: 2
Fore
SplineSet
517 0 m 1,0,-1
 411 0 l 1,1,-1
 356 205 l 1,2,-1
 172 205 l 1,3,-1
 119 0 l 1,4,-1
 18 0 l 1,5,-1
 203 700 l 1,6,-1
 322 700 l 1,7,-1
 517 0 l 1,0,-1
334 300 m 1,8,-1
 262 550 l 1,9,-1
 194 300 l 1,10,-1
 334 300 l 1,8,-1
EndSplineSet
EndChar

StartChar: B
Encoding: 66 66 35
Width: 548
Flags: HMW
HStem: 84 0<169 169 269 269> 413 0<169 169 257 257> 647 67
VStem: 78 91<84 84 84 325 413 610> 169 306<84 584.5 413 584.5 505.5 584.5 505.5 610> 169 342<84 256 158.5 256 158.5 325 158.5 413 158.5 610>
LayerCount: 2
Fore
SplineSet
301 0 m 2,0,-1
 78 0 l 1,1,-1
 78 700 l 1,2,-1
 288 700 l 2,3,4
 370 700 370 700 422.5 655 c 128,-1,5
 475 610 475 610 475 521 c 128,-1,6
 475 432 475 432 409 387 c 0,7,8
 408 386 408 386 408 385 c 2,9,-1
 408 384 l 1,10,11
 452 364 452 364 481.5 319.5 c 128,-1,12
 511 275 511 275 511 206 c 0,13,14
 511 127.304347826 511 127.304347826 467 68 c 0,15,16
 444 37 444 37 401.5 18.5 c 128,-1,17
 359 0 359 0 301 0 c 2,0,-1
169 413 m 1,18,-1
 257 413 l 2,19,20
 371 413 371 413 371 514 c 0,21,22
 371 568 371 568 343 589 c 128,-1,23
 315 610 315 610 262 610 c 2,24,-1
 169 610 l 1,25,-1
 169 413 l 1,18,-1
169 84 m 1,26,-1
 269 84 l 2,27,28
 337 84 337 84 372.5 109.5 c 128,-1,29
 408 135 408 135 408 203 c 128,-1,30
 408 271 408 271 372 298 c 128,-1,31
 336 325 336 325 281 325 c 2,32,-1
 169 325 l 1,33,-1
 169 84 l 1,26,-1
EndSplineSet
EndChar

StartChar: C
Encoding: 67 67 36
Width: 432
Flags: HMW
HStem: -12 52 659 51
VStem: 66 91<183 185 185 504 504 513>
LayerCount: 2
Fore
SplineSet
412 107 m 1,0,-1
 427 23 l 1,1,2
 341.745951417 -10.0576923077 341.745951417 -10.0576923077 265.350591716 -10.0576923077 c 0,3,4
 248.615384615 -10.0576923077 248.615384615 -10.0576923077 216.307692308 -7.02884615385 c 128,-1,5
 184 -4 184 -4 147.5 15.5 c 128,-1,6
 111 35 111 35 88.5 77.5 c 128,-1,7
 66 120 66 120 66 183 c 2,8,-1
 66 504 l 2,9,10
 66 580 66 580 87.5 619 c 128,-1,11
 109 658 109 658 153 685 c 1,12,13
 198.161290323 710.290322581 198.161290323 710.290322581 259.638917794 710.290322581 c 0,14,15
 336.529032258 710.290322581 336.529032258 710.290322581 402 677 c 1,16,-1
 376 599 l 1,17,18
 328 617 328 617 276.5 617 c 128,-1,19
 225 617 225 617 191 591.5 c 128,-1,20
 157 566 157 566 157 513 c 2,21,-1
 157 185 l 2,22,23
 157 140 157 140 179 115 c 0,24,25
 207.4 82.7272727273 207.4 82.7272727273 269.245454545 82.7272727273 c 128,-1,26
 331.090909091 82.7272727273 331.090909091 82.7272727273 412 107 c 1,0,-1
EndSplineSet
EndChar

StartChar: D
Encoding: 68 68 37
Width: 576
Flags: HMW
HStem: 0 611<169 276 169 286 78 276> 190 511<78 407>
VStem: 78 329<190 484 484 529.5 190 701 190 701> 270 228<83 200>
LayerCount: 2
Fore
SplineSet
286 0 m 2,0,-1
 78 0 l 1,1,-1
 78 701 l 1,2,-1
 266 701 l 2,3,4
 379 701 379 701 438.5 639 c 128,-1,5
 498 577 498 577 498 474 c 2,6,-1
 498 200 l 2,7,8
 498 0 498 0 286 0 c 2,0,-1
407 190 m 2,9,-1
 407 484 l 2,10,11
 407 549 407 549 371.5 580 c 128,-1,12
 336 611 336 611 276 611 c 2,13,-1
 169 611 l 1,14,-1
 169 83 l 1,15,-1
 270 83 l 2,16,17
 345.818181818 83 345.818181818 83 376.5 110 c 128,-1,18
 407 136.84 407 136.84 407 190 c 2,9,-1
EndSplineSet
EndChar

StartChar: E
Encoding: 69 69 38
Width: 465
Flags: HMW
HStem: 0 82<169 410 169 410> 610 90<169 412 169 169>
VStem: 78 91<82 325 413 610>
LayerCount: 2
Fore
SplineSet
410 0 m 1,0,-1
 78 0 l 1,1,-1
 78 700 l 1,2,-1
 412 700 l 1,3,-1
 412 610 l 1,4,-1
 169 610 l 1,5,-1
 169 413 l 1,6,-1
 325 413 l 1,7,-1
 298 325 l 1,8,-1
 169 325 l 1,9,-1
 169 82 l 1,10,-1
 410 82 l 1,11,-1
 410 0 l 1,0,-1
EndSplineSet
EndChar

StartChar: F
Encoding: 70 70 39
Width: 449
Flags: HMW
HStem: 610 90<169 412 169 169>
VStem: 78 91<0 325 413 610> 249 79
LayerCount: 2
Fore
SplineSet
169 0 m 1,0,-1
 78 0 l 1,1,-1
 78 700 l 1,2,-1
 412 700 l 1,3,-1
 412 610 l 1,4,-1
 169 610 l 1,5,-1
 169 413 l 1,6,-1
 320 413 l 1,7,-1
 288 325 l 1,8,-1
 169 325 l 1,9,-1
 169 0 l 1,0,-1
EndSplineSet
EndChar

StartChar: G
Encoding: 71 71 40
Width: 537
Flags: HMW
HStem: -10 30 0 21G<394 476 394 394> 659 51
VStem: 65 91<189 503 503 512> 385 91<20 20>
LayerCount: 2
Fore
SplineSet
476 0 m 1,0,-1
 394 0 l 1,1,-1
 385 20 l 1,2,3
 341 -10 341 -10 276 -10 c 0,4,5
 188 -10 188 -10 126.5 40 c 128,-1,6
 65 90 65 90 65 189 c 2,7,-1
 65 503 l 2,8,9
 65 631 65 631 152 684 c 1,10,11
 197.161290323 709.290322581 197.161290323 709.290322581 258.638917794 709.290322581 c 0,12,13
 335.529032258 709.290322581 335.529032258 709.290322581 401 676 c 1,14,-1
 374 598 l 1,15,16
 323 617 323 617 277 617 c 0,17,18
 156 617 156 617 156 512 c 2,19,-1
 156 187 l 2,20,21
 156 81 156 81 275 81 c 0,22,23
 323 81 323 81 354.5 107 c 128,-1,24
 386 133 386 133 386 186 c 2,25,-1
 386 212 l 1,26,-1
 326 212 l 1,27,-1
 296 300 l 1,28,-1
 476 300 l 1,29,-1
 476 0 l 1,0,-1
EndSplineSet
EndChar

StartChar: H
Encoding: 72 72 41
Width: 588
Flags: HMW
VStem: 78 91<0 325 0 413 413 700> 287 78 418 90<0 325 325 325 413 700>
LayerCount: 2
Fore
SplineSet
508 0 m 1,0,-1
 418 0 l 1,1,-1
 418 325 l 1,2,-1
 169 325 l 1,3,-1
 169 0 l 1,4,-1
 78 0 l 1,5,-1
 78 700 l 1,6,-1
 169 700 l 1,7,-1
 169 413 l 1,8,-1
 418 413 l 1,9,-1
 418 700 l 1,10,-1
 508 700 l 1,11,-1
 508 0 l 1,0,-1
EndSplineSet
EndChar

StartChar: I
Encoding: 73 73 42
Width: 296
Flags: HMW
VStem: 126 92<0 612 612 612>
LayerCount: 2
Fore
SplineSet
218 0 m 1,0,-1
 126 0 l 1,1,-1
 126 612 l 1,2,-1
 63 614 l 1,3,-1
 63 700 l 1,4,-1
 218 700 l 1,5,-1
 218 0 l 1,0,-1
EndSplineSet
EndChar

StartChar: J
Encoding: 74 74 43
Width: 221
Flags: HMW
HStem: -17 80
VStem: 92 90<141 612 612 612> 192 78
LayerCount: 2
Fore
SplineSet
23 -37 m 1,0,-1
 -5 37 l 1,1,2
 18 37 18 37 37.5 43 c 128,-1,3
 57 49 57 49 74.5 74 c 128,-1,4
 92 99 92 99 92 141 c 2,5,-1
 92 612 l 1,6,-1
 30 614 l 1,7,-1
 30 700 l 1,8,-1
 182 700 l 1,9,-1
 182 132 l 2,10,11
 182 44 182 44 145.5 4 c 128,-1,12
 109 -36 109 -36 23 -37 c 1,0,-1
EndSplineSet
EndChar

StartChar: K
Encoding: 75 75 44
Width: 512
Flags: HMW
HStem: 0 21G<79 175 79 79 399 511 399 399> 694 20G
VStem: 79 96<0 268 427 701>
LayerCount: 2
Fore
SplineSet
511 0 m 1,0,-1
 399 0 l 1,1,-1
 197 301 l 1,2,-1
 175 268 l 1,3,-1
 175 0 l 1,4,-1
 79 0 l 1,5,-1
 79 701 l 1,6,-1
 175 701 l 1,7,-1
 175 427 l 1,8,-1
 359 701 l 1,9,-1
 468 701 l 1,10,-1
 251 384 l 1,11,-1
 511 0 l 1,0,-1
EndSplineSet
EndChar

StartChar: L
Encoding: 76 76 45
Width: 440
Flags: HMW
HStem: 0 80 694 20G
VStem: 78 105
LayerCount: 2
Fore
SplineSet
439 0 m 1,0,-1
 78 0 l 1,1,-1
 78 700 l 1,2,-1
 169 700 l 1,3,-1
 169 83 l 1,4,-1
 439 83 l 1,5,-1
 439 0 l 1,0,-1
EndSplineSet
EndChar

StartChar: M
Encoding: 77 77 46
Width: 694
Flags: HMW
HStem: 0 21G<78 169 78 78 307 383 307 307 523 614 523 523> 0 184<78 345 345 345 345 383 307 345 345 614 345 523> 427 273<78 169>
VStem: 78 91<0 427 0 700> 523 91<0 428 428 428>
LayerCount: 2
Fore
SplineSet
614 0 m 1,0,-1
 523 0 l 1,1,-1
 523 428 l 1,2,-1
 383 0 l 1,3,-1
 307 0 l 1,4,-1
 169 427 l 1,5,-1
 169 0 l 1,6,-1
 78 0 l 1,7,-1
 78 700 l 1,8,-1
 169 700 l 1,9,-1
 345 184 l 1,10,-1
 523 700 l 1,11,-1
 614 700 l 1,12,-1
 614 0 l 1,0,-1
EndSplineSet
EndChar

StartChar: N
Encoding: 78 78 47
Width: 650
Flags: HMW
HStem: 0 186<478 570 478 478> 516 184<78 169>
VStem: 78 91<0 516 0 700> 232 79 478 92<0 0 186 700>
LayerCount: 2
Fore
SplineSet
570 0 m 1,0,-1
 478 0 l 1,1,-1
 169 516 l 1,2,-1
 169 0 l 1,3,-1
 78 0 l 1,4,-1
 78 700 l 1,5,-1
 169 700 l 1,6,-1
 478 186 l 1,7,-1
 478 700 l 1,8,-1
 570 700 l 1,9,-1
 570 0 l 1,0,-1
EndSplineSet
EndChar

StartChar: O
Encoding: 79 79 48
Width: 549
Flags: HMW
HStem: 0 42 620 96<229 317.5>
VStem: 63 91<185 198 198 487> 262 81 392 91<199 486 486 506>
LayerCount: 2
Fore
SplineSet
483 506 m 2,0,-1
 483 185 l 2,1,2
 483 84 483 84 421.5 36.5 c 128,-1,3
 360 -11 360 -11 274 -11 c 128,-1,4
 188 -11 188 -11 125.5 36.5 c 128,-1,5
 63 84 63 84 63 185 c 2,6,-1
 63 507 l 2,7,8
 63 610 63 610 119.5 663 c 128,-1,9
 176 716 176 716 275 716 c 128,-1,10
 374 716 374 716 428.5 660 c 128,-1,11
 483 604 483 604 483 506 c 2,0,-1
392 199 m 2,12,-1
 392 486 l 2,13,14
 392 552 392 552 364.5 586 c 128,-1,15
 337 620 337 620 273 620 c 128,-1,16
 209 620 209 620 181.5 586.5 c 128,-1,17
 154 553 154 553 154 487 c 2,18,-1
 154 198 l 2,19,20
 154 142 154 142 185.5 111 c 128,-1,21
 217 80 217 80 272 80 c 0,22,23
 327 80 327 80 359.5 111.5 c 128,-1,24
 392 143 392 143 392 199 c 2,12,-1
EndSplineSet
EndChar

StartChar: P
Encoding: 80 80 49
Width: 549
Flags: HMW
HStem: 0 21G<78 169 78 78> 0 610<78 295 78 295>
VStem: 78 79 169 0<0 0 212 212 300 300 610 610> 312 109
LayerCount: 2
Fore
SplineSet
169 300 m 1,0,-1
 299 300 l 2,1,2
 343.588235294 300 343.588235294 300 378 322.5 c 0,3,4
 394.661097852 333.393794749 394.661097852 333.393794749 412.5 377 c 0,5,6
 421 397.777777778 421 397.777777778 421 423.388888889 c 2,7,8
 421 470 l 2,9,10
 421 548 421 548 389 579 c 128,-1,11
 357 610 357 610 295 610 c 2,12,-1
 169 610 l 1,13,-1
 169 300 l 1,0,-1
169 0 m 1,14,-1
 78 0 l 1,15,-1
 78 700 l 1,16,-1
 312 700 l 2,17,18
 413 700 413 700 462.5 636 c 128,-1,19
 512 572 512 572 512 471 c 0,20,21
 512 212 512 212 321 212 c 2,22,-1
 169 212 l 1,23,-1
 169 0 l 1,14,-1
EndSplineSet
EndChar

StartChar: Q
Encoding: 81 81 50
Width: 549
Flags: HMW
HStem: -108 99 82 21G 621 95<229 317.5>
VStem: 63 91<185 186 186 507 507 509> 226 92<137 138 138 174 127 174> 392 91<187 506>
LayerCount: 2
Fore
SplineSet
430 -28 m 1,0,-1
 421 -108 l 1,1,2
 417.228571429 -108.085714286 417.228571429 -108.085714286 413.529795918 -108.085714286 c 0,3,4
 287.771428571 -108.085714286 287.771428571 -108.085714286 246 -9 c 1,5,6
 181.245283019 -5.07547169811 181.245283019 -5.07547169811 125.5 36 c 0,7,8
 97 57 97 57 80 95.5 c 128,-1,9
 63 134 63 134 63 185 c 2,10,-1
 63 507 l 2,11,12
 63 610 63 610 119.5 663 c 128,-1,13
 176 716 176 716 275 716 c 128,-1,14
 374 716 374 716 428.5 660 c 128,-1,15
 483 604 483 604 483 506 c 2,16,-1
 483 185 l 2,17,18
 483 100 483 100 440 54.5 c 128,-1,19
 397 9 397 9 339 -2 c 1,20,21
 352 -18 352 -18 370.923076923 -23.0769230769 c 128,-1,22
 389.846153846 -28.1538461538 389.846153846 -28.1538461538 407.076923077 -28.1538461538 c 128,-1,23
 424.307692308 -28.1538461538 424.307692308 -28.1538461538 430 -28 c 1,0,-1
392 187 m 2,24,-1
 392 509 l 2,25,26
 392 557 392 557 363.5 589 c 128,-1,27
 335 621 335 621 273 621 c 0,28,29
 154 621 154 621 154 509 c 2,30,-1
 154 186 l 2,31,32
 154 150 154 150 172.5 116 c 128,-1,33
 191 82 191 82 228 81 c 1,34,35
 226 93 226 93 226 137 c 2,36,-1
 226 174 l 1,37,-1
 318 174 l 1,38,-1
 318 138 l 2,39,40
 318 90 318 90 319 82 c 1,41,42
 357 84 357 84 374.5 115 c 128,-1,43
 392 146 392 146 392 187 c 2,24,-1
EndSplineSet
EndChar

StartChar: R
Encoding: 82 82 51
Width: 564
Flags: HMW
HStem: 300 400<169 304 304 318 318 360.5>
VStem: 78 91<0 212 300 609> 169 343<0 532 435.5 532 435.5 609 300 532>
LayerCount: 2
Fore
SplineSet
513 0 m 1,0,-1
 420 0 l 1,1,-1
 347 214 l 1,2,3
 339 212 339 212 324 212 c 2,4,-1
 169 212 l 1,5,-1
 169 0 l 1,6,-1
 78 0 l 1,7,-1
 78 700 l 1,8,-1
 318 700 l 2,9,10
 414 700 414 700 463 635 c 128,-1,11
 512 570 512 570 512 470 c 0,12,13
 512 347.444444444 512 347.444444444 477 293 c 0,14,15
 459 265 459 265 431 244 c 1,16,-1
 513 0 l 1,0,-1
169 300 m 1,17,-1
 304 300 l 2,18,19
 361.21875 300 361.21875 300 383.5 331 c 0,20,21
 408.737907762 366.113610799 408.737907762 366.113610799 412.368953881 394.556805399 c 0,22,23
 417 430.833333333 417 430.833333333 417 470 c 0,24,25
 417 548 417 548 384.5 578.5 c 128,-1,26
 352 609 352 609 290 609 c 2,27,-1
 169 609 l 1,28,-1
 169 300 l 1,17,-1
EndSplineSet
EndChar

StartChar: S
Encoding: 83 83 52
Width: 561
Flags: HMW
HStem: -17 80 651 80
VStem: 37 97<178 189> 54 98 397 29 412 100<155 283>
LayerCount: 2
Fore
SplineSet
37 178 m 1,0,-1
 134 189 l 1,1,2
 139 142 139 142 176 110 c 128,-1,3
 213 78 213 78 275.5 78 c 128,-1,4
 338 78 338 78 375 108 c 128,-1,5
 412 138 412 138 412 181.5 c 128,-1,6
 412 225 412 225 392.5 254 c 128,-1,7
 373 283 373 283 341 301 c 128,-1,8
 309 319 309 319 271 334 c 128,-1,9
 233 349 233 349 195 365.5 c 128,-1,10
 157 382 157 382 125 402.5 c 0,11,12
 54 447.984375 54 447.984375 54 537 c 0,13,14
 54 607 54 607 112.5 658.5 c 128,-1,15
 171 710 171 710 280 710 c 0,16,17
 363 710 363 710 426 680 c 1,18,-1
 421.5 666.5 l 2,19,20
 417 653 417 653 409.5 631 c 128,-1,21
 402 609 402 609 397 594 c 1,22,23
 338 618 338 618 277.5 618 c 128,-1,24
 217 618 217 618 184.443661972 594.676056338 c 128,-1,25
 151.887323944 571.352112676 151.887323944 571.352112676 151.887323944 534.871015567 c 128,-1,26
 151.887323944 498.389918458 151.887323944 498.389918458 190.943661972 472.694959229 c 128,-1,27
 230 447 230 447 282.5 426.5 c 128,-1,28
 335 406 335 406 387 380.5 c 128,-1,29
 439 355 439 355 475.5 307 c 128,-1,30
 512 259 512 259 512 193 c 0,31,32
 512 103 512 103 453 46 c 128,-1,33
 394 -11 394 -11 279 -11 c 128,-1,34
 164 -11 164 -11 101.5 46.5 c 128,-1,35
 39 104 39 104 37 178 c 1,0,-1
EndSplineSet
EndChar

StartChar: T
Encoding: 84 84 53
Width: 402
Flags: HMW
HStem: 0 21G<153 244 153 153> 634 80
VStem: 34 79 153 91<0 610>
LayerCount: 2
Fore
SplineSet
244 0 m 1,0,-1
 153 0 l 1,1,-1
 153 610 l 1,2,-1
 0 610 l 1,3,-1
 0 700 l 1,4,-1
 402 700 l 1,5,-1
 402 610 l 1,6,-1
 244 610 l 1,7,-1
 244 0 l 1,0,-1
EndSplineSet
EndChar

StartChar: U
Encoding: 85 85 54
Width: 566
Flags: HMW
HStem: -17 80 694 20G
VStem: 74 91<186 212 212 701> 404 91<212 701>
LayerCount: 2
Fore
SplineSet
404 212 m 2,0,-1
 404 701 l 1,1,-1
 495 701 l 1,2,-1
 495 186 l 2,3,4
 495 133 495 133 476.5 94 c 128,-1,5
 458 55 458 55 426.5 34 c 128,-1,6
 395 13 395 13 360 3 c 128,-1,7
 325 -7 325 -7 285 -7 c 128,-1,8
 245 -7 245 -7 209.5 3 c 128,-1,9
 174 13 174 13 142.5 34 c 128,-1,10
 111 55 111 55 92.5 94 c 128,-1,11
 74 133 74 133 74 186 c 2,12,-1
 74 701 l 1,13,-1
 165 701 l 1,14,-1
 165 212 l 2,15,16
 165 81 165 81 284.5 81 c 0,17,18
 404 81 404 81 404 212 c 2,0,-1
EndSplineSet
EndChar

StartChar: V
Encoding: 86 86 55
Width: 593
Flags: HMW
HStem: 0 21G<262 373 262 262> 0 95 694 20G
VStem: 180 272<700 700>
LayerCount: 2
Fore
SplineSet
373 0 m 1,0,-1
 262 0 l 1,1,-1
 78 700 l 1,2,-1
 180 700 l 1,3,-1
 317 165 l 1,4,-1
 452 700 l 1,5,-1
 556 700 l 1,6,-1
 373 0 l 1,0,-1
EndSplineSet
EndChar

StartChar: W
Encoding: 87 87 56
Width: 811
Flags: HMW
HStem: 0 21G<223 336 223 223 519 630 519 519> 0 120 600 114 694 20G
VStem: 78 696<700 700>
LayerCount: 2
Fore
SplineSet
630 0 m 1,0,-1
 519 0 l 1,1,-1
 427 439 l 1,2,-1
 336 0 l 1,3,-1
 223 0 l 1,4,-1
 78 700 l 1,5,-1
 178 700 l 1,6,-1
 281 188 l 1,7,-1
 388 700 l 1,8,-1
 466 700 l 1,9,-1
 573 188 l 1,10,-1
 671 700 l 1,11,-1
 774 700 l 1,12,-1
 630 0 l 1,0,-1
EndSplineSet
EndChar

StartChar: X
Encoding: 88 88 57
Width: 671
Flags: HMW
HStem: 0 21G<78 191 78 78 515 630 515 515> 694 20G
VStem: 92 522<700 700>
LayerCount: 2
Fore
SplineSet
630 0 m 1,0,-1
 515 0 l 1,1,-1
 351 261 l 1,2,-1
 191 0 l 1,3,-1
 78 0 l 1,4,-1
 297 351 l 1,5,-1
 92 700 l 1,6,-1
 199 700 l 1,7,-1
 355 446 l 1,8,-1
 507 700 l 1,9,-1
 614 700 l 1,10,-1
 410 357 l 1,11,-1
 630 0 l 1,0,-1
EndSplineSet
EndChar

StartChar: Y
Encoding: 89 89 58
Width: 552
Flags: HMW
HStem: 0 21G 694 20G
VStem: 52 91<427 430 430 700> 405 91<160 246 246 246 363 700>
LayerCount: 2
Fore
SplineSet
362 -15 m 1,0,-1
 335 53 l 1,1,2
 405 66 405 66 405 160 c 2,3,-1
 405 246 l 1,4,5
 356 212 356 212 281 212 c 0,6,7
 177 212 177 212 114.5 269 c 128,-1,8
 52 326 52 326 52 427 c 2,9,-1
 52 700 l 1,10,-1
 143 700 l 1,11,-1
 143 430 l 2,12,13
 143 366 143 366 179 334 c 128,-1,14
 215 302 215 302 273.5 302 c 0,15,16
 332 302 332 302 363.5 319.5 c 128,-1,17
 395 337 395 337 405 363 c 1,18,-1
 405 700 l 1,19,-1
 496 700 l 1,20,-1
 496 156 l 2,21,22
 496 0 496 0 362 -15 c 1,0,-1
EndSplineSet
EndChar

StartChar: Z
Encoding: 90 90 59
Width: 550
Flags: HMW
HStem: 0 80 634 80
VStem: 31 487<0 83 83 83>
LayerCount: 2
Fore
SplineSet
518 0 m 1,0,-1
 31 0 l 1,1,-1
 31 83 l 1,2,-1
 397 611 l 1,3,-1
 44 611 l 1,4,-1
 44 700 l 1,5,-1
 512 700 l 1,6,-1
 512 611 l 1,7,-1
 145 85 l 1,8,-1
 518 85 l 1,9,-1
 518 0 l 1,0,-1
EndSplineSet
EndChar

StartChar: bracketleft
Encoding: 91 91 60
Width: 319
Flags: HMW
HStem: -198 68 663 68
VStem: 78 91<-20 723 -20 817>
LayerCount: 2
Fore
SplineSet
239 -114 m 1,0,-1
 78 -114 l 1,1,-1
 78 817 l 1,2,-1
 239 817 l 1,3,-1
 239 733 l 1,4,-1
 169 723 l 1,5,-1
 169 -20 l 1,6,-1
 239 -30 l 1,7,-1
 239 -114 l 1,0,-1
EndSplineSet
EndChar

StartChar: backslash
Encoding: 92 92 61
Width: 537
Flags: HMW
HStem: -17 21G 711 20G
VStem: 46 274 81 456
LayerCount: 2
Fore
SplineSet
497 -114 m 1,0,-1
 400 -114 l 1,1,-1
 75 817 l 1,2,-1
 173 817 l 1,3,-1
 497 -114 l 1,0,-1
EndSplineSet
EndChar

StartChar: bracketright
Encoding: 93 93 62
Width: 319
Flags: HMW
HStem: -198 68 663 68
VStem: 148 91<-20 723 723 723> 191 56
LayerCount: 2
Fore
SplineSet
239 -114 m 1,0,-1
 78 -114 l 1,1,-1
 78 -30 l 1,2,-1
 148 -20 l 1,3,-1
 148 723 l 1,4,-1
 78 733 l 1,5,-1
 78 817 l 1,6,-1
 239 817 l 1,7,-1
 239 -114 l 1,0,-1
EndSplineSet
EndChar

StartChar: asciicircum
Encoding: 94 94 63
Width: 405
Flags: HMW
HStem: 264 433
VStem: 78 290<758 758>
LayerCount: 2
Fore
SplineSet
368 758 m 1,0,-1
 311 719 l 1,1,-1
 225 809 l 1,2,-1
 134 719 l 1,3,-1
 78 758 l 1,4,-1
 226 899 l 1,5,-1
 368 758 l 1,0,-1
EndSplineSet
EndChar

StartChar: underscore
Encoding: 95 95 64
Width: 347
Flags: HMW
HStem: -125 50
VStem: 70 320<-68 0 -68 0>
LayerCount: 2
Fore
SplineSet
390 -68 m 1,0,-1
 70 -68 l 1,1,-1
 70 0 l 1,2,-1
 390 0 l 1,3,-1
 390 -68 l 1,0,-1
EndSplineSet
EndChar

StartChar: quoteleft
Encoding: 8216 8216 65
Width: 129
Flags: HMW
HStem: 456 111 518 111 633 84
VStem: 3 93<585 589 585 594> 9 104
LayerCount: 2
Fore
SplineSet
59 632 m 1,0,-1
 70 629 l 1,1,2
 96 614 96 614 95.5 589.5 c 128,-1,3
 95 565 95 565 81.9821428571 552.464285714 c 128,-1,4
 68.9642857143 539.928571429 68.9642857143 539.928571429 49.9617346939 539.928571429 c 0,5,6
 26.7040816327 539.928571429 26.7040816327 539.928571429 14.8446878752 557.975474973 c 128,-1,7
 2.98529411765 576.022378517 2.98529411765 576.022378517 2.98529411765 595.764489619 c 0,8,9
 2.98529411765 654.867647059 2.98529411765 654.867647059 69 713 c 1,10,-1
 128 684 l 1,11,12
 83.8695652174 658.782608696 83.8695652174 658.782608696 59 632 c 1,0,-1
EndSplineSet
EndChar

StartChar: a
Encoding: 97 97 66
Width: 458
Flags: HMW
HStem: -12 51 445 64<214 246.5>
VStem: 37 294<169 252 252 270 79 288> 128 294<134 176 176 242>
LayerCount: 2
Fore
SplineSet
181.135802469 401.055555556 m 0,0,1
 268.413194444 401.055555556 268.413194444 401.055555556 331 361 c 1,2,3
 331 445 331 445 207 445 c 1,4,-1
 214 509 l 1,5,6
 295 509 295 509 334 489.5 c 0,7,8
 355 479 355 479 371 468 c 128,-1,9
 387 457 387 457 396 439 c 128,-1,10
 405 421 405 421 411 407.5 c 128,-1,11
 417 394 417 394 419 371 c 0,12,13
 422 336.5 422 336.5 422 298 c 2,14,-1
 422 0 l 1,15,16
 317.792170503 -9.83092731104 317.792170503 -9.83092731104 256.334339872 -9.83092731104 c 0,17,18
 37 -9.83092731104 37 -9.83092731104 37 169 c 2,19,-1
 37 252 l 2,20,21
 37 351 37 351 106 385 c 0,22,23
 140 401.055555556 140 401.055555556 181.135802469 401.055555556 c 0,0,1
331 79 m 1,24,-1
 331 270 l 1,25,26
 277.697674419 301.093023256 277.697674419 301.093023256 209.5 309 c 0,27,28
 202.6 309.8 202.6 309.8 186.45 309.8 c 128,-1,29
 170.3 309.8 170.3 309.8 149.15 295.4 c 128,-1,30
 128 281 128 281 128 242 c 2,31,-1
 128 176 l 2,32,33
 128 72.6397515528 128 72.6397515528 258.32379152 72.6397515528 c 0,34,35
 290.652173913 72.6397515528 290.652173913 72.6397515528 331 79 c 1,24,-1
EndSplineSet
EndChar

StartChar: b
Encoding: 98 98 67
Width: 484
Flags: HMW
HStem: 680 20G<78 169 169 169>
VStem: 78 91<79 397 491 700> 357 90<155 157 157 325 325 346>
LayerCount: 2
Fore
SplineSet
169 491 m 1,0,1
 212.764705882 509.6 212.764705882 509.6 262.182352941 509.6 c 128,-1,2
 311.6 509.6 311.6 509.6 362 490 c 1,3,4
 447 451 447 451 447 346 c 2,5,-1
 447 157 l 2,6,7
 447 58 447 58 369 18 c 0,8,9
 310 -12 310 -12 237 -12 c 128,-1,10
 164 -12 164 -12 78 0 c 1,11,-1
 78 700 l 1,12,-1
 169 700 l 1,13,-1
 169 491 l 1,0,1
169 397 m 1,14,-1
 169 79 l 1,15,16
 197 73 197 73 228 73 c 128,-1,17
 259 73 259 73 288.5 79.5 c 128,-1,18
 318 86 318 86 337.5 105.5 c 128,-1,19
 357 125 357 125 357 155 c 2,20,-1
 357 325 l 2,21,22
 357 368 357 368 334.5 391.5 c 0,23,24
 308.170212766 419 308.170212766 419 256.00177305 419 c 128,-1,25
 203.833333333 419 203.833333333 419 169 397 c 1,14,-1
EndSplineSet
EndChar

StartChar: c
Encoding: 99 99 68
Width: 383
Flags: HMW
HStem: -12 51 460 69
VStem: 36 91<180 308 308 314>
LayerCount: 2
Fore
SplineSet
247.18 78.8 m 0,0,1
 292.933333333 78.8 292.933333333 78.8 334 92 c 1,2,-1
 358 6 l 1,3,4
 294 -11.0666666667 294 -11.0666666667 242 -11.0666666667 c 128,-1,5
 190 -11.0666666667 190 -11.0666666667 139.5 5.46666666667 c 0,6,7
 36 39.3518151815 36 39.3518151815 36 180 c 2,8,-1
 36 308 l 2,9,10
 36 379 36 379 64 427 c 0,11,12
 112.239130435 509.695652174 112.239130435 509.695652174 221.506616257 509.695652174 c 0,13,14
 287.913043478 509.695652174 287.913043478 509.695652174 356 478 c 1,15,-1
 331 402 l 1,16,17
 279.083333333 422.416666667 279.083333333 422.416666667 243.770833333 422.416666667 c 128,-1,18
 208.458333333 422.416666667 208.458333333 422.416666667 184.5 412 c 0,19,20
 127 387 127 387 127 314 c 2,21,-1
 127 169 l 2,22,23
 127 78.8 127 78.8 247.18 78.8 c 0,0,1
EndSplineSet
EndChar

StartChar: d
Encoding: 100 100 69
Width: 484
Flags: HMW
HStem: -11 50 0 63 459 50 694 20G
VStem: 78 279<157 346 346 384> 357 90<80 397 397 397 490 700 0 700>
LayerCount: 2
Fore
SplineSet
163 490 m 1,0,1
 212.466666667 509.6 212.466666667 509.6 266.222222222 509.6 c 128,-1,2
 319.977777778 509.6 319.977777778 509.6 357 490 c 1,3,-1
 357 700 l 1,4,-1
 447 700 l 1,5,-1
 447 0 l 1,6,7
 361 -12 361 -12 288 -12 c 128,-1,8
 215 -12 215 -12 156 18 c 0,9,10
 78 58 78 58 78 157 c 2,11,-1
 78 346 l 2,12,13
 78 451 78 451 163 490 c 1,0,1
357 397 m 1,14,15
 312.678181818 420.327272727 312.678181818 420.327272727 271.539090909 420.327272727 c 128,-1,16
 230.4 420.327272727 230.4 420.327272727 199.2 397.163636364 c 128,-1,17
 168 374 168 374 168 319 c 2,18,-1
 168 152 l 2,19,20
 168 101 168 101 224 82 c 0,21,22
 253.555555556 71.9722222222 253.555555556 71.9722222222 287.097222222 71.9722222222 c 128,-1,23
 320.638888889 71.9722222222 320.638888889 71.9722222222 357 80 c 1,24,-1
 357 397 l 1,14,15
EndSplineSet
EndChar

StartChar: e
Encoding: 101 101 70
Width: 434
Flags: HMW
HStem: -12 51 183 240<127 236.5> 268 242<127 274.5>
VStem: 35 268<278 339 339 343 343 373 278 394> 127 268<103 342 144 342 268 268 268 338>
LayerCount: 2
Fore
SplineSet
205.1858 71.81 m 0,0,1
 260.64375 71.81 260.64375 71.81 336 112 c 1,2,-1
 370 35 l 1,3,4
 292.54025974 -12.1038961039 292.54025974 -12.1038961039 208.575324675 -12.1038961039 c 0,5,6
 35 -12.1038961039 35 -12.1038961039 35 134 c 2,7,-1
 35 339 l 2,8,9
 35 420 35 420 85.5 465 c 128,-1,10
 136 510 136 510 219 510 c 128,-1,11
 302 510 302 510 348.5 465.5 c 128,-1,12
 395 421 395 421 395 342 c 2,13,-1
 395 198 l 1,14,-1
 127 183 l 1,15,-1
 127 144 l 2,16,17
 127 104 127 104 150.49 87.905 c 128,-1,18
 173.98 71.81 173.98 71.81 205.1858 71.81 c 0,0,1
303 278 m 1,19,-1
 303 343 l 2,20,21
 303 384 303 384 277 403.5 c 128,-1,22
 251 423 251 423 212.5 423 c 128,-1,23
 174 423 174 423 150.5 399.5 c 128,-1,24
 127 376 127 376 127 338 c 2,25,-1
 127 268 l 1,26,-1
 303 278 l 1,19,-1
EndSplineSet
EndChar

StartChar: f
Encoding: 102 102 71
Width: 314
Flags: HMW
HStem: 0 21G<78 170 78 78> 415 86<170 243 170 267> 625 82<262 277>
VStem: 78 92<0 415 501 549>
LayerCount: 2
Fore
SplineSet
170 0 m 1,0,-1
 78 0 l 1,1,-1
 78 549 l 2,2,3
 78 638.357142857 78 638.357142857 124 674.5 c 0,4,5
 170.565217391 711.086956522 170.565217391 711.086956522 219.728733459 711.086956522 c 0,6,7
 242.942028986 711.086956522 242.942028986 711.086956522 277 707 c 1,8,-1
 262 625 l 1,9,10
 250.244897959 627.612244898 250.244897959 627.612244898 233.551020408 627.612244898 c 128,-1,11
 216.857142857 627.612244898 216.857142857 627.612244898 198 616.5 c 0,12,13
 170 600 170 600 170 549 c 2,14,-1
 170 501 l 1,15,-1
 267 501 l 1,16,-1
 243 415 l 1,17,-1
 170 415 l 1,18,-1
 170 0 l 1,0,-1
EndSplineSet
EndChar

StartChar: g
Encoding: 103 103 72
Width: 448
Flags: HMW
HStem: -210 71<252 274> -12 433<193 250.5> 75 435<189.5 250.5 170 257.5>
VStem: 37 286<211 322 322 325 325 353.5> 323 91<-52 27 27 27 211 322 322 353.5>
LayerCount: 2
Fore
SplineSet
274 -210 m 1,0,-1
 252 -139 l 1,1,2
 323 -130 323 -130 323 -52 c 2,3,-1
 323 27 l 1,4,5
 298 -12 298 -12 216.5 -12 c 0,6,7
 135 -12 135 -12 86 36 c 128,-1,8
 37 84 37 84 37 176 c 2,9,-1
 37 325 l 2,10,11
 37 413 37 413 88.5 461.5 c 128,-1,12
 140 510 140 510 220.5 510 c 0,13,14
 301 510 301 510 325 474 c 1,15,-1
 337 501 l 1,16,-1
 414 501 l 1,17,-1
 414 -64 l 2,18,19
 414 -199 414 -199 274 -210 c 1,0,-1
323 211 m 2,20,-1
 323 322 l 2,21,22
 323 370 323 370 297.5 395.5 c 128,-1,23
 272 421 272 421 225 421 c 0,24,25
 178 421 178 421 153 394 c 128,-1,26
 128 367 128 367 128 320 c 2,27,-1
 128 183 l 2,28,29
 128 133 128 133 151.5 104 c 128,-1,30
 175 75 175 75 223 75 c 0,31,32
 323 75 323 75 323 211 c 2,20,-1
EndSplineSet
EndChar

StartChar: h
Encoding: 104 104 73
Width: 493
Flags: HMW
HStem: 0 21G<64 155 64 64 342 433 342 342> 460 49 694 20G
VStem: 64 91<0 402 0 489 489 700> 342 91<0 320 320 346>
LayerCount: 2
Fore
SplineSet
155 489 m 1,0,1
 191.917257683 509.765957447 191.917257683 509.765957447 247.171394799 509.765957447 c 128,-1,2
 302.425531915 509.765957447 302.425531915 509.765957447 348 491 c 1,3,4
 433 452 433 452 433 346 c 2,5,-1
 433 0 l 1,6,-1
 342 0 l 1,7,-1
 342 320 l 2,8,9
 342 368 342 368 320.5 394 c 128,-1,10
 299 420 299 420 267.5 423.5 c 0,11,12
 255.894736842 424.789473684 255.894736842 424.789473684 244.493074792 424.789473684 c 0,13,14
 191.813765182 424.789473684 191.813765182 424.789473684 155 402 c 1,15,-1
 155 0 l 1,16,-1
 64 0 l 1,17,-1
 64 700 l 1,18,-1
 155 700 l 1,19,-1
 155 489 l 1,0,1
EndSplineSet
EndChar

StartChar: i
Encoding: 105 105 74
Width: 258
Flags: HMW
HStem: 501 21G<81 172 172 172> 610 104
VStem: 81 91<0 501>
LayerCount: 2
Fore
SplineSet
163 625.5 m 128,-1,1
 148 610 148 610 128.5 610 c 128,-1,2
 109 610 109 610 93.5 625.5 c 128,-1,3
 78 641 78 641 78 660.5 c 128,-1,4
 78 680 78 680 93.5 695 c 128,-1,5
 109 710 109 710 128.5 710 c 128,-1,6
 148 710 148 710 163 695 c 128,-1,7
 178 680 178 680 178 660.5 c 128,-1,0
 178 641 178 641 163 625.5 c 128,-1,1
172 0 m 1,8,-1
 81 0 l 1,9,-1
 81 501 l 1,10,-1
 172 501 l 1,11,-1
 172 0 l 1,8,-1
EndSplineSet
EndChar

StartChar: j
Encoding: 106 106 75
Width: 221
Flags: HMW
HStem: -209 70<-2 56.5> 457 52 654 67
VStem: -2 79 71 91<-42 415 415 415>
LayerCount: 2
Fore
SplineSet
71 -42 m 2,0,-1
 71 415 l 1,1,-1
 22 423 l 1,2,-1
 -1 501 l 1,3,-1
 162 501 l 1,4,-1
 162 -75 l 1,5,6
 160 -131 160 -131 118 -170 c 128,-1,7
 76 -209 76 -209 20 -209 c 1,8,-1
 -2 -139 l 1,9,10
 6.83333333333 -139 6.83333333333 -139 21.4166666667 -132 c 128,-1,11
 36 -125 36 -125 45.5 -115.5 c 0,12,13
 71 -90 71 -90 71 -42 c 2,0,-1
118 610 m 128,-1,15
 98 610 98 610 82.5 625.5 c 128,-1,16
 67 641 67 641 67 661 c 128,-1,17
 67 681 67 681 82.5 695.5 c 128,-1,18
 98 710 98 710 118 710 c 128,-1,19
 138 710 138 710 152.5 695.5 c 128,-1,20
 167 681 167 681 167 661 c 128,-1,21
 167 641 167 641 152.5 625.5 c 128,-1,14
 138 610 138 610 118 610 c 128,-1,15
EndSplineSet
EndChar

StartChar: k
Encoding: 107 107 76
Width: 460
Flags: HMW
HStem: 0 21G<65 156 65 65 348 461 348 348> 500 20G<323 323> 694 20G
VStem: 65 91<0 251 366 700>
LayerCount: 2
Fore
SplineSet
461 0 m 1,0,-1
 348 0 l 1,1,-1
 183 276 l 1,2,-1
 156 251 l 1,3,-1
 156 0 l 1,4,-1
 65 0 l 1,5,-1
 65 700 l 1,6,-1
 156 700 l 1,7,-1
 156 366 l 1,8,-1
 323 520 l 1,9,-1
 390 456 l 1,10,-1
 253 339 l 1,11,12
 385 120 385 120 461 0 c 1,0,-1
EndSplineSet
EndChar

StartChar: l
Encoding: 108 108 77
Width: 249
Flags: HMW
HStem: 0 21G<78 169 78 78> 694 20G
VStem: 78 91<0 700>
LayerCount: 2
Fore
SplineSet
169 0 m 1,0,-1
 78 0 l 1,1,-1
 78 700 l 1,2,-1
 169 700 l 1,3,-1
 169 0 l 1,0,-1
EndSplineSet
EndChar

StartChar: m
Encoding: 109 109 78
Width: 739
Flags: HMW
HStem: 0 21G<78 169 78 78 355 446 355 355 611 702 611 611> 454 63 454 75
VStem: 78 83<0 501 501 501> 355 91<0 316 316 352 0 373.5> 611 91<0 318 318 346>
LayerCount: 2
Fore
SplineSet
385 461 m 1,0,1
 469.823529412 509.470588235 469.823529412 509.470588235 545.884083045 509.470588235 c 0,2,3
 617.935828877 509.470588235 617.935828877 509.470588235 659.967914439 463.235294118 c 128,-1,4
 702 417 702 417 702 346 c 2,5,-1
 702 0 l 1,6,-1
 611 0 l 1,7,-1
 611 318 l 2,8,9
 611 424.448275862 611 424.448275862 532.343638526 424.448275862 c 0,10,11
 502.379310345 424.448275862 502.379310345 424.448275862 461 409 c 1,12,-1
 437 399 l 1,13,14
 446 379 446 379 446 352 c 2,15,-1
 446 0 l 1,16,-1
 355 0 l 1,17,-1
 355 316 l 2,18,19
 355 371 355 371 326.75 397.788793103 c 128,-1,20
 298.5 424.577586207 298.5 424.577586207 257.138275862 424.577586207 c 128,-1,21
 215.776551724 424.577586207 215.776551724 424.577586207 169 398 c 1,22,-1
 169 0 l 1,23,-1
 78 0 l 1,24,-1
 78 501 l 1,25,-1
 161 501 l 1,26,-1
 167 485 l 1,27,28
 208.575757576 508.757575758 208.575757576 508.757575758 261.310376492 508.757575758 c 0,29,30
 339.516594517 508.757575758 339.516594517 508.757575758 385 461 c 1,0,1
EndSplineSet
EndChar

StartChar: n
Encoding: 110 110 79
Width: 500
Flags: HMW
HStem: 0 21G<64 154 64 64 342 433 342 342> 472 55
VStem: 64 83<0 501 501 501> 342 91<0 325 325 346>
LayerCount: 2
Fore
SplineSet
154 485 m 1,0,1
 198.4 509 198.4 509 251.342857143 509 c 128,-1,2
 304.285714286 509 304.285714286 509 348 491 c 1,3,4
 433 452 433 452 433 346 c 2,5,-1
 433 0 l 1,6,-1
 342 0 l 1,7,-1
 342 325 l 2,8,9
 342 373 342 373 312.789215686 397.754901961 c 128,-1,10
 283.578431373 422.509803922 283.578431373 422.509803922 240.787433155 422.509803922 c 128,-1,11
 197.996434938 422.509803922 197.996434938 422.509803922 154 400 c 1,12,-1
 154 0 l 1,13,-1
 64 0 l 1,14,-1
 64 501 l 1,15,-1
 147 501 l 1,16,-1
 154 485 l 1,0,1
EndSplineSet
EndChar

StartChar: o
Encoding: 111 111 80
Width: 488
Flags: HMW
HStem: -10 432<241.5 288.5 241.5 332> 78 434<238.5 294>
VStem: 78 283<184 316 316 360.5 174 379> 169 282<141.5 174 174 184 184 316>
LayerCount: 2
Fore
SplineSet
451 316 m 2,0,-1
 451 184 l 2,1,2
 451 100 451 100 405 45 c 128,-1,3
 359 -10 359 -10 266 -10 c 128,-1,4
 173 -10 173 -10 125.5 45.5 c 128,-1,5
 78 101 78 101 78 184 c 2,6,-1
 78 316 l 2,7,8
 78 411 78 411 126.5 461.5 c 128,-1,9
 175 512 175 512 264 512 c 0,10,11
 353 512 353 512 402 459.5 c 128,-1,12
 451 407 451 407 451 316 c 2,0,-1
361 174 m 2,13,-1
 361 316 l 2,14,15
 361 422 361 422 266 422 c 0,16,17
 169 422 169 422 169 316 c 2,18,-1
 169 174 l 2,19,20
 169 127 169 127 196 102.5 c 128,-1,21
 223 78 223 78 266 78 c 128,-1,22
 309 78 309 78 335 103 c 128,-1,23
 361 128 361 128 361 174 c 2,13,-1
EndSplineSet
EndChar

StartChar: p
Encoding: 112 112 81
Width: 492
Flags: HMW
HStem: -198 21G -12 75 454 63
VStem: 78 87<-210 501 501 501> 167 21<479 479> 169 286<-188 176 149.5 176 176 180 180 315 113.5 324>
LayerCount: 2
Fore
SplineSet
169 -188 m 1,0,-1
 78 -210 l 1,1,-1
 78 501 l 1,2,-1
 165 501 l 1,3,-1
 167 479 l 1,4,5
 202 509 202 509 265 509 c 0,6,7
 358 509 358 509 406.5 455 c 128,-1,8
 455 401 455 401 455 315 c 2,9,-1
 455 176 l 2,10,11
 455 85 455 85 404 36.5 c 128,-1,12
 353 -12 353 -12 269 -12 c 0,13,14
 208 -12 208 -12 169 16 c 1,15,-1
 169 -188 l 1,0,-1
364 189 m 2,16,-1
 364 319 l 2,17,18
 364 370 364 370 339 395.5 c 128,-1,19
 314 421 314 421 269 421 c 128,-1,20
 224 421 224 421 197 396 c 128,-1,21
 170 371 170 371 169 324 c 1,22,-1
 169 180 l 2,23,24
 169 77 169 77 269 77 c 0,25,26
 364 77 364 77 364 189 c 2,16,-1
EndSplineSet
EndChar

StartChar: q
Encoding: 113 113 82
Width: 448
Flags: HMW
HStem: -198 21G -12 75 454 63
VStem: 37 287<184 314 314 317> 179 78 324 90<-188 17 17 17 184 317 317 317>
LayerCount: 2
Fore
SplineSet
414 -210 m 1,0,-1
 324 -188 l 1,1,-1
 324 17 l 1,2,3
 289 -12 289 -12 214 -12 c 128,-1,4
 139 -12 139 -12 88 36.5 c 128,-1,5
 37 85 37 85 37 176 c 2,6,-1
 37 314 l 2,7,8
 37 400 37 400 85.5 454.5 c 128,-1,9
 134 509 134 509 227 509 c 0,10,11
 281 509 281 509 325 476 c 1,12,-1
 328 501 l 1,13,-1
 414 501 l 1,14,-1
 414 -210 l 1,0,-1
324 184 m 2,15,-1
 324 317 l 1,16,17
 321.344902386 399.30802603 321.344902386 399.30802603 255 417 c 0,18,19
 240 421 240 421 224 421 c 128,-1,20
 208 421 208 421 194.5 417 c 128,-1,21
 181 413 181 413 164 402.5 c 0,22,23
 127 379.647058824 127 379.647058824 127 308 c 2,24,-1
 127 174 l 2,25,26
 127 127 127 127 152 102 c 128,-1,27
 177 77 177 77 223 77 c 0,28,29
 324 77 324 77 324 184 c 2,15,-1
EndSplineSet
EndChar

StartChar: r
Encoding: 114 114 83
Width: 364
Flags: HMW
HStem: 0 21G<61 152 61 61> 439 90 497 20G
VStem: 61 86<0 501 501 501>
LayerCount: 2
Fore
SplineSet
151 486 m 1,0,1
 195.95 509.2 195.95 509.2 253.96 509.2 c 0,2,3
 272.4 509.2 272.4 509.2 330 498 c 1,4,-1
 308 411 l 1,5,6
 280.965517241 424.24137931 280.965517241 424.24137931 255.224137931 424.24137931 c 128,-1,7
 229.482758621 424.24137931 229.482758621 424.24137931 205.5 415.5 c 0,8,9
 152 396 152 396 152 346 c 2,10,-1
 152 0 l 1,11,-1
 61 0 l 1,12,-1
 61 501 l 1,13,-1
 147 501 l 1,14,-1
 151 486 l 1,0,1
EndSplineSet
EndChar

StartChar: s
Encoding: 115 115 84
Width: 431
Flags: HMW
HStem: 454 75
VStem: 36 90<127 134> 48 97<365 365> 304 27 307 95<116 193.5>
LayerCount: 2
Fore
SplineSet
36 127 m 1,0,-1
 126 134 l 1,1,2
 128 107 128 107 154 88.5 c 128,-1,3
 180 70 180 70 219 70 c 128,-1,4
 258 70 258 70 282.5 88.5 c 128,-1,5
 307 107 307 107 307 137 c 128,-1,6
 307 167 307 167 282 187 c 128,-1,7
 257 207 257 207 220.5 218.5 c 128,-1,8
 184 230 184 230 147 244 c 128,-1,9
 110 258 110 258 81.5 288 c 0,10,11
 47.4736842105 323.817174515 47.4736842105 323.817174515 47.4736842105 374.829639889 c 128,-1,12
 47.4736842105 425.842105263 47.4736842105 425.842105263 87.7368421053 469.421052632 c 128,-1,13
 128 513 128 513 219 513 c 0,14,15
 251 513 251 513 279 505.5 c 128,-1,16
 307 498 307 498 319 491 c 2,17,-1
 331 484 l 1,18,-1
 304 402 l 1,19,20
 276 426 276 426 226 426 c 128,-1,21
 176 426 176 426 160.275 409.8125 c 128,-1,22
 144.55 393.625 144.55 393.625 144.55 372.60875 c 0,23,24
 144.55 345.848214286 144.55 345.848214286 174.275 329.924107143 c 128,-1,25
 204 314 204 314 241 301.5 c 128,-1,26
 278 289 278 289 314.5 272 c 128,-1,27
 351 255 351 255 376.5 220 c 128,-1,28
 402 185 402 185 402 128.5 c 128,-1,29
 402 72 402 72 356.5 28.5 c 128,-1,30
 311 -15 311 -15 223.5 -15 c 128,-1,31
 136 -15 136 -15 87 26 c 128,-1,32
 38 67 38 67 36 127 c 1,0,-1
EndSplineSet
EndChar

StartChar: t
Encoding: 116 116 85
Width: 263
Flags: HMW
HStem: 0 75 442 75
VStem: -122 401 44 85
LayerCount: 2
Fore
SplineSet
207 59 m 1,0,-1
 180 -13 l 1,1,2
 44 -1 44 -1 44 132 c 2,3,-1
 44 700 l 1,4,-1
 136 700 l 1,5,-1
 136 501 l 1,6,-1
 240 501 l 1,7,-1
 216 415 l 1,8,-1
 136 415 l 1,9,-1
 136 132 l 2,10,11
 136 69 136 69 207 59 c 1,0,-1
EndSplineSet
EndChar

StartChar: u
Encoding: 117 117 86
Width: 447
Flags: HMW
HStem: -12 75 0 21G<323 409 323 323> 497 20G
VStem: 36 91<172 180 180 501> 318 91<183 501>
LayerCount: 2
Fore
SplineSet
409 0 m 1,0,-1
 323 0 l 1,1,-1
 320 22 l 1,2,3
 280 -11 280 -11 224 -11 c 0,4,5
 36 -11 36 -11 36 172 c 2,6,-1
 36 501 l 1,7,-1
 127 501 l 1,8,-1
 127 180 l 2,9,10
 127 77 127 77 224 77 c 0,11,12
 318 77 318 77 318 183 c 2,13,-1
 318 501 l 1,14,-1
 409 501 l 1,15,-1
 409 0 l 1,0,-1
EndSplineSet
EndChar

StartChar: v
Encoding: 118 118 87
Width: 443
Flags: HMW
HStem: 0 86 497 20G
VStem: 14 410<501 501> 218 42
LayerCount: 2
Fore
SplineSet
267 0 m 1,0,-1
 172 0 l 1,1,-1
 14 501 l 1,2,-1
 113 501 l 1,3,-1
 220 147 l 1,4,-1
 326 501 l 1,5,-1
 424 501 l 1,6,-1
 267 0 l 1,0,-1
EndSplineSet
EndChar

StartChar: w
Encoding: 119 119 88
Width: 708
Flags: HMW
HStem: 0 94 411 106 497 20G
VStem: 14 675<501 501>
LayerCount: 2
Fore
SplineSet
529 0 m 1,0,-1
 434 0 l 1,1,-1
 352 315 l 1,2,-1
 269 0 l 1,3,-1
 172 0 l 1,4,-1
 14 501 l 1,5,-1
 113 501 l 1,6,-1
 218 147 l 1,7,-1
 311 501 l 1,8,-1
 398 501 l 1,9,-1
 491 147 l 1,10,-1
 591 501 l 1,11,-1
 689 501 l 1,12,-1
 529 0 l 1,0,-1
EndSplineSet
EndChar

StartChar: x
Encoding: 120 120 89
Width: 529
Flags: HMW
HStem: 0 21G<67 179 67 67 379 487 379 379> 272 21G 279 21G 497 20G
VStem: 67 425<501 501>
LayerCount: 2
Fore
SplineSet
487 0 m 1,0,-1
 379 0 l 1,1,-1
 279 160 l 1,2,-1
 179 0 l 1,3,-1
 67 0 l 1,4,-1
 223 249 l 1,5,-1
 67 501 l 1,6,-1
 179 501 l 1,7,-1
 279 338 l 1,8,-1
 382 501 l 1,9,-1
 492 501 l 1,10,-1
 334 250 l 1,11,-1
 487 0 l 1,0,-1
EndSplineSet
EndChar

StartChar: y
Encoding: 121 121 90
Width: 497
Flags: HMW
HStem: -207 75 497 20G
VStem: 37 375<176 366> 240 79
LayerCount: 2
Fore
SplineSet
288 -210 m 1,0,-1
 255 -138 l 1,1,2
 322 -127 322 -127 322 -58 c 2,3,-1
 322 18 l 1,4,5
 290 -12 290 -12 211 -12 c 0,6,7
 132 -12 132 -12 84.5 35.5 c 128,-1,8
 37 83 37 83 37 176 c 2,9,-1
 37 501 l 1,10,-1
 127 501 l 1,11,-1
 127 192 l 2,12,13
 127 129 127 129 150 103 c 128,-1,14
 173 77 173 77 221.5 77 c 0,15,16
 270 77 270 77 296 102.5 c 128,-1,17
 322 128 322 128 322 192 c 2,18,-1
 322 363 l 2,19,20
 322 418 322 418 349.5 459.5 c 128,-1,21
 377 501 377 501 431 510 c 1,22,-1
 463 438 l 1,23,24
 412 424 412 424 412 366 c 2,25,-1
 412 -61 l 2,26,27
 412 -125 412 -125 384 -161.5 c 128,-1,28
 356 -198 356 -198 288 -210 c 1,0,-1
EndSplineSet
EndChar

StartChar: z
Encoding: 122 122 91
Width: 482
Flags: HMW
HStem: 0 75 442 75
VStem: 87 358
LayerCount: 2
Fore
SplineSet
445 0 m 1,0,-1
 78 0 l 1,1,-1
 78 85 l 1,2,-1
 310 416 l 1,3,-1
 87 416 l 1,4,-1
 87 501 l 1,5,-1
 431 501 l 1,6,-1
 431 418 l 1,7,-1
 198 85 l 1,8,-1
 445 85 l 1,9,-1
 445 0 l 1,0,-1
EndSplineSet
EndChar

StartChar: braceleft
Encoding: 123 123 92
Width: 344
Flags: HMW
HStem: -116 77<281 307> 232 68 749 73<280 305>
VStem: 78 105<354 354> 152 91<127 247 247 253> 311 13
LayerCount: 2
Fore
SplineSet
307 -39 m 1,0,-1
 281 -116 l 1,1,2
 229 -97 229 -97 203 -73 c 128,-1,3
 177 -49 177 -49 164.5 -2.5 c 128,-1,4
 152 44 152 44 152 127 c 2,5,-1
 152 247 l 2,6,7
 152 266 152 266 136 290.5 c 128,-1,8
 120 315 120 315 109.5 325 c 128,-1,9
 99 335 99 335 78 354 c 1,10,11
 102 373 102 373 126 404 c 128,-1,12
 150 435 150 435 150 462 c 2,13,-1
 150 567 l 2,14,15
 150 692 150 692 177 746.5 c 128,-1,16
 204 801 204 801 280 822 c 1,17,-1
 305 749 l 1,18,19
 241 732 241 732 241 631 c 2,20,-1
 241 456 l 2,21,22
 241 413 241 413 183 355 c 1,23,24
 243 295 243 295 243 253 c 2,25,-1
 243 79 l 2,26,27
 243 -22 243 -22 307 -39 c 1,0,-1
EndSplineSet
EndChar

StartChar: bar
Encoding: 124 124 93
Width: 249
Flags: HMW
HStem: -214 1000
VStem: 78 91<-114 817>
LayerCount: 2
Fore
SplineSet
169 -114 m 1,0,-1
 78 -114 l 1,1,-1
 78 817 l 1,2,-1
 169 817 l 1,3,-1
 169 -114 l 1,0,-1
EndSplineSet
EndChar

StartChar: braceright
Encoding: 125 125 94
Width: 344
Flags: HMW
HStem: -116 37 -116 77<78 104> 232 68 253 203<142 144> 749 73<80 105> 785 37
VStem: 61 13 103 60 142 91<79 127 127 247> 163 70 202 105<355 355>
LayerCount: 2
Fore
SplineSet
104 -116 m 1,0,-1
 78 -39 l 1,1,2
 142 -22 142 -22 142 79 c 2,3,-1
 142 253 l 2,4,5
 142 295 142 295 202 355 c 1,6,7
 144 413 144 413 144 456 c 2,8,-1
 144 631 l 2,9,10
 144 732 144 732 80 749 c 1,11,-1
 105 822 l 1,12,13
 181 801 181 801 208 746.5 c 128,-1,14
 235 692 235 692 235 567 c 2,15,-1
 235 462 l 2,16,17
 235 435 235 435 259 404 c 128,-1,18
 283 373 283 373 307 354 c 1,19,20
 286 335 286 335 275.5 325 c 128,-1,21
 265 315 265 315 249 290.5 c 128,-1,22
 233 266 233 266 233 247 c 2,23,-1
 233 127 l 2,24,25
 233 44 233 44 220.5 -2.5 c 128,-1,26
 208 -49 208 -49 182 -73 c 128,-1,27
 156 -97 156 -97 104 -116 c 1,0,-1
EndSplineSet
EndChar

StartChar: asciitilde
Encoding: 126 126 95
Width: 531
Flags: HMW
HStem: 183 98 297 81
VStem: 82 401
LayerCount: 2
Fore
SplineSet
371.357777778 341.933333333 m 0,0,1
 424.725 341.933333333 424.725 341.933333333 456 379 c 1,2,-1
 494 320 l 1,3,4
 449.707317073 263.25 449.707317073 263.25 380.25 263.25 c 0,5,6
 351.1875 263.25 351.1875 263.25 261 291 c 0,7,8
 233.470588235 299.470588235 233.470588235 299.470588235 205.692041522 299.470588235 c 0,9,10
 148.68627451 299.470588235 148.68627451 299.470588235 114 260 c 1,11,-1
 78 319 l 1,12,13
 123.779892921 375.87804878 123.779892921 375.87804878 195.499702558 375.87804878 c 0,14,15
 221.574279379 375.87804878 221.574279379 375.87804878 282.520473023 358.905691057 c 128,-1,16
 343.466666667 341.933333333 343.466666667 341.933333333 371.357777778 341.933333333 c 0,0,1
EndSplineSet
EndChar

StartChar: exclamdown
Encoding: 161 161 96
Width: 257
Flags: HMW
HStem: -198 21G 0 127 406 111
VStem: 93 67 103 47
LayerCount: 2
Fore
SplineSet
78 58 m 1,0,-1
 94 590 l 1,1,-1
 160 590 l 1,2,-1
 177 57 l 1,3,4
 177 0 177 0 126 0 c 0,5,6
 78 0 78 0 78 58 c 1,0,-1
159 634 m 128,-1,8
 146 621 146 621 127.5 621 c 128,-1,9
 109 621 109 621 96 634 c 128,-1,10
 83 647 83 647 83 665.5 c 128,-1,11
 83 684 83 684 96 697 c 128,-1,12
 109 710 109 710 127.5 710 c 128,-1,13
 146 710 146 710 159 697 c 128,-1,14
 172 684 172 684 172 665.5 c 128,-1,7
 172 647 172 647 159 634 c 128,-1,8
EndSplineSet
EndChar

StartChar: cent
Encoding: 162 162 97
Width: 437
Flags: HMW
HStem: -12 75 454 75
VStem: 78 148<180 308 308 368> 88 90 226 90<-114 -8 87 412 412 412 507 623> 314 39
LayerCount: 2
Fore
SplineSet
316 -114 m 1,0,-1
 226 -114 l 1,1,-1
 226 -6 l 1,2,3
 211 -4 211 -4 190 2 c 1,4,5
 131 22 131 22 104.5 63.5 c 128,-1,6
 78 105 78 105 78 180 c 2,7,-1
 78 308 l 2,8,9
 78 395 78 395 118.5 445.5 c 128,-1,10
 159 496 159 496 226 507 c 1,11,-1
 226 623 l 1,12,-1
 316 623 l 1,13,-1
 316 504 l 1,14,15
 354 497 354 497 398 478 c 1,16,-1
 373 402 l 1,17,18
 345 413 345 413 316 418 c 1,19,-1
 316 80 l 1,20,21
 344 83 344 83 376 92 c 1,22,-1
 400 6 l 1,23,24
 355 -5 355 -5 316 -8 c 1,25,-1
 316 -114 l 1,0,-1
226 87 m 1,26,-1
 226 412 l 1,27,28
 169 387 169 387 169 314 c 2,29,-1
 169 169 l 2,30,31
 169 108 169 108 226 87 c 1,26,-1
EndSplineSet
EndChar

StartChar: fraction
Encoding: 8260 8260 98
Width: 532
Flags: HMW
HStem: 705 20G
VStem: 20 499
LayerCount: 2
Fore
SplineSet
176 -114 m 1,0,-1
 78 -114 l 1,1,-1
 402 817 l 1,2,-1
 495 817 l 1,3,-1
 176 -114 l 1,0,-1
EndSplineSet
EndChar

StartChar: yen
Encoding: 165 165 99
Width: 587
Flags: HMW
HStem: 0 21G<268 360 268 268> 174 60 270 80 309 60 694 20G
VStem: 131 79 156 320<221 309 221 309 357 445 221 445> 262 95
LayerCount: 2
Fore
SplineSet
360 0 m 1,0,-1
 268 0 l 1,1,-1
 268 221 l 1,2,-1
 156 221 l 1,3,-1
 156 309 l 1,4,-1
 268 309 l 1,5,-1
 268 324 l 1,6,-1
 251 357 l 1,7,-1
 156 357 l 1,8,-1
 156 445 l 1,9,-1
 207 445 l 1,10,-1
 78 700 l 1,11,-1
 175 700 l 1,12,-1
 302 445 l 1,13,-1
 323 445 l 1,14,-1
 452 700 l 1,15,-1
 550 700 l 1,16,-1
 421 445 l 1,17,-1
 476 445 l 1,18,-1
 476 357 l 1,19,-1
 376 357 l 1,20,-1
 360 324 l 1,21,-1
 360 309 l 1,22,-1
 476 309 l 1,23,-1
 476 221 l 1,24,-1
 360 221 l 1,25,-1
 360 0 l 1,0,-1
EndSplineSet
EndChar

StartChar: section
Encoding: 167 167 100
Width: 591
Flags: HMW
HStem: -198 75 656 75
VStem: 76 82 124 85 137 88 421 85 424 88 475 82
LayerCount: 2
Fore
SplineSet
161 195.5 m 128,-1,1
 129 218 129 218 110.904761905 255.619047619 c 128,-1,2
 92.8095238095 293.238095238 92.8095238095 293.238095238 92.8095238095 347.125 c 128,-1,3
 92.8095238095 401.011904762 92.8095238095 401.011904762 128 445 c 1,4,5
 96 485 96 485 96 540 c 0,6,7
 96 610 96 610 154 661 c 128,-1,8
 212 712 212 712 321 712 c 0,9,10
 404 712 404 712 467 682 c 1,11,-1
 462 668.5 l 2,12,13
 453.666666667 646 453.666666667 646 437 596 c 1,14,15
 380 625 380 625 323 625 c 0,16,17
 190 625 190 625 190 537 c 0,18,19
 190 502 190 502 226 478 c 128,-1,20
 262 454 262 454 313.5 437.5 c 128,-1,21
 365 421 365 421 417.5 399 c 128,-1,22
 470 377 470 377 509.5 332 c 0,23,24
 553.757575758 281.579976985 553.757575758 281.579976985 553.757575758 198.497704316 c 0,25,26
 553.757575758 136.96969697 553.757575758 136.96969697 530 92 c 1,27,28
 553 57 553 57 553 6 c 0,29,30
 553 -86 553 -86 494.5 -141.5 c 128,-1,31
 436 -197 436 -197 320.5 -197 c 128,-1,32
 205 -197 205 -197 142.5 -139.5 c 128,-1,33
 80 -82 80 -82 78 -8 c 1,34,-1
 172 -8 l 1,35,36
 174 -47 174 -47 211 -80 c 128,-1,37
 248 -113 248 -113 309.5 -113 c 128,-1,38
 371 -113 371 -113 415 -88 c 128,-1,39
 459 -63 459 -63 459 -4 c 0,40,41
 459 62.3636363636 459 62.3636363636 385 96 c 0,42,43
 352 111 352 111 312 125 c 128,-1,44
 272 139 272 139 232.5 156 c 128,-1,0
 193 173 193 173 161 195.5 c 128,-1,1
455 160 m 1,45,46
 462 186 462 186 462 209 c 0,47,48
 462 250 462 250 428.5 282 c 128,-1,49
 395 314 395 314 354.5 329.5 c 128,-1,50
 314 345 314 345 265.5 362.5 c 128,-1,51
 217 380 217 380 200 392 c 1,52,53
 186 370 186 370 186 332.5 c 128,-1,54
 186 295 186 295 216 267.5 c 128,-1,55
 246 240 246 240 284 228 c 0,56,57
 413.748663102 187.026737968 413.748663102 187.026737968 455 160 c 1,45,46
EndSplineSet
EndChar

StartChar: currency
Encoding: 164 164 101
Width: 491
Flags: HMW
HStem: 101 75 524 75
VStem: 18 85 433 85
LayerCount: 2
Fore
SplineSet
391 134 m 1,0,-1
 354 172 l 1,1,2
 315 148 315 148 265 148 c 0,3,4
 215 148 215 148 179 172 c 1,5,-1
 144 133 l 1,6,-1
 84 195 l 1,7,-1
 118 228 l 1,8,9
 92 264 92 264 92 317 c 0,10,11
 92 370 92 370 116 411 c 1,12,-1
 79 447 l 1,13,-1
 145 509 l 1,14,-1
 177 474 l 1,15,16
 214 499 214 499 269 499 c 0,17,18
 324 499 324 499 354 474 c 1,19,-1
 390 510 l 1,20,-1
 453 447 l 1,21,-1
 417 415 l 1,22,23
 443 363 443 363 443 324 c 0,24,25
 443 285 443 285 416 229 c 1,26,-1
 450 196 l 1,27,-1
 391 134 l 1,0,-1
357 323 m 128,-1,29
 357 360 357 360 330.5 387 c 128,-1,30
 304 414 304 414 266.5 414 c 0,31,32
 229 414 229 414 202 387.5 c 128,-1,33
 175 361 175 361 175 323.5 c 0,34,35
 175 286 175 286 202 260 c 128,-1,36
 229 234 229 234 266.5 234 c 0,37,38
 304 234 304 234 330.5 260 c 128,-1,28
 357 286 357 286 357 323 c 128,-1,29
EndSplineSet
EndChar

StartChar: quotesingle
Encoding: 39 39 102
Width: 173
Flags: HMW
HStem: 456 258 694 20G
VStem: 46 82<697 722.5>
LayerCount: 2
Fore
SplineSet
114 589 m 1,0,-1
 60 589 l 1,1,-1
 46 697 l 1,2,3
 46 721 46 721 66.5 731.5 c 0,4,5
 77 736.87804878 77 736.87804878 87.5 736.87804878 c 1,6,-1
 107.5 732 l 1,7,8
 128 722 128 722 128 697 c 1,9,-1
 114 589 l 1,0,-1
EndSplineSet
EndChar

StartChar: quotedblleft
Encoding: 8220 8220 103
Width: 279
Flags: HMW
HStem: 456 111 522 111 664 50
VStem: 42 69 55 95 99 94 192 69
LayerCount: 2
Fore
SplineSet
59 632 m 1,0,-1
 70 629 l 1,1,2
 96 614 96 614 95.5 589.5 c 128,-1,3
 95 565 95 565 81.9821428571 552.464285714 c 128,-1,4
 68.9642857143 539.928571429 68.9642857143 539.928571429 49.9617346939 539.928571429 c 0,5,6
 26.7040816327 539.928571429 26.7040816327 539.928571429 14.8446878752 557.975474973 c 128,-1,7
 2.98529411765 576.022378517 2.98529411765 576.022378517 2.98529411765 595.764489619 c 0,8,9
 2.98529411765 654.867647059 2.98529411765 654.867647059 69 713 c 1,10,-1
 128 684 l 1,11,12
 83.8695652174 658.782608696 83.8695652174 658.782608696 59 632 c 1,0,-1
188 632 m 1,13,-1
 199 629 l 1,14,15
 225 614 225 614 224.5 589.5 c 128,-1,16
 224 565 224 565 210.982142857 552.464285714 c 128,-1,17
 197.964285714 539.928571429 197.964285714 539.928571429 178.961734694 539.928571429 c 0,18,19
 155.704081633 539.928571429 155.704081633 539.928571429 143.844687875 557.975474973 c 128,-1,20
 131.985294118 576.022378517 131.985294118 576.022378517 131.985294118 595.764489619 c 0,21,22
 131.985294118 654.867647059 131.985294118 654.867647059 198 713 c 1,23,-1
 257 684 l 1,24,25
 212.869565217 658.782608696 212.869565217 658.782608696 188 632 c 1,13,-1
EndSplineSet
EndChar

StartChar: guillemotleft
Encoding: 171 171 104
Width: 511
Flags: HMW
HStem: 278 21G
VStem: 50 152 246 152
LayerCount: 2
Fore
SplineSet
288 136 m 1,0,-1
 229 80 l 1,1,-1
 42 267 l 1,2,-1
 42 268 l 1,3,-1
 229 455 l 1,4,-1
 289 395 l 1,5,-1
 159 267 l 1,6,-1
 288 136 l 1,0,-1
508 136 m 1,7,-1
 449 80 l 1,8,-1
 262 267 l 1,9,-1
 262 268 l 1,10,-1
 449 455 l 1,11,-1
 509 395 l 1,12,-1
 379 267 l 1,13,-1
 508 136 l 1,7,-1
EndSplineSet
EndChar

StartChar: guilsinglleft
Encoding: 8249 8249 105
Width: 291
Flags: HMW
HStem: 278 21G
VStem: 50 152
LayerCount: 2
Fore
SplineSet
288 136 m 1,0,-1
 229 80 l 1,1,-1
 42 267 l 1,2,-1
 42 268 l 1,3,-1
 229 455 l 1,4,-1
 289 395 l 1,5,-1
 159 267 l 1,6,-1
 288 136 l 1,0,-1
EndSplineSet
EndChar

StartChar: guilsinglright
Encoding: 8250 8250 106
Width: 297
Flags: HMW
HStem: 278 21G
VStem: 16 152 88 152
LayerCount: 2
Fore
SplineSet
61 80 m 1,0,-1
 2 136 l 1,1,-1
 131 267 l 1,2,-1
 1 395 l 1,3,-1
 61 455 l 1,4,-1
 248 268 l 1,5,-1
 248 267 l 1,6,-1
 61 80 l 1,0,-1
EndSplineSet
EndChar

StartChar: paragraph
Encoding: 182 182 107
Width: 703
Flags: HMW
HStem: 659 55
VStem: 319 68 512 68<-198 658 -199 659 -198 -198>
LayerCount: 2
Fore
SplineSet
667 -199 m 1,0,-1
 580 -199 l 1,1,-1
 580 658 l 1,2,-1
 512 659 l 1,3,-1
 512 -198 l 1,4,-1
 424 -199 l 1,5,-1
 424 246 l 1,6,-1
 255 246 l 2,7,8
 188.333333333 246 188.333333333 246 153 272.5 c 0,9,10
 135 286 135 286 121.5 300.5 c 128,-1,11
 108 315 108 315 100.5 339 c 128,-1,12
 93 363 93 363 88 381 c 128,-1,13
 83 399 83 399 81 429 c 0,14,15
 78 474 78 474 78 524 c 0,16,17
 78 624 78 624 124 687 c 128,-1,18
 170 750 170 750 264 750 c 2,19,-1
 667 750 l 1,20,-1
 667 -199 l 1,0,-1
EndSplineSet
EndChar

StartChar: bullet
Encoding: 8226 8226 108
Width: 472
Flags: HMW
HStem: 178 357
VStem: 78 357<287.5 386.5>
LayerCount: 2
Fore
SplineSet
256 158 m 128,-1,1
 182 158 182 158 130 210.5 c 128,-1,2
 78 263 78 263 78 337 c 128,-1,3
 78 411 78 411 130 463 c 128,-1,4
 182 515 182 515 256 515 c 128,-1,5
 330 515 330 515 382.5 463 c 128,-1,6
 435 411 435 411 435 337 c 128,-1,7
 435 263 435 263 382.5 210.5 c 128,-1,0
 330 158 330 158 256 158 c 128,-1,1
EndSplineSet
EndChar

StartChar: quotesinglbase
Encoding: 8218 8218 109
Width: 171
Flags: HMW
HStem: -147 50 0 111
VStem: 47 69
LayerCount: 2
Fore
SplineSet
63 -84 m 1,0,-1
 4 -55 l 1,1,2
 48.1304347826 -29.7826086957 48.1304347826 -29.7826086957 73 -3 c 1,3,-1
 62 0 l 1,4,5
 36 15 36 15 36.5 39.5 c 128,-1,6
 37 64 37 64 50.0178571429 76.5357142857 c 128,-1,7
 63.0357142857 89.0714285714 63.0357142857 89.0714285714 82.0382653061 89.0714285714 c 0,8,9
 105.295918367 89.0714285714 105.295918367 89.0714285714 117.155312125 71.0245250274 c 128,-1,10
 129.014705882 52.9776214834 129.014705882 52.9776214834 129.014705882 33.2355103806 c 0,11,12
 129.014705882 -25.8676470588 129.014705882 -25.8676470588 63 -84 c 1,0,-1
EndSplineSet
EndChar

StartChar: quotedblbase
Encoding: 8222 8222 110
Width: 322
Flags: HMW
HStem: -147 50 0 111 1 111
VStem: 17 69 89 93 131 95 167 69
LayerCount: 2
Fore
SplineSet
115 1 m 1,0,1
 89 16 89 16 89.5 40.5 c 128,-1,2
 90 65 90 65 103.017857143 77.5357142857 c 128,-1,3
 116.035714286 90.0714285714 116.035714286 90.0714285714 130.958333333 90.0714285714 c 128,-1,4
 145.880952381 90.0714285714 145.880952381 90.0714285714 156 84 c 1,5,6
 166 90 166 90 184.5 89.5 c 128,-1,7
 203 89 203 89 214.5 71.5 c 128,-1,8
 226.014705882 53.9776214834 226.014705882 53.9776214834 226.014705882 34.2355103806 c 0,9,10
 226.014705882 -24.8676470588 226.014705882 -24.8676470588 160 -83 c 1,11,-1
 131 -69 l 1,12,13
 126 -73 126 -73 116 -83 c 1,14,-1
 57 -54 l 1,15,16
 101.130434783 -28.7826086957 101.130434783 -28.7826086957 126 -2 c 1,17,-1
 115 1 l 1,0,1
EndSplineSet
EndChar

StartChar: quotedblright
Encoding: 8221 8221 111
Width: 279
Flags: HMW
HStem: 456 50 603 111 621 111
VStem: 41 104 86 94 128 96 226 69
LayerCount: 2
Fore
SplineSet
190 539 m 1,0,-1
 131 568 l 1,1,2
 175.130434783 593.217391304 175.130434783 593.217391304 200 620 c 1,3,-1
 189 623 l 1,4,5
 163 638 163 638 163.5 662.5 c 128,-1,6
 164 687 164 687 177.017857143 699.535714286 c 128,-1,7
 190.035714286 712.071428571 190.035714286 712.071428571 209.038265306 712.071428571 c 0,8,9
 232.295918367 712.071428571 232.295918367 712.071428571 244.155312125 694.024525027 c 128,-1,10
 256.014705882 675.977621483 256.014705882 675.977621483 256.014705882 656.235510381 c 0,11,12
 256.014705882 597.132352941 256.014705882 597.132352941 190 539 c 1,0,-1
61 539 m 1,13,-1
 2 568 l 1,14,15
 46.1304347826 593.217391304 46.1304347826 593.217391304 71 620 c 1,16,-1
 60 623 l 1,17,18
 34 638 34 638 34.5 662.5 c 128,-1,19
 35 687 35 687 48.0178571429 699.535714286 c 128,-1,20
 61.0357142857 712.071428571 61.0357142857 712.071428571 80.0382653061 712.071428571 c 0,21,22
 103.295918367 712.071428571 103.295918367 712.071428571 115.155312125 694.024525027 c 128,-1,23
 127.014705882 675.977621483 127.014705882 675.977621483 127.014705882 656.235510381 c 0,24,25
 127.014705882 597.132352941 127.014705882 597.132352941 61 539 c 1,13,-1
EndSplineSet
EndChar

StartChar: guillemotright
Encoding: 187 187 112
Width: 517
Flags: HMW
HStem: 278 21G
VStem: 7 152 203 152
LayerCount: 2
Fore
SplineSet
281 80 m 1,0,-1
 222 136 l 1,1,-1
 352 267 l 1,2,-1
 221 395 l 1,3,-1
 281 455 l 1,4,-1
 468 268 l 1,5,-1
 468 267 l 1,6,-1
 281 80 l 1,0,-1
61 80 m 1,7,-1
 2 136 l 1,8,-1
 132 267 l 1,9,-1
 1 395 l 1,10,-1
 61 455 l 1,11,-1
 248 268 l 1,12,-1
 248 267 l 1,13,-1
 61 80 l 1,7,-1
EndSplineSet
EndChar

StartChar: ellipsis
Encoding: 8230 8230 113
Width: 495
Flags: HMW
HStem: 0 111
VStem: 4 89<32 56.5> 14 66 184 89<32 56.5> 194 66 364 89<32 56.5> 374 66
LayerCount: 2
Fore
SplineSet
49 0 m 128,-1,1
 31 0 31 0 17.5 13 c 128,-1,2
 4 26 4 26 4 44.5 c 0,3,4
 4 63 4 63 17.5 76 c 128,-1,5
 31 89 31 89 49 89 c 128,-1,6
 67 89 67 89 80 76 c 128,-1,7
 93 63 93 63 93 44.5 c 0,8,9
 93 26 93 26 80 13 c 128,-1,0
 67 0 67 0 49 0 c 128,-1,1
229 0 m 128,-1,11
 211 0 211 0 197.5 13 c 128,-1,12
 184 26 184 26 184 44.5 c 0,13,14
 184 63 184 63 197.5 76 c 128,-1,15
 211 89 211 89 229 89 c 128,-1,16
 247 89 247 89 260 76 c 128,-1,17
 273 63 273 63 273 44.5 c 0,18,19
 273 26 273 26 260 13 c 128,-1,10
 247 0 247 0 229 0 c 128,-1,11
409 0 m 128,-1,21
 391 0 391 0 377.5 13 c 128,-1,22
 364 26 364 26 364 44.5 c 0,23,24
 364 63 364 63 377.5 76 c 128,-1,25
 391 89 391 89 409 89 c 128,-1,26
 427 89 427 89 440 76 c 128,-1,27
 453 63 453 63 453 44.5 c 0,28,29
 453 26 453 26 440 13 c 128,-1,20
 427 0 427 0 409 0 c 128,-1,21
EndSplineSet
EndChar

StartChar: perthousand
Encoding: 8240 8240 114
Width: 1049
Flags: HMW
HStem: -11 198<851 885 851 908> 78 55 133 55 133 553 274 55 368 55 527 56 583 56 654 55 702 20G 711 20G
VStem: 112 56 176 55 231 56 356 50 429 50 487 55 542 55 667 50
LayerCount: 2
Fore
SplineSet
868 -11 m 128,-1,1
 808 -11 808 -11 766 31 c 128,-1,2
 724 73 724 73 724 133 c 128,-1,3
 724 193 724 193 766 235 c 128,-1,4
 808 277 808 277 868 277 c 128,-1,5
 928 277 928 277 970 235 c 128,-1,6
 1012 193 1012 193 1012 133 c 128,-1,7
 1012 73 1012 73 970 31 c 128,-1,0
 928 -11 928 -11 868 -11 c 128,-1,1
922 133 m 128,-1,9
 922 155 922 155 907 171 c 128,-1,10
 892 187 892 187 868 187 c 128,-1,11
 844 187 844 187 829 171 c 128,-1,12
 814 155 814 155 814 133 c 128,-1,13
 814 111 814 111 829 95 c 128,-1,14
 844 79 844 79 868 79 c 128,-1,15
 892 79 892 79 907 95 c 128,-1,8
 922 111 922 111 922 133 c 128,-1,9
144 0 m 1,16,-1
 78 59 l 1,17,-1
 622 743 l 1,18,-1
 693 686 l 1,19,-1
 144 0 l 1,16,-1
542 -11 m 128,-1,21
 482 -11 482 -11 440 31 c 128,-1,22
 398 73 398 73 398 133 c 128,-1,23
 398 193 398 193 440 235 c 128,-1,24
 482 277 482 277 542 277 c 128,-1,25
 602 277 602 277 644 235 c 128,-1,26
 686 193 686 193 686 133 c 128,-1,27
 686 73 686 73 644 31 c 128,-1,20
 602 -11 602 -11 542 -11 c 128,-1,21
597 133 m 128,-1,29
 597 155 597 155 582 171.5 c 128,-1,30
 567 188 567 188 542 188 c 128,-1,31
 517 188 517 188 502 171.5 c 128,-1,32
 487 155 487 155 487 133 c 128,-1,33
 487 111 487 111 502 94.5 c 128,-1,34
 517 78 517 78 542 78 c 128,-1,35
 567 78 567 78 582 94.5 c 128,-1,28
 597 111 597 111 597 133 c 128,-1,29
231 439 m 128,-1,37
 171 439 171 439 129 481 c 128,-1,38
 87 523 87 523 87 583 c 128,-1,39
 87 643 87 643 129 685 c 128,-1,40
 171 727 171 727 231 727 c 128,-1,41
 291 727 291 727 333 685 c 128,-1,42
 375 643 375 643 375 583 c 128,-1,43
 375 523 375 523 333 481 c 128,-1,36
 291 439 291 439 231 439 c 128,-1,37
287 583 m 128,-1,45
 287 605 287 605 271.5 622 c 128,-1,46
 256 639 256 639 231.5 639 c 0,47,48
 207 639 207 639 191.5 622 c 128,-1,49
 176 605 176 605 176 583 c 128,-1,50
 176 561 176 561 191.5 544 c 128,-1,51
 207 527 207 527 231.5 527 c 0,52,53
 256 527 256 527 271.5 544 c 128,-1,44
 287 561 287 561 287 583 c 128,-1,45
EndSplineSet
EndChar

StartChar: questiondown
Encoding: 191 191 115
Width: 480
Flags: HMW
HStem: -210 75 406 111
VStem: -11 90 147 111 162 85 319 85
LayerCount: 2
Fore
SplineSet
350 177 m 1,0,-1
 443 177 l 1,1,2
 443 102 443 102 396.5 51 c 128,-1,3
 350 0 350 0 265 0 c 0,4,5
 224 0 224 0 186.5 17 c 0,6,7
 115.624918318 49.130037029 115.624918318 49.130037029 87 129.5 c 0,8,9
 78.3333333333 153.833333333 78.3333333333 153.833333333 78.3333333333 173.916666667 c 0,10,11
 78.3333333333 237.481481481 78.3333333333 237.481481481 114 289 c 0,12,13
 132 315 132 315 158.5 343 c 128,-1,14
 185 371 185 371 197.5 386.5 c 0,15,16
 230.182291667 427.026041667 230.182291667 427.026041667 232 527 c 1,17,-1
 232 590 l 1,18,-1
 321 590 l 1,19,-1
 321 497 l 2,20,21
 321 451 321 451 307 412 c 128,-1,22
 293 373 293 373 276 351 c 128,-1,23
 259 329 259 329 233.5 299.5 c 128,-1,24
 208 270 208 270 189.947761194 241.589552239 c 128,-1,25
 171.895522388 213.179104478 171.895522388 213.179104478 171.895522388 180.102695478 c 0,26,27
 171.895522388 137.696119403 171.895522388 137.696119403 199.447761194 112.348059701 c 128,-1,28
 227 87 227 87 264 87 c 128,-1,29
 301 87 301 87 325.5 111 c 128,-1,30
 350 135 350 135 350 177 c 1,0,-1
309 633 m 128,-1,32
 296 620 296 620 277.5 620 c 128,-1,33
 259 620 259 620 246 633 c 128,-1,34
 233 646 233 646 233 664.5 c 128,-1,35
 233 683 233 683 246 696 c 128,-1,36
 259 709 259 709 277.5 709 c 128,-1,37
 296 709 296 709 309 696 c 128,-1,38
 322 683 322 683 322 664.5 c 128,-1,31
 322 646 322 646 309 633 c 128,-1,32
EndSplineSet
EndChar

StartChar: grave
Encoding: 96 96 116
Width: 222
Flags: HMW
HStem: 588 143 730 143
VStem: 62 119 277 109
LayerCount: 2
Fore
SplineSet
177 590 m 1,0,-1
 114 590 l 1,1,-1
 58 663 l 2,2,3
 46.4615384615 679.153846154 46.4615384615 679.153846154 46.4615384615 688.5 c 0,4,5
 46.4615384615 717.538461538 46.4615384615 717.538461538 70 728 c 0,6,7
 76.72 730.88 76.72 730.88 84.8 730.88 c 0,8,9
 117.048 730.88 117.048 730.88 129 701 c 2,10,-1
 177 590 l 1,0,-1
EndSplineSet
EndChar

StartChar: acute
Encoding: 180 180 117
Width: 222
Flags: HMW
HStem: 588 143
VStem: 50 109
LayerCount: 2
Fore
SplineSet
109 588 m 1,0,-1
 46 588 l 1,1,-1
 94 699 l 2,2,3
 105.952 728.88 105.952 728.88 138.5232 728.88 c 0,4,5
 146.28 728.88 146.28 728.88 153 726 c 0,6,7
 176.538461538 715.538461538 176.538461538 715.538461538 176.538461538 696.346153846 c 128,-1,8
 176.538461538 677.153846154 176.538461538 677.153846154 165 661 c 2,9,-1
 109 588 l 1,0,-1
EndSplineSet
EndChar

StartChar: circumflex
Encoding: 710 710 118
Width: 381
Flags: HMW
HStem: 588 142 683 47
VStem: 54 251
LayerCount: 2
Fore
SplineSet
336 629 m 1,0,-1
 279 590 l 1,1,-1
 193 680 l 1,2,-1
 102 590 l 1,3,-1
 46 629 l 1,4,-1
 194 770 l 1,5,-1
 336 629 l 1,0,-1
EndSplineSet
EndChar

StartChar: tilde
Encoding: 732 732 119
Width: 460
Flags: HMW
HStem: 620 36 641 56<387 423>
VStem: 78 345<641 650>
LayerCount: 2
Fore
SplineSet
316.768470343 662.419354839 m 0,0,1
 355.765868887 662.419354839 355.765868887 662.419354839 387 697 c 1,2,-1
 423 641 l 1,3,4
 378.071428571 588.142857143 378.071428571 588.142857143 326.775510204 588.142857143 c 0,5,6
 308.571428571 588.142857143 308.571428571 588.142857143 285.785714286 597.571428571 c 128,-1,7
 263 607 263 607 237.96969697 618.621212121 c 128,-1,8
 212.939393939 630.242424242 212.939393939 630.242424242 188.085399449 630.242424242 c 0,9,10
 145.977272727 630.242424242 145.977272727 630.242424242 112 594 c 1,11,-1
 78 650 l 1,12,13
 125.382478632 702.797619048 125.382478632 702.797619048 178.43877551 702.797619048 c 0,14,15
 196.119047619 702.797619048 196.119047619 702.797619048 218.55952381 693.898809524 c 128,-1,16
 241 685 241 685 266.741935484 673.709677419 c 128,-1,17
 292.483870968 662.419354839 292.483870968 662.419354839 316.768470343 662.419354839 c 0,0,1
EndSplineSet
EndChar

StartChar: macron
Encoding: 175 175 120
Width: 336
Flags: HMW
HStem: 619 79<78 299 78 299>
VStem: 18 341
LayerCount: 2
Fore
SplineSet
299 619 m 1,0,-1
 78 619 l 1,1,-1
 78 698 l 1,2,-1
 299 698 l 1,3,-1
 299 619 l 1,0,-1
EndSplineSet
EndChar

StartChar: breve
Encoding: 728 728 121
Width: 317
Flags: HMW
HStem: 582 66<147 171.5 147 190> 711 20G
VStem: 46 226<695 700 664 700>
LayerCount: 2
Fore
SplineSet
272 700 m 1,0,-1
 272 695 l 2,1,2
 272 648 272 648 239 615 c 128,-1,3
 206 582 206 582 159 582 c 128,-1,4
 112 582 112 582 79 615 c 128,-1,5
 46 648 46 648 46 695 c 2,6,-1
 46 700 l 1,7,-1
 116 700 l 1,8,-1
 116 695 l 2,9,10
 116 673 116 673 128 660.5 c 128,-1,11
 140 648 140 648 159 648 c 128,-1,12
 178 648 178 648 190.5 661 c 128,-1,13
 203 674 203 674 203 695 c 2,14,-1
 203 700 l 1,15,-1
 272 700 l 1,0,-1
EndSplineSet
EndChar

StartChar: dotaccent
Encoding: 729 729 122
Width: 100
Flags: HMW
HStem: 592 104
VStem: -6 100
LayerCount: 2
Fore
SplineSet
85 658.5 m 128,-1,1
 70 643 70 643 50.5 643 c 128,-1,2
 31 643 31 643 15.5 658.5 c 128,-1,3
 0 674 0 674 0 693.5 c 128,-1,4
 0 713 0 713 15.5 728 c 128,-1,5
 31 743 31 743 50.5 743 c 128,-1,6
 70 743 70 743 85 728.5 c 128,-1,7
 100 714 100 714 100 694 c 128,-1,0
 100 674 100 674 85 658.5 c 128,-1,1
EndSplineSet
EndChar

StartChar: ring
Encoding: 730 730 123
Width: 222
Flags: HMW
HStem: 619 43
VStem: 68 43 111 43
LayerCount: 2
Fore
SplineSet
154 662 m 128,-1,1
 154 680 154 680 141.5 692.5 c 128,-1,2
 129 705 129 705 111 705 c 128,-1,3
 93 705 93 705 80.5 692.5 c 128,-1,4
 68 680 68 680 68 662 c 128,-1,5
 68 644 68 644 80.5 631.5 c 128,-1,6
 93 619 93 619 111 619 c 128,-1,7
 129 619 129 619 141.5 631.5 c 128,-1,0
 154 644 154 644 154 662 c 128,-1,1
111 553 m 128,-1,9
 66 553 66 553 34 585 c 128,-1,10
 2 617 2 617 2 662 c 128,-1,11
 2 707 2 707 34 739 c 128,-1,12
 66 771 66 771 111 771 c 128,-1,13
 156 771 156 771 188 739 c 128,-1,14
 220 707 220 707 220 662 c 128,-1,15
 220 617 220 617 188 585 c 128,-1,8
 156 553 156 553 111 553 c 128,-1,9
EndSplineSet
EndChar

StartChar: cedilla
Encoding: 184 184 124
Width: 260
Flags: HMW
HStem: -224 21G<153 196.5> -224 61<168.5 192.5 168.5 196.5> -98 50
VStem: 216 87
LayerCount: 2
Fore
SplineSet
70 -204 m 1,0,-1
 101 -138 l 1,1,2
 138 -163 138 -163 170.5 -163 c 0,3,4
 239 -163 239 -163 239 -122 c 0,5,6
 239 -100 239 -100 219 -93 c 0,7,8
 212.636363636 -90.7727272727 212.636363636 -90.7727272727 200.25 -90.7727272727 c 128,-1,9
 187.863636364 -90.7727272727 187.863636364 -90.7727272727 164 -101 c 2,10,-1
 123 -120 l 1,11,-1
 94 -78 l 1,12,-1
 155 0 l 1,13,-1
 216 0 l 1,14,-1
 184 -44 l 1,15,16
 200 -37 200 -37 226.5 -37 c 128,-1,17
 253 -37 253 -37 278 -59.5 c 128,-1,18
 303 -82 303 -82 303 -128.5 c 128,-1,19
 303 -175 303 -175 261.5 -199.5 c 128,-1,20
 220 -224 220 -224 172.5 -224 c 128,-1,21
 125 -224 125 -224 70 -204 c 1,0,-1
EndSplineSet
EndChar

StartChar: hungarumlaut
Encoding: 733 733 125
Width: 266
Flags: HMW
HStem: 568 143 569 143
VStem: 15 239
LayerCount: 2
Fore
SplineSet
196 569 m 1,0,-1
 133 569 l 1,1,-1
 181 680 l 2,2,3
 192.952 709.88 192.952 709.88 225.5232 709.88 c 0,4,5
 233.28 709.88 233.28 709.88 240 707 c 0,6,7
 263.538461538 696.538461538 263.538461538 696.538461538 263.538461538 677.346153846 c 128,-1,8
 263.538461538 658.153846154 263.538461538 658.153846154 252 642 c 2,9,-1
 196 569 l 1,0,-1
65 568 m 1,10,-1
 2 568 l 1,11,-1
 50 679 l 2,12,13
 61.952 708.88 61.952 708.88 94.5232 708.88 c 0,14,15
 102.28 708.88 102.28 708.88 109 706 c 0,16,17
 132.538461538 695.538461538 132.538461538 695.538461538 132.538461538 676.346153846 c 128,-1,18
 132.538461538 657.153846154 132.538461538 657.153846154 121 641 c 2,19,-1
 65 568 l 1,10,-1
EndSplineSet
EndChar

StartChar: ogonek
Encoding: 731 731 126
Width: 222
Flags: HMW
HStem: -210 50
VStem: 76 68
LayerCount: 2
Fore
SplineSet
220 -112 m 1,0,-1
 265 -160 l 1,1,2
 233 -210 233 -210 160 -210 c 0,3,4
 131 -210 131 -210 100.939393939 -188.666666667 c 0,5,6
 70.8787878788 -167.333333333 70.8787878788 -167.333333333 70.8787878788 -124.605142332 c 0,7,8
 70.8787878788 -121.848484848 70.8787878788 -121.848484848 71 -119 c 0,9,10
 71 -56 71 -56 165 3 c 1,11,-1
 230 3 l 1,12,13
 134 -77 134 -77 135 -118 c 1,14,15
 137 -149 137 -149 169.5 -149 c 0,16,17
 202 -149 202 -149 220 -112 c 1,0,-1
EndSplineSet
EndChar

StartChar: caron
Encoding: 711 711 127
Width: 381
Flags: HMW
HStem: 537 142 633 47
VStem: 21 300
LayerCount: 2
Fore
SplineSet
336 731 m 1,0,-1
 194 590 l 1,1,-1
 46 731 l 1,2,-1
 102 770 l 1,3,-1
 193 679 l 1,4,-1
 279 770 l 1,5,-1
 336 731 l 1,0,-1
EndSplineSet
EndChar

StartChar: ordfeminine
Encoding: 170 170 128
Width: 384
Flags: HMW
HStem: 380 50 659 50
VStem: 76 68 308 60
LayerCount: 2
Fore
SplineSet
347 391 m 1,0,1
 278.230769231 379.538461538 278.230769231 379.538461538 247.307692308 379.538461538 c 128,-1,2
 216.384615385 379.538461538 216.384615385 379.538461538 185.692307692 382.769230769 c 128,-1,3
 155 386 155 386 132 400 c 128,-1,4
 109 414 109 414 93.5 444 c 128,-1,5
 78 474 78 474 78 519 c 0,6,7
 78 598 78 598 137 623.5 c 0,8,9
 158.340425532 632.723404255 158.340425532 632.723404255 190.914893617 632.723404255 c 128,-1,10
 223.489361702 632.723404255 223.489361702 632.723404255 272 604 c 1,11,12
 272 632 272 632 256 643.675675676 c 128,-1,13
 240 655.351351351 240 655.351351351 214.878378378 655.351351351 c 128,-1,14
 189.756756757 655.351351351 189.756756757 655.351351351 173 654 c 1,15,-1
 181 709 l 1,16,17
 191.126582278 709.405063291 191.126582278 709.405063291 200.566095177 709.405063291 c 0,18,19
 284.341772152 709.405063291 284.341772152 709.405063291 315.670886076 675.702531646 c 128,-1,20
 347 642 347 642 347 555 c 2,21,-1
 347 391 l 1,0,1
148 513 m 0,22,23
 148 446.958333333 148 446.958333333 227.092881944 446.958333333 c 0,24,25
 247.708333333 446.958333333 247.708333333 446.958333333 272 452 c 1,26,-1
 272 538 l 1,27,28
 221.26686217 565.903225806 221.26686217 565.903225806 187.095213319 565.903225806 c 0,29,30
 170.983870968 565.903225806 170.983870968 565.903225806 159.491935484 553.951612903 c 128,-1,31
 148 542 148 542 148 513 c 0,22,23
EndSplineSet
EndChar

StartChar: Lslash
Encoding: 321 321 129
Width: 589
Flags: HMW
HStem: 0 80 694 20G
VStem: 191 95 191 105
LayerCount: 2
Fore
SplineSet
552 0 m 1,0,-1
 191 0 l 1,1,-1
 191 325 l 1,2,-1
 109 288 l 1,3,-1
 78 358 l 1,4,-1
 191 409 l 1,5,-1
 191 700 l 1,6,-1
 282 700 l 1,7,-1
 282 450 l 1,8,-1
 369 490 l 1,9,-1
 401 419 l 1,10,-1
 282 365 l 1,11,-1
 282 83 l 1,12,-1
 552 83 l 1,13,-1
 552 0 l 1,0,-1
EndSplineSet
EndChar

StartChar: lslash
Encoding: 322 322 130
Width: 438
Flags: HMW
HStem: 0 21G<199 291 199 199> 496 20G 694 20G
VStem: 182 85 199 92<0 328 328 328 454 612 612 612>
LayerCount: 2
Fore
SplineSet
291 0 m 1,0,-1
 199 0 l 1,1,-1
 199 328 l 1,2,-1
 109 288 l 1,3,-1
 78 358 l 1,4,-1
 199 413 l 1,5,-1
 199 612 l 1,6,-1
 136 614 l 1,7,-1
 136 700 l 1,8,-1
 291 700 l 1,9,-1
 291 454 l 1,10,-1
 369 490 l 1,11,-1
 401 419 l 1,12,-1
 291 369 l 1,13,-1
 291 0 l 1,0,-1
EndSplineSet
EndChar

StartChar: mu
Encoding: 181 181 131
Width: 478
Flags: HMW
HStem: -201 21G<37 37> -12 75 0 21G 497 20G
VStem: 212 102 380 85
LayerCount: 2
Fore
SplineSet
346 13 m 1,0,1
 317.666666667 -12 317.666666667 -12 261.544871795 -12 c 128,-1,2
 205.423076923 -12 205.423076923 -12 128 21 c 1,3,-1
 128 -210 l 1,4,-1
 37 -201 l 1,5,-1
 37 501 l 1,6,-1
 128 501 l 1,7,-1
 128 109 l 1,8,9
 136 101 136 101 172.5 87.5 c 128,-1,10
 209 74 209 74 244 74 c 0,11,12
 325 74 325 74 325 180 c 2,13,-1
 325 497 l 1,14,-1
 417 510 l 1,15,-1
 417 69 l 1,16,17
 420 41 420 41 444 27 c 1,18,-1
 370 -6 l 2,19,20
 367 -7 367 -7 359.5 -1.5 c 128,-1,21
 352 4 352 4 346 13 c 1,0,1
EndSplineSet
EndChar

StartChar: trademark
Encoding: 8482 8482 132
Width: 572
Flags: HMW
HStem: 659 55
VStem: 105 63<512 700 512 700> 205 67 375 102<592 592>
LayerCount: 2
Fore
SplineSet
477 512 m 1,0,-1
 431 512 l 1,1,-1
 431 632 l 1,2,-1
 391 512 l 1,3,-1
 360 512 l 1,4,-1
 320 632 l 1,5,-1
 320 512 l 1,6,-1
 272 512 l 1,7,-1
 272 654 l 1,8,-1
 216 654 l 1,9,-1
 216 512 l 1,10,-1
 168 512 l 1,11,-1
 168 654 l 1,12,-1
 105 654 l 1,13,-1
 105 700 l 1,14,-1
 336 700 l 1,15,-1
 375 592 l 1,16,-1
 413 700 l 1,17,-1
 477 700 l 1,18,-1
 477 512 l 1,0,-1
EndSplineSet
EndChar

StartChar: plusminus
Encoding: 177 177 133
Width: 435
Flags: HMW
HStem: 0 68 271 68
VStem: 295 68
LayerCount: 2
Fore
SplineSet
398 218 m 1,0,-1
 78 218 l 1,1,-1
 78 301 l 1,2,-1
 195 301 l 1,3,-1
 195 351 l 1,4,-1
 78 351 l 1,5,-1
 78 429 l 1,6,-1
 195 429 l 1,7,-1
 195 545 l 1,8,-1
 280 545 l 1,9,-1
 280 429 l 1,10,-1
 398 429 l 1,11,-1
 398 351 l 1,12,-1
 280 351 l 1,13,-1
 280 301 l 1,14,-1
 398 301 l 1,15,-1
 398 218 l 1,0,-1
EndSplineSet
EndChar

StartChar: divide
Encoding: 247 247 134
Width: 435
Flags: HMW
HStem: -17 21G 219 68 503 20G
VStem: 171 128
LayerCount: 2
Fore
SplineSet
398 346 m 1,0,-1
 78 346 l 1,1,-1
 78 423 l 1,2,-1
 398 423 l 1,3,-1
 398 346 l 1,0,-1
241 458 m 128,-1,5
 222 458 222 458 208 472 c 128,-1,6
 194 486 194 486 194 505 c 128,-1,7
 194 524 194 524 208 537.5 c 128,-1,8
 222 551 222 551 241 551 c 128,-1,9
 260 551 260 551 273.5 537.5 c 128,-1,10
 287 524 287 524 287 505 c 128,-1,11
 287 486 287 486 273.5 472 c 128,-1,4
 260 458 260 458 241 458 c 128,-1,5
241 213 m 128,-1,13
 222 213 222 213 208 226.5 c 128,-1,14
 194 240 194 240 194 259.5 c 0,15,16
 194 279 194 279 208 292.5 c 128,-1,17
 222 306 222 306 241 306 c 128,-1,18
 260 306 260 306 273.5 292.5 c 128,-1,19
 287 279 287 279 287 260 c 128,-1,20
 287 241 287 241 273.5 227 c 128,-1,12
 260 213 260 213 241 213 c 128,-1,13
EndSplineSet
EndChar

StartChar: degree
Encoding: 176 176 135
Width: 403
Flags: HMW
HStem: 421 210<201.5 242.5 201.5 262> 499 210<201.5 242.5>
VStem: 78 210<548.5 581.5 548.5 605> 156 210<548.5 581.5>
LayerCount: 2
Fore
SplineSet
222 421 m 128,-1,1
 162 421 162 421 120 463 c 128,-1,2
 78 505 78 505 78 565 c 128,-1,3
 78 625 78 625 120 667 c 128,-1,4
 162 709 162 709 222 709 c 128,-1,5
 282 709 282 709 324 667 c 128,-1,6
 366 625 366 625 366 565 c 128,-1,7
 366 505 366 505 324 463 c 128,-1,0
 282 421 282 421 222 421 c 128,-1,1
288 565 m 128,-1,9
 288 591 288 591 269.5 611 c 128,-1,10
 251 631 251 631 222 631 c 128,-1,11
 193 631 193 631 174.5 611 c 128,-1,12
 156 591 156 591 156 565 c 128,-1,13
 156 539 156 539 174.5 519 c 128,-1,14
 193 499 193 499 222 499 c 128,-1,15
 251 499 251 499 269.5 519 c 128,-1,8
 288 539 288 539 288 565 c 128,-1,9
EndSplineSet
EndChar

StartChar: registered
Encoding: 174 174 136
Width: 800
Flags: HMW
HStem: -17 55 327 55 521 55 676 55
VStem: 24 68 255 68 509 68 708 68
LayerCount: 2
Fore
SplineSet
566 39 m 1,0,-1
 473 39 l 1,1,-1
 393 229 l 1,2,-1
 360 229 l 1,3,-1
 360 39 l 1,4,-1
 273 39 l 1,5,-1
 273 476 l 1,6,-1
 403 476 l 2,7,8
 480 476 480 476 518.5 443.5 c 128,-1,9
 557 411 557 411 557 351 c 0,10,11
 557 267 557 267 476 239 c 1,12,-1
 566 39 l 1,0,-1
360 302 m 1,13,-1
 400 302 l 2,14,15
 468 302 468 302 468 351 c 0,16,17
 468 374 468 374 451.5 388 c 128,-1,18
 435 402 435 402 413 402 c 2,19,-1
 360 402 l 1,20,-1
 360 302 l 1,13,-1
665 -19 m 128,-1,22
 556 -127 556 -127 400.5 -127 c 128,-1,23
 245 -127 245 -127 135 -19 c 128,-1,24
 25 89 25 89 25 248 c 128,-1,25
 25 407 25 407 134 514 c 128,-1,26
 243 621 243 621 400.5 621 c 128,-1,27
 558 621 558 621 666 514 c 128,-1,28
 774 407 774 407 774 248 c 128,-1,21
 774 89 774 89 665 -19 c 128,-1,22
199.5 42.5 m 128,-1,30
 281 -38 281 -38 400 -38 c 128,-1,31
 519 -38 519 -38 600.5 43 c 128,-1,32
 682 124 682 124 682 245.5 c 128,-1,33
 682 367 682 367 600 449.5 c 128,-1,34
 518 532 518 532 400 532 c 128,-1,35
 282 532 282 532 200 452 c 128,-1,36
 118 372 118 372 118 247.5 c 128,-1,29
 118 123 118 123 199.5 42.5 c 128,-1,30
EndSplineSet
EndChar

StartChar: multiply
Encoding: 215 215 137
Width: 419
Flags: HMW
HStem: 24 458
VStem: 80 301<213 213>
LayerCount: 2
Fore
SplineSet
381 213 m 1,0,-1
 321 161 l 1,1,-1
 230 270 l 1,2,-1
 139 160 l 1,3,-1
 80 213 l 1,4,-1
 178 333 l 1,5,-1
 78 453 l 1,6,-1
 138 504 l 1,7,-1
 230 394 l 1,8,-1
 321 505 l 1,9,-1
 382 455 l 1,10,-1
 281 333 l 1,11,-1
 381 213 l 1,0,-1
EndSplineSet
EndChar

StartChar: copyright
Encoding: 169 169 138
Width: 800
Flags: HMW
HStem: -17 55 128 55 530 55 676 55
VStem: 24 68 191 68 708 68
LayerCount: 2
Fore
SplineSet
665 -19 m 128,-1,1
 556 -127 556 -127 400.5 -127 c 128,-1,2
 245 -127 245 -127 135 -19 c 128,-1,3
 25 89 25 89 25 248 c 128,-1,4
 25 407 25 407 134 514 c 128,-1,5
 243 621 243 621 400.5 621 c 128,-1,6
 558 621 558 621 666 514 c 128,-1,7
 774 407 774 407 774 248 c 128,-1,0
 774 89 774 89 665 -19 c 128,-1,1
199.5 42.5 m 128,-1,9
 281 -38 281 -38 400 -38 c 128,-1,10
 519 -38 519 -38 600.5 43 c 128,-1,11
 682 124 682 124 682 245.5 c 128,-1,12
 682 367 682 367 600 449.5 c 128,-1,13
 518 532 518 532 400 532 c 128,-1,14
 282 532 282 532 200 452 c 128,-1,15
 118 372 118 372 118 247.5 c 128,-1,8
 118 123 118 123 199.5 42.5 c 128,-1,9
507 175 m 1,16,-1
 599 175 l 1,17,18
 583 103 583 103 529 59.5 c 128,-1,19
 475 16 475 16 405 16 c 0,20,21
 306 16 306 16 248.5 81 c 128,-1,22
 191 146 191 146 191 244.5 c 128,-1,23
 191 343 191 343 248 410.5 c 128,-1,24
 305 478 305 478 403 478 c 0,25,26
 476 478 476 478 531 435 c 128,-1,27
 586 392 586 392 598 323 c 1,28,-1
 507 323 l 1,29,30
 501 348 501 348 471 366.5 c 128,-1,31
 441 385 441 385 402 385 c 0,32,33
 340 385 340 385 310.5 345.5 c 128,-1,34
 281 306 281 306 281 247 c 128,-1,35
 281 188 281 188 312.5 148 c 128,-1,36
 344 108 344 108 403 108 c 0,37,38
 444 108 444 108 474.5 127 c 128,-1,39
 505 146 505 146 507 175 c 1,16,-1
EndSplineSet
EndChar

StartChar: Delta
Encoding: 8710 8710 139
Width: 620
Flags: HMW
HStem: 0 65 622 91
VStem: 97 586
LayerCount: 2
Fore
SplineSet
583 0 m 1,0,-1
 78 0 l 1,1,-1
 281 700 l 1,2,-1
 371 700 l 1,3,-1
 583 0 l 1,0,-1
460 83 m 1,4,-1
 329 528 l 1,5,-1
 201 83 l 1,6,-1
 460 83 l 1,4,-1
EndSplineSet
EndChar

StartChar: Omega
Encoding: 8486 8486 140
Width: 629
Flags: HMW
HStem: 0 66 639 67
VStem: 345 100 628 81
LayerCount: 2
Fore
SplineSet
592 0 m 1,0,-1
 364 0 l 1,1,-1
 364 83 l 1,2,3
 394 83 394 83 419 90.5 c 128,-1,4
 444 98 444 98 452 105.5 c 128,-1,5
 460 113 460 113 469.5 124.5 c 0,6,7
 488 146.894736842 488 146.894736842 488 196 c 2,8,-1
 488 484 l 2,9,10
 488 545 488 545 459.5 579 c 128,-1,11
 431 613 431 613 381 613 c 2,12,-1
 292 613 l 2,13,14
 181 613 181 613 181 484 c 2,15,-1
 181 195 l 2,16,17
 181 119.714285714 181 119.714285714 230.5 98.5 c 0,18,19
 266.666666667 83 266.666666667 83 306 83 c 1,20,-1
 306 0 l 1,21,-1
 78 0 l 1,22,-1
 95 83 l 1,23,-1
 129 83 l 1,24,25
 91 123 91 123 91 196 c 2,26,-1
 91 503 l 2,27,28
 91 595 91 595 138 651 c 128,-1,29
 185 707 185 707 279 707 c 2,30,-1
 391 707 l 2,31,32
 485 707 485 707 532 651 c 128,-1,33
 579 595 579 595 579 503 c 2,34,-1
 579 196 l 2,35,36
 579 163 579 163 574.5 149.5 c 128,-1,37
 570 136 570 136 568.5 129.5 c 128,-1,38
 567 123 567 123 561.5 114 c 128,-1,39
 556 105 556 105 554.5 102.5 c 128,-1,40
 553 100 553 100 546 91.5 c 2,41,-1
 539 83 l 1,42,-1
 575 83 l 1,43,-1
 592 0 l 1,0,-1
EndSplineSet
EndChar

StartChar: pi
Encoding: 960 960 141
Width: 511
Flags: HMW
HStem: 0 21G<66 157 66 66> 449 68
VStem: 264 100 387 80
LayerCount: 2
Fore
SplineSet
474 50 m 1,0,-1
 422 -12 l 1,1,2
 378 2.66666666667 378 2.66666666667 360.5 43.5 c 0,3,4
 353 61 353 61 353 83 c 2,5,-1
 354 418 l 1,6,-1
 157 418 l 1,7,-1
 157 0 l 1,8,-1
 66 0 l 1,9,-1
 66 501 l 1,10,-1
 445 501 l 1,11,-1
 445 92 l 1,12,13
 450 64 450 64 474 50 c 1,0,-1
EndSplineSet
EndChar

StartChar: uni00AD
Encoding: 173 173 143
Width: 410
Flags: HMW
HStem: 238 80
VStem: 50 289
LayerCount: 2
Fore
SplineSet
365 325 m 1,0,-1
 45 325 l 1,1,-1
 45 413 l 1,2,-1
 365 413 l 1,3,-1
 365 325 l 1,0,-1
EndSplineSet
EndChar

StartChar: f_l
Encoding: 64258 64258 144
Width: 433
Flags: HMW
HStem: 0 21G<78 170 78 78 304 396 304 304> 442 75 647 75 694 20G
VStem: 141 85 407 85
LayerCount: 2
Fore
SplineSet
304 603 m 1,0,1
 278.676691729 623.047619048 278.676691729 623.047619048 247.278822055 623.047619048 c 128,-1,2
 215.880952381 623.047619048 215.880952381 623.047619048 192.94047619 603.523809524 c 128,-1,3
 170 584 170 584 170 549 c 2,4,-1
 170 501 l 1,5,-1
 267 501 l 1,6,-1
 243 415 l 1,7,-1
 170 415 l 1,8,-1
 170 0 l 1,9,-1
 78 0 l 1,10,-1
 78 532 l 2,11,12
 78 643 78 643 161.5 686.5 c 0,13,14
 198.753846154 705.907692308 198.753846154 705.907692308 255.561538462 705.907692308 c 128,-1,15
 312.369230769 705.907692308 312.369230769 705.907692308 396 676 c 1,16,-1
 396 0 l 1,17,-1
 304 0 l 1,18,-1
 304 603 l 1,0,1
EndSplineSet
EndChar

StartChar: Epsilontonos
Encoding: 904 904 145
Width: 616
Flags: HMW
HStem: 0 50 82 243<336 465 336 577 336 577> 568 143 569 143 648 52
VStem: 82 109 88 109 245 56 577 2
LayerCount: 2
Fore
SplineSet
141 568 m 1,0,-1
 78 568 l 1,1,-1
 126 679 l 2,2,3
 137.952 708.88 137.952 708.88 170.5232 708.88 c 0,4,5
 178.28 708.88 178.28 708.88 185 706 c 0,6,7
 208.538461538 695.538461538 208.538461538 695.538461538 208.538461538 676.346153846 c 128,-1,8
 208.538461538 657.153846154 208.538461538 657.153846154 197 641 c 2,9,-1
 141 568 l 1,0,-1
577 0 m 1,10,-1
 245 0 l 1,11,-1
 245 700 l 1,12,-1
 579 700 l 1,13,-1
 579 610 l 1,14,-1
 336 610 l 1,15,-1
 336 413 l 1,16,-1
 492 413 l 1,17,-1
 465 325 l 1,18,-1
 336 325 l 1,19,-1
 336 82 l 1,20,-1
 577 82 l 1,21,-1
 577 0 l 1,10,-1
EndSplineSet
EndChar

StartChar: Etatonos
Encoding: 905 905 146
Width: 714
Flags: HMW
HStem: 568 143 569 143
VStem: 80 109 239 56 247 91<0 325 0 413 413 700> 456 78 587 90<0 325 325 325 413 700> 613 56
LayerCount: 2
Fore
SplineSet
141 568 m 1,0,-1
 78 568 l 1,1,-1
 126 679 l 2,2,3
 137.952 708.88 137.952 708.88 170.5232 708.88 c 0,4,5
 178.28 708.88 178.28 708.88 185 706 c 0,6,7
 208.538461538 695.538461538 208.538461538 695.538461538 208.538461538 676.346153846 c 128,-1,8
 208.538461538 657.153846154 208.538461538 657.153846154 197 641 c 2,9,-1
 141 568 l 1,0,-1
677 0 m 1,10,-1
 587 0 l 1,11,-1
 587 325 l 1,12,-1
 338 325 l 1,13,-1
 338 0 l 1,14,-1
 247 0 l 1,15,-1
 247 700 l 1,16,-1
 338 700 l 1,17,-1
 338 413 l 1,18,-1
 587 413 l 1,19,-1
 587 700 l 1,20,-1
 677 700 l 1,21,-1
 677 0 l 1,10,-1
EndSplineSet
EndChar

StartChar: Iotatonos
Encoding: 906 906 147
Width: 427
Flags: HMW
HStem: 568 143 569 143
VStem: 123 109 299 92<0 612 612 612> 337 56
LayerCount: 2
Fore
SplineSet
391 0 m 1,0,-1
 299 0 l 1,1,-1
 299 612 l 1,2,-1
 236 614 l 1,3,-1
 236 700 l 1,4,-1
 391 700 l 1,5,-1
 391 0 l 1,0,-1
141 568 m 1,6,-1
 78 568 l 1,7,-1
 126 679 l 2,8,9
 137.952 708.88 137.952 708.88 170.5232 708.88 c 0,10,11
 178.28 708.88 178.28 708.88 185 706 c 0,12,13
 208.538461538 695.538461538 208.538461538 695.538461538 208.538461538 676.346153846 c 128,-1,14
 208.538461538 657.153846154 208.538461538 657.153846154 197 641 c 2,15,-1
 141 568 l 1,6,-1
EndSplineSet
EndChar

StartChar: Omicrontonos
Encoding: 908 908 148
Width: 652
Flags: HMW
HStem: 0 42 568 143 569 143 620 96<361 449.5>
VStem: 82 109 87 109 195 56 195 91<185 198 198 487> 394 81 524 91<199 486 486 506> 560 55
LayerCount: 2
Fore
SplineSet
615 506 m 2,0,-1
 615 185 l 2,1,2
 615 84 615 84 553.5 36.5 c 128,-1,3
 492 -11 492 -11 406 -11 c 128,-1,4
 320 -11 320 -11 257.5 36.5 c 128,-1,5
 195 84 195 84 195 185 c 2,6,-1
 195 507 l 2,7,8
 195 610 195 610 251.5 663 c 128,-1,9
 308 716 308 716 407 716 c 128,-1,10
 506 716 506 716 560.5 660 c 128,-1,11
 615 604 615 604 615 506 c 2,0,-1
524 199 m 2,12,-1
 524 486 l 2,13,14
 524 552 524 552 496.5 586 c 128,-1,15
 469 620 469 620 405 620 c 128,-1,16
 341 620 341 620 313.5 586.5 c 128,-1,17
 286 553 286 553 286 487 c 2,18,-1
 286 198 l 2,19,20
 286 142 286 142 317.5 111 c 128,-1,21
 349 80 349 80 404 80 c 128,-1,22
 459 80 459 80 491.5 111.5 c 128,-1,23
 524 143 524 143 524 199 c 2,12,-1
141 568 m 1,24,-1
 78 568 l 1,25,-1
 126 679 l 2,26,27
 137.952 708.88 137.952 708.88 170.5232 708.88 c 0,28,29
 178.28 708.88 178.28 708.88 185 706 c 0,30,31
 208.538461538 695.538461538 208.538461538 695.538461538 208.538461538 676.346153846 c 128,-1,32
 208.538461538 657.153846154 208.538461538 657.153846154 197 641 c 2,33,-1
 141 568 l 1,24,-1
EndSplineSet
EndChar

StartChar: Upsilontonos
Encoding: 910 910 149
Width: 718
Flags: HMW
HStem: 0 21G 568 143 694 20G
VStem: 87 109 237 56 328 262<386 430 430 700> 520 27 624 57
LayerCount: 2
Fore
SplineSet
141 568 m 1,0,-1
 78 568 l 1,1,-1
 126 679 l 2,2,3
 137.952 708.88 137.952 708.88 170.5232 708.88 c 0,4,5
 178.28 708.88 178.28 708.88 185 706 c 0,6,7
 208.538461538 695.538461538 208.538461538 695.538461538 208.538461538 676.346153846 c 128,-1,8
 208.538461538 657.153846154 208.538461538 657.153846154 197 641 c 2,9,-1
 141 568 l 1,0,-1
547 -15 m 1,10,-1
 520 53 l 1,11,12
 590 66 590 66 590 160 c 2,13,-1
 590 246 l 1,14,15
 541 212 541 212 466 212 c 0,16,17
 362 212 362 212 299.5 269 c 128,-1,18
 237 326 237 326 237 427 c 2,19,-1
 237 700 l 1,20,-1
 328 700 l 1,21,-1
 328 430 l 2,22,23
 328 366 328 366 364 334 c 128,-1,24
 400 302 400 302 458.5 302 c 128,-1,25
 517 302 517 302 548.5 319.5 c 128,-1,26
 580 337 580 337 590 363 c 1,27,-1
 590 700 l 1,28,-1
 681 700 l 1,29,-1
 681 156 l 2,30,31
 681 0 681 0 547 -15 c 1,10,-1
EndSplineSet
EndChar

StartChar: Omegatonos
Encoding: 911 911 150
Width: 723
Flags: HMW
HStem: 0 66 568 143 569 143 639 67
VStem: 80 109 82 109 209 81 439 100 722 81
LayerCount: 2
Fore
SplineSet
686 0 m 1,0,-1
 458 0 l 1,1,-1
 458 83 l 1,2,3
 488 83 488 83 513 90.5 c 128,-1,4
 538 98 538 98 546 105.5 c 128,-1,5
 554 113 554 113 563.5 124.5 c 0,6,7
 582 146.894736842 582 146.894736842 582 196 c 2,8,-1
 582 484 l 2,9,10
 582 545 582 545 553.5 579 c 128,-1,11
 525 613 525 613 475 613 c 2,12,-1
 386 613 l 2,13,14
 275 613 275 613 275 484 c 2,15,-1
 275 195 l 2,16,17
 275 119.714285714 275 119.714285714 324.5 98.5 c 0,18,19
 360.666666667 83 360.666666667 83 400 83 c 1,20,-1
 400 0 l 1,21,-1
 172 0 l 1,22,-1
 189 83 l 1,23,-1
 223 83 l 1,24,25
 185 123 185 123 185 196 c 2,26,-1
 185 503 l 2,27,28
 185 595 185 595 232 651 c 128,-1,29
 279 707 279 707 373 707 c 2,30,-1
 485 707 l 2,31,32
 579 707 579 707 626 651 c 128,-1,33
 673 595 673 595 673 503 c 2,34,-1
 673 196 l 2,35,36
 673 163 673 163 668.5 149.5 c 128,-1,37
 664 136 664 136 662.5 129.5 c 128,-1,38
 661 123 661 123 655.5 114 c 128,-1,39
 650 105 650 105 648.5 102.5 c 128,-1,40
 647 100 647 100 640 91.5 c 2,41,-1
 633 83 l 1,42,-1
 669 83 l 1,43,-1
 686 0 l 1,0,-1
141 568 m 1,44,-1
 78 568 l 1,45,-1
 126 679 l 2,46,47
 137.952 708.88 137.952 708.88 170.5232 708.88 c 0,48,49
 178.28 708.88 178.28 708.88 185 706 c 0,50,51
 208.538461538 695.538461538 208.538461538 695.538461538 208.538461538 676.346153846 c 128,-1,52
 208.538461538 657.153846154 208.538461538 657.153846154 197 641 c 2,53,-1
 141 568 l 1,44,-1
EndSplineSet
EndChar

StartChar: iotatonos
Encoding: 943 943 151
Width: 264
Flags: HMW
HStem: 0 21G<78 169 78 78> 497 20G 538 143 610 104
VStem: 78 91<0 501> 101 85
LayerCount: 2
Fore
SplineSet
159 538 m 1,0,-1
 96 538 l 1,1,-1
 144 649 l 2,2,3
 155.952 678.88 155.952 678.88 188.5232 678.88 c 0,4,5
 196.28 678.88 196.28 678.88 203 676 c 0,6,7
 226.538461538 665.538461538 226.538461538 665.538461538 226.538461538 646.346153846 c 128,-1,8
 226.538461538 627.153846154 226.538461538 627.153846154 215 611 c 2,9,-1
 159 538 l 1,0,-1
169 0 m 1,10,-1
 78 0 l 1,11,-1
 78 501 l 1,12,-1
 169 501 l 1,13,-1
 169 0 l 1,10,-1
EndSplineSet
EndChar

StartChar: etatonos
Encoding: 942 942 152
Width: 484
Flags: HMW
HStem: 0 21G<78 168 78 78> 454 75 538 143
VStem: 87 85 244 109 253 109 430 85
LayerCount: 2
Fore
SplineSet
312 538 m 1,0,-1
 249 538 l 1,1,-1
 297 649 l 2,2,3
 308.952 678.88 308.952 678.88 341.5232 678.88 c 0,4,5
 349.28 678.88 349.28 678.88 356 676 c 0,6,7
 379.538461538 665.538461538 379.538461538 665.538461538 379.538461538 646.346153846 c 128,-1,8
 379.538461538 627.153846154 379.538461538 627.153846154 368 611 c 2,9,-1
 312 538 l 1,0,-1
167 486 m 1,10,11
 203.23125 509.375 203.23125 509.375 261.615625 509.375 c 128,-1,12
 320 509.375 320 509.375 362 491 c 0,13,14
 447 452 447 452 447 346 c 2,15,-1
 447 -210 l 1,16,-1
 357 -186 l 1,17,-1
 357 343 l 2,18,19
 357 387 357 387 329.524509804 407.490196078 c 128,-1,20
 302.049019608 427.980392157 302.049019608 427.980392157 260.090277778 427.980392157 c 128,-1,21
 218.131535948 427.980392157 218.131535948 427.980392157 168 400 c 1,22,-1
 168 0 l 1,23,-1
 78 0 l 1,24,-1
 78 501 l 1,25,-1
 163 501 l 1,26,-1
 167 486 l 1,10,11
EndSplineSet
EndChar

StartChar: epsilontonos
Encoding: 941 941 153
Width: 460
Flags: HMW
HStem: -12 75 336 68 538 143 634 75
VStem: 58 85 68 85 73 85 80 101 229 109 418 90 428 90 448 90 458 90
LayerCount: 2
Fore
SplineSet
288 538 m 1,0,-1
 225 538 l 1,1,-1
 273 649 l 2,2,3
 284.952 678.88 284.952 678.88 317.5232 678.88 c 0,4,5
 325.28 678.88 325.28 678.88 332 676 c 0,6,7
 355.538461538 665.538461538 355.538461538 665.538461538 355.538461538 646.346153846 c 128,-1,8
 355.538461538 627.153846154 355.538461538 627.153846154 344 611 c 2,9,-1
 288 538 l 1,0,-1
265.222222222 429.666666667 m 0,10,11
 187.960784314 429.666666667 187.960784314 429.666666667 187.960784314 365.740868897 c 0,12,13
 187.960784314 338.254901961 187.960784314 338.254901961 211.980392157 319.62745098 c 128,-1,14
 236 301 236 301 276 301 c 2,15,-1
 352 301 l 1,16,-1
 325 213 l 1,17,-1
 262 213 l 2,18,19
 169 213 169 213 169 152 c 0,20,21
 169 117 169 117 194.820512821 98.9743589744 c 128,-1,22
 220.641025641 80.9487179487 220.641025641 80.9487179487 266.933596318 80.9487179487 c 0,23,24
 333.747252747 80.9487179487 333.747252747 80.9487179487 381 103 c 2,25,-1
 396 110 l 1,26,-1
 423 23 l 1,27,28
 345 -11 345 -11 260.5 -11 c 128,-1,29
 176 -11 176 -11 130 30 c 0,30,31
 78.3950617284 75.9957058508 78.3950617284 75.9957058508 78.3950617284 149.504801097 c 0,32,33
 78.3950617284 239.543209877 78.3950617284 239.543209877 146 277 c 1,34,35
 125 292 125 292 111.181818182 322.659090909 c 128,-1,36
 97.3636363636 353.318181818 97.3636363636 353.318181818 97.3636363636 371.977272727 c 128,-1,37
 97.3636363636 390.636363636 97.3636363636 390.636363636 99 401 c 0,38,39
 106 455 106 455 149.254237288 483.016949153 c 128,-1,40
 192.508474576 511.033898305 192.508474576 511.033898305 243.883797759 511.033898305 c 0,41,42
 297.159806295 511.033898305 297.159806295 511.033898305 353 496 c 1,43,-1
 355 414 l 1,44,45
 308 429.666666667 308 429.666666667 265.222222222 429.666666667 c 0,10,11
EndSplineSet
EndChar

StartChar: omegatonos
Encoding: 974 974 154
Width: 647
Flags: HMW
HStem: 538 143
VStem: 272 78 327 109 328 109
LayerCount: 2
Fore
SplineSet
386 538 m 1,0,-1
 323 538 l 1,1,-1
 371 649 l 2,2,3
 382.952 678.88 382.952 678.88 415.5232 678.88 c 0,4,5
 423.28 678.88 423.28 678.88 430 676 c 0,6,7
 453.538461538 665.538461538 453.538461538 665.538461538 453.538461538 646.346153846 c 128,-1,8
 453.538461538 627.153846154 453.538461538 627.153846154 442 611 c 2,9,-1
 386 538 l 1,0,-1
519 189 m 2,10,-1
 519 327 l 2,11,12
 519 378 519 378 503 404.5 c 128,-1,13
 487 431 487 431 453 444 c 1,14,-1
 503 500 l 1,15,16
 610 460 610 460 610 317 c 2,17,-1
 610 188 l 2,18,19
 610 -12 610 -12 449 -12 c 0,20,21
 379 -12 379 -12 344 41 c 1,22,23
 307 -12 307 -12 239 -12 c 0,24,25
 78 -12 78 -12 78 188 c 2,26,-1
 78 317 l 2,27,28
 78 460 78 460 185 500 c 1,29,-1
 236 444 l 1,30,31
 169 419 169 419 169 327 c 2,32,-1
 169 189 l 2,33,34
 169 80 169 80 236 80 c 0,35,36
 269 80 269 80 282 102.5 c 128,-1,37
 295 125 295 125 297 182 c 1,38,-1
 297 299 l 1,39,-1
 389 299 l 1,40,-1
 389 182 l 1,41,42
 390 125 390 125 404 102.5 c 128,-1,43
 418 80 418 80 452 80 c 0,44,45
 519 80 519 80 519 189 c 2,10,-1
EndSplineSet
EndChar

StartChar: upsilontonos
Encoding: 973 973 155
Width: 495
Flags: HMW
HStem: -12 75 0 21G 497 20G 538 143
VStem: 86 85 253 101 253 109 256 109 419 85 429 85
LayerCount: 2
Fore
SplineSet
312 538 m 1,0,-1
 249 538 l 1,1,-1
 297 649 l 2,2,3
 308.952 678.88 308.952 678.88 341.5232 678.88 c 0,4,5
 349.28 678.88 349.28 678.88 356 676 c 0,6,7
 379.538461538 665.538461538 379.538461538 665.538461538 379.538461538 646.346153846 c 128,-1,8
 379.538461538 627.153846154 379.538461538 627.153846154 368 611 c 2,9,-1
 312 538 l 1,0,-1
367 205 m 2,10,-1
 367 501 l 1,11,-1
 458 501 l 1,12,-1
 458 172 l 2,13,14
 458 -10 458 -10 268 -10 c 128,-1,15
 78 -10 78 -10 78 172 c 2,16,-1
 78 501 l 1,17,-1
 169 501 l 1,18,-1
 169 204 l 2,19,20
 169 135 169 135 189.5 107.5 c 128,-1,21
 210 80 210 80 267.5 80 c 128,-1,22
 325 80 325 80 346 108 c 128,-1,23
 367 136 367 136 367 205 c 2,10,-1
EndSplineSet
EndChar

StartChar: omicrontonos
Encoding: 972 972 156
Width: 488
Flags: HMW
HStem: -12 75 -10 88<238.5 294 238.5 332> 422 90<241.5 288.5> 454 75 538 143
VStem: 58 90 78 91<184 316> 248 109 361 90<174 184 184 316> 470 90
LayerCount: 2
Fore
SplineSet
302 538 m 1,0,-1
 239 538 l 1,1,-1
 287 649 l 2,2,3
 298.952 678.88 298.952 678.88 331.5232 678.88 c 0,4,5
 339.28 678.88 339.28 678.88 346 676 c 0,6,7
 369.538461538 665.538461538 369.538461538 665.538461538 369.538461538 646.346153846 c 128,-1,8
 369.538461538 627.153846154 369.538461538 627.153846154 358 611 c 2,9,-1
 302 538 l 1,0,-1
451 316 m 2,10,-1
 451 184 l 2,11,12
 451 100 451 100 405 45 c 128,-1,13
 359 -10 359 -10 266 -10 c 128,-1,14
 173 -10 173 -10 125.5 45.5 c 128,-1,15
 78 101 78 101 78 184 c 2,16,-1
 78 316 l 2,17,18
 78 411 78 411 126.5 461.5 c 128,-1,19
 175 512 175 512 264 512 c 128,-1,20
 353 512 353 512 402 459.5 c 128,-1,21
 451 407 451 407 451 316 c 2,10,-1
361 174 m 2,22,-1
 361 316 l 2,23,24
 361 422 361 422 266 422 c 0,25,26
 169 422 169 422 169 316 c 2,27,-1
 169 174 l 2,28,29
 169 127 169 127 196 102.5 c 128,-1,30
 223 78 223 78 266 78 c 128,-1,31
 309 78 309 78 335 103 c 128,-1,32
 361 128 361 128 361 174 c 2,22,-1
EndSplineSet
EndChar

StartChar: alphatonos
Encoding: 940 940 157
Width: 510
Flags: HMW
HStem: -198 21G -12 75 454 63 454 75 538 143
VStem: 86 90 241 109 243 103 271 109 481 85 491 85
LayerCount: 2
Fore
SplineSet
225.472222222 506.083333333 m 0,0,1
 293.677083333 506.083333333 293.677083333 506.083333333 358 479 c 1,2,-1
 370 510 l 1,3,-1
 450 486 l 1,4,5
 443 421 443 421 443 389 c 2,6,-1
 443 77 l 1,7,8
 449 49 449 49 473 35 c 1,9,-1
 391 1 l 2,10,11
 388 0 388 0 379 3.5 c 128,-1,12
 370 7 370 7 368 7 c 0,13,14
 309.968421053 -8.68421052632 309.968421053 -8.68421052632 275.957894737 -8.68421052632 c 128,-1,15
 241.947368421 -8.68421052632 241.947368421 -8.68421052632 209.973684211 -4.34210526316 c 128,-1,16
 178 0 178 0 148 17.5 c 128,-1,17
 118 35 118 35 98 73.5 c 128,-1,18
 78 112 78 112 78 169 c 2,19,-1
 78 354 l 2,20,21
 78 423 78 423 109 461 c 128,-1,22
 140 499 140 499 187 504 c 0,23,24
 206.583333333 506.083333333 206.583333333 506.083333333 225.472222222 506.083333333 c 0,0,1
351 395 m 1,25,26
 291.34375 421.513888889 291.34375 421.513888889 235.814429012 421.513888889 c 0,27,28
 206.472222222 421.513888889 206.472222222 421.513888889 187.736111111 404.256944444 c 128,-1,29
 169 387 169 387 169 351 c 2,30,-1
 169 194 l 2,31,32
 169 122 169 122 208 93 c 0,33,34
 228.563636364 77.7090909091 228.563636364 77.7090909091 265.2 77.7090909091 c 128,-1,35
 301.836363636 77.7090909091 301.836363636 77.7090909091 351 90 c 1,36,-1
 351 395 l 1,25,26
300 538 m 1,37,-1
 237 538 l 1,38,-1
 285 649 l 2,39,40
 296.952 678.88 296.952 678.88 329.5232 678.88 c 0,41,42
 337.28 678.88 337.28 678.88 344 676 c 0,43,44
 367.538461538 665.538461538 367.538461538 665.538461538 367.538461538 646.346153846 c 128,-1,45
 367.538461538 627.153846154 367.538461538 627.153846154 356 611 c 2,46,-1
 300 538 l 1,37,-1
EndSplineSet
EndChar

StartChar: Upsilondieresis
Encoding: 65539 -1 158
Width: 559
Flags: HMW
HStem: 0 21G 694 20G
VStem: 78 56 78 91<427 430 430 700> 431 91<160 246 246 246 363 700> 465 57
LayerCount: 2
Fore
SplineSet
388 -15 m 1,0,-1
 361 53 l 1,1,2
 431 66 431 66 431 160 c 2,3,-1
 431 246 l 1,4,5
 382 212 382 212 307 212 c 0,6,7
 203 212 203 212 140.5 269 c 128,-1,8
 78 326 78 326 78 427 c 2,9,-1
 78 700 l 1,10,-1
 169 700 l 1,11,-1
 169 430 l 2,12,13
 169 366 169 366 205 334 c 128,-1,14
 241 302 241 302 299.5 302 c 0,15,16
 358 302 358 302 389.5 319.5 c 128,-1,17
 421 337 421 337 431 363 c 1,18,-1
 431 700 l 1,19,-1
 522 700 l 1,20,-1
 522 156 l 2,21,22
 522 0 522 0 388 -15 c 1,0,-1
271 771 m 128,-1,24
 271 754 271 754 259 742.5 c 128,-1,25
 247 731 247 731 230.5 731 c 0,26,27
 214 731 214 731 202 742.5 c 128,-1,28
 190 754 190 754 190 771 c 128,-1,29
 190 788 190 788 201.5 800 c 128,-1,30
 213 812 213 812 230 812 c 128,-1,31
 247 812 247 812 259 800 c 128,-1,23
 271 788 271 788 271 771 c 128,-1,24
371 731 m 128,-1,33
 354 731 354 731 342 743 c 128,-1,34
 330 755 330 755 330 771.5 c 0,35,36
 330 788 330 788 342 800.5 c 128,-1,37
 354 813 354 813 371 813 c 128,-1,38
 388 813 388 813 400 801 c 128,-1,39
 412 789 412 789 412 772 c 128,-1,40
 412 755 412 755 400 743 c 128,-1,32
 388 731 388 731 371 731 c 128,-1,33
EndSplineSet
EndChar

StartChar: iotadieresis
Encoding: 970 970 159
Width: 278
Flags: HMW
HStem: 0 21G<85 176 85 85> 497 20G 610 104
VStem: 85 91<0 501> 115 85
LayerCount: 2
Fore
SplineSet
176 0 m 1,0,-1
 85 0 l 1,1,-1
 85 501 l 1,2,-1
 176 501 l 1,3,-1
 176 0 l 1,0,-1
100 579 m 128,-1,5
 100 562 100 562 88 550.5 c 128,-1,6
 76 539 76 539 59 539 c 128,-1,7
 42 539 42 539 30.5 550.5 c 128,-1,8
 19 562 19 562 19 579 c 128,-1,9
 19 596 19 596 30.5 608 c 128,-1,10
 42 620 42 620 59 620 c 128,-1,11
 76 620 76 620 88 608 c 128,-1,4
 100 596 100 596 100 579 c 128,-1,5
200 539 m 128,-1,13
 183 539 183 539 171 551 c 128,-1,14
 159 563 159 563 159 579.5 c 0,15,16
 159 596 159 596 171.5 608.5 c 128,-1,17
 184 621 184 621 200.5 621 c 0,18,19
 217 621 217 621 229 609 c 128,-1,20
 241 597 241 597 241 580 c 128,-1,21
 241 563 241 563 229 551 c 128,-1,12
 217 539 217 539 200 539 c 128,-1,13
EndSplineSet
EndChar

StartChar: upsilondieresis
Encoding: 971 971 160
Width: 495
Flags: HMW
HStem: -12 75 0 21G 497 20G
VStem: 108 80 253 101 419 85 449 85
LayerCount: 2
Fore
SplineSet
242 579 m 128,-1,1
 242 562 242 562 230 550.5 c 128,-1,2
 218 539 218 539 201 539 c 128,-1,3
 184 539 184 539 172.5 550.5 c 128,-1,4
 161 562 161 562 161 579 c 128,-1,5
 161 596 161 596 172.5 608 c 128,-1,6
 184 620 184 620 201 620 c 128,-1,7
 218 620 218 620 230 608 c 128,-1,0
 242 596 242 596 242 579 c 128,-1,1
342 539 m 128,-1,9
 325 539 325 539 313 551 c 128,-1,10
 301 563 301 563 301 579.5 c 0,11,12
 301 596 301 596 313.5 608.5 c 128,-1,13
 326 621 326 621 342.5 621 c 0,14,15
 359 621 359 621 371 609 c 128,-1,16
 383 597 383 597 383 580 c 128,-1,17
 383 563 383 563 371 551 c 128,-1,8
 359 539 359 539 342 539 c 128,-1,9
367 205 m 2,18,-1
 367 501 l 1,19,-1
 458 501 l 1,20,-1
 458 172 l 2,21,22
 458 -10 458 -10 268 -10 c 0,23,24
 78 -10 78 -10 78 172 c 2,25,-1
 78 501 l 1,26,-1
 169 501 l 1,27,-1
 169 204 l 2,28,29
 169 135 169 135 189.5 107.5 c 128,-1,30
 210 80 210 80 267.5 80 c 0,31,32
 325 80 325 80 346 108 c 128,-1,33
 367 136 367 136 367 205 c 2,18,-1
EndSplineSet
EndChar

StartChar: Iotadieresis
Encoding: 938 938 161
Width: 378
Flags: HMW
VStem: 86 63<0 700> 150 56
LayerCount: 2
Fore
SplineSet
166 771 m 128,-1,1
 166 754 166 754 154 742.5 c 128,-1,2
 142 731 142 731 125 731 c 128,-1,3
 108 731 108 731 96.5 742.5 c 128,-1,4
 85 754 85 754 85 771 c 128,-1,5
 85 788 85 788 96.5 800 c 128,-1,6
 108 812 108 812 125 812 c 128,-1,7
 142 812 142 812 154 800 c 128,-1,0
 166 788 166 788 166 771 c 128,-1,1
266 731 m 128,-1,9
 249 731 249 731 237 743 c 128,-1,10
 225 755 225 755 225 771.5 c 0,11,12
 225 788 225 788 237.5 800.5 c 128,-1,13
 250 813 250 813 266.5 813 c 0,14,15
 283 813 283 813 295 801 c 128,-1,16
 307 789 307 789 307 772 c 128,-1,17
 307 755 307 755 295 743 c 128,-1,8
 283 731 283 731 266 731 c 128,-1,9
241 0 m 1,18,-1
 149 0 l 1,19,-1
 149 612 l 1,20,-1
 86 614 l 1,21,-1
 86 700 l 1,22,-1
 241 700 l 1,23,-1
 241 0 l 1,18,-1
EndSplineSet
EndChar

StartChar: Psi
Encoding: 936 936 162
Width: 632
Flags: HMW
VStem: 277 78
LayerCount: 2
Fore
SplineSet
363 0 m 1,0,-1
 273 0 l 1,1,-1
 272 212 l 1,2,-1
 244 212 l 2,3,4
 149 212 149 212 102.5 263.5 c 128,-1,5
 56 315 56 315 56 406 c 2,6,-1
 56 700 l 1,7,-1
 147 700 l 1,8,-1
 147 425 l 2,9,10
 147 353 147 353 168 322.5 c 128,-1,11
 189 292 189 292 244 292 c 2,12,-1
 272 292 l 1,13,-1
 272 700 l 1,14,-1
 363 700 l 1,15,-1
 363 292 l 1,16,-1
 395 292 l 2,17,18
 450 292 450 292 471.5 323.5 c 128,-1,19
 493 355 493 355 493 427 c 2,20,-1
 493 564 l 2,21,22
 493 603 493 603 489 617 c 128,-1,23
 485 631 485 631 483.5 637 c 128,-1,24
 482 643 482 643 476 650 c 128,-1,25
 470 657 470 657 468 659 c 128,-1,26
 466 661 466 661 457.5 667.5 c 128,-1,27
 449 674 449 674 447 676 c 1,28,-1
 527 709 l 1,29,30
 554 692 554 692 567 662.5 c 128,-1,31
 580 633 580 633 581.5 612 c 128,-1,32
 583 591 583 591 583 549 c 2,33,-1
 583 406 l 2,34,35
 583 315 583 315 536.5 263.5 c 128,-1,36
 490 212 490 212 395 212 c 2,37,-1
 363 212 l 1,38,-1
 363 0 l 1,0,-1
EndSplineSet
EndChar

StartChar: psi
Encoding: 968 968 163
Width: 643
Flags: HMW
VStem: 273 78
LayerCount: 2
Fore
SplineSet
384 -219 m 1,0,-1
 293 -206 l 1,1,-1
 293 -5 l 1,2,-1
 266 -5 l 2,3,4
 171 -5 171 -5 124.5 46.5 c 128,-1,5
 78 98 78 98 78 189 c 2,6,-1
 78 500 l 1,7,-1
 168 500 l 1,8,-1
 168 219 l 2,9,10
 168 147 168 147 189.5 114 c 128,-1,11
 211 81 211 81 266 81 c 2,12,-1
 293 81 l 1,13,-1
 293 500 l 1,14,-1
 384 500 l 1,15,-1
 384 81 l 1,16,-1
 417 81 l 2,17,18
 472 81 472 81 493.5 114 c 128,-1,19
 515 147 515 147 515 219 c 2,20,-1
 515 361 l 2,21,22
 515 401.5 515 401.5 510 415.25 c 128,-1,23
 505 429 505 429 503 436 c 128,-1,24
 501 443 501 443 494.5 450.5 c 128,-1,25
 488 458 488 458 485.5 460.5 c 128,-1,26
 483 463 483 463 474.5 469.5 c 128,-1,27
 466 476 466 476 464 478 c 1,28,-1
 549 506 l 1,29,30
 576 489 576 489 589 459.5 c 128,-1,31
 602 430 602 430 603.5 409 c 128,-1,32
 605 388 605 388 605 346 c 2,33,-1
 605 189 l 2,34,35
 605 98 605 98 558.5 46.5 c 128,-1,36
 512 -5 512 -5 417 -5 c 2,37,-1
 384 -5 l 1,38,-1
 384 -219 l 1,0,-1
EndSplineSet
EndChar

StartChar: omega
Encoding: 969 969 164
Width: 635
Flags: HMW
VStem: 260 78
LayerCount: 2
Fore
SplineSet
507 189 m 2,0,-1
 507 327 l 2,1,2
 507 378 507 378 491 404.5 c 128,-1,3
 475 431 475 431 441 444 c 1,4,-1
 491 500 l 1,5,6
 598 460 598 460 598 317 c 2,7,-1
 598 188 l 2,8,9
 598 -12 598 -12 437 -12 c 0,10,11
 367 -12 367 -12 332 41 c 1,12,13
 295 -12 295 -12 227 -12 c 0,14,15
 66 -12 66 -12 66 188 c 2,16,-1
 66 317 l 2,17,18
 66 460 66 460 173 500 c 1,19,-1
 224 444 l 1,20,21
 157 419 157 419 157 327 c 2,22,-1
 157 189 l 2,23,24
 157 80 157 80 224 80 c 0,25,26
 257 80 257 80 270 102.5 c 128,-1,27
 283 125 283 125 285 182 c 1,28,-1
 285 299 l 1,29,-1
 377 299 l 1,30,-1
 377 182 l 1,31,32
 378 125 378 125 392 102.5 c 128,-1,33
 406 80 406 80 440 80 c 0,34,35
 507 80 507 80 507 189 c 2,0,-1
EndSplineSet
EndChar

StartChar: chi
Encoding: 967 967 165
Width: 624
Flags: HMW
HStem: 0 21G 272 21G 279 21G 497 20G
VStem: 138 500
LayerCount: 2
Fore
SplineSet
588 -151 m 1,0,-1
 544 -212 l 2,1,2
 543.163265306 -212.010204082 543.163265306 -212.010204082 542.329862557 -212.010204082 c 0,3,4
 461.489795918 -212.010204082 461.489795918 -212.010204082 412 -116 c 1,5,-1
 310 92 l 1,6,-1
 159 -204 l 1,7,-1
 78 -169 l 1,8,-1
 263 189 l 1,9,-1
 108 501 l 1,10,-1
 207 501 l 1,11,-1
 312 284 l 1,12,-1
 423 501 l 1,13,-1
 526 501 l 1,14,-1
 358 187 l 1,15,-1
 484 -72 l 1,16,17
 516 -145 516 -145 588 -151 c 1,0,-1
EndSplineSet
EndChar

StartChar: Chi
Encoding: 935 935 166
Width: 667
Flags: HMW
HStem: 0 21G<78 191 78 78 515 630 515 515> 694 20G
VStem: 89 472 92 522<700 700>
LayerCount: 2
Fore
SplineSet
630 0 m 1,0,-1
 515 0 l 1,1,-1
 351 261 l 1,2,-1
 191 0 l 1,3,-1
 78 0 l 1,4,-1
 297 351 l 1,5,-1
 92 700 l 1,6,-1
 199 700 l 1,7,-1
 355 446 l 1,8,-1
 507 700 l 1,9,-1
 614 700 l 1,10,-1
 410 357 l 1,11,-1
 630 0 l 1,0,-1
EndSplineSet
EndChar

StartChar: phi
Encoding: 966 966 167
Width: 642
Flags: HMW
VStem: 131 79
LayerCount: 2
Fore
SplineSet
386 -216 m 1,0,-1
 294 -203 l 1,1,-1
 294 -5 l 1,2,-1
 266 -5 l 2,3,4
 171 -5 171 -5 124.5 46.5 c 128,-1,5
 78 98 78 98 78 189 c 2,6,-1
 78 314 l 2,7,8
 78 466 78 466 194 503 c 1,9,-1
 243 433 l 1,10,11
 206 425 206 425 187 399 c 128,-1,12
 168 373 168 373 168 314 c 2,13,-1
 168 217 l 2,14,15
 168 145 168 145 189.5 113 c 128,-1,16
 211 81 211 81 266 81 c 2,17,-1
 294 81 l 1,18,-1
 294 401 l 1,19,20
 297 450 297 450 333 478.5 c 128,-1,21
 369 507 369 507 418 507 c 0,22,23
 505 507 505 507 555 452.5 c 128,-1,24
 605 398 605 398 605 307 c 2,25,-1
 605 189 l 2,26,27
 605 98 605 98 558.5 46.5 c 128,-1,28
 512 -5 512 -5 417 -5 c 2,29,-1
 386 -5 l 1,30,-1
 386 -216 l 1,0,-1
386 81 m 1,31,-1
 417 81 l 2,32,33
 472 81 472 81 493 112 c 128,-1,34
 514 143 514 143 514 215 c 2,35,-1
 514 312 l 2,36,37
 514 376 514 376 491.5 404 c 128,-1,38
 469 432 469 432 440.5 432 c 0,39,40
 412 432 412 432 399 418 c 128,-1,41
 386 404 386 404 386 384 c 2,42,-1
 386 81 l 1,31,-1
EndSplineSet
EndChar

StartChar: upsilon
Encoding: 965 965 168
Width: 483
Flags: HMW
HStem: -12 75 0 21G 497 20G
VStem: 241 101 407 85
LayerCount: 2
Fore
SplineSet
355 205 m 2,0,-1
 355 501 l 1,1,-1
 446 501 l 1,2,-1
 446 172 l 2,3,4
 446 -10 446 -10 256 -10 c 0,5,6
 66 -10 66 -10 66 172 c 2,7,-1
 66 501 l 1,8,-1
 157 501 l 1,9,-1
 157 204 l 2,10,11
 157 135 157 135 177.5 107.5 c 128,-1,12
 198 80 198 80 255.5 80 c 0,13,14
 313 80 313 80 334 108 c 128,-1,15
 355 136 355 136 355 205 c 2,0,-1
EndSplineSet
EndChar

StartChar: Upsilon
Encoding: 933 933 169
Width: 556
Flags: HMW
HStem: 0 21G 694 20G
VStem: 60 56 60 91<427 430 430 700> 278 95 413 91<160 246 246 246 363 700> 447 57
LayerCount: 2
Fore
SplineSet
370 -15 m 1,0,-1
 343 53 l 1,1,2
 413 66 413 66 413 160 c 2,3,-1
 413 246 l 1,4,5
 364 212 364 212 289 212 c 0,6,7
 185 212 185 212 122.5 269 c 128,-1,8
 60 326 60 326 60 427 c 2,9,-1
 60 700 l 1,10,-1
 151 700 l 1,11,-1
 151 430 l 2,12,13
 151 366 151 366 187 334 c 128,-1,14
 223 302 223 302 281.5 302 c 0,15,16
 340 302 340 302 371.5 319.5 c 128,-1,17
 403 337 403 337 413 363 c 1,18,-1
 413 700 l 1,19,-1
 504 700 l 1,20,-1
 504 156 l 2,21,22
 504 0 504 0 370 -15 c 1,0,-1
EndSplineSet
EndChar

StartChar: Tau
Encoding: 932 932 170
Width: 517
Flags: HMW
HStem: 0 21G<231 322 231 231> 634 80
VStem: 112 79 231 91<0 610> 248 56 318 95
LayerCount: 2
Fore
SplineSet
322 0 m 1,0,-1
 231 0 l 1,1,-1
 231 610 l 1,2,-1
 78 610 l 1,3,-1
 78 700 l 1,4,-1
 480 700 l 1,5,-1
 480 610 l 1,6,-1
 322 610 l 1,7,-1
 322 0 l 1,0,-1
EndSplineSet
EndChar

StartChar: tau
Encoding: 964 964 171
Width: 416
Flags: HMW
HStem: 0 21G 497 20G 620 55
VStem: 108 190 120 85
LayerCount: 2
Fore
SplineSet
335 47 m 1,0,-1
 299 -18 l 1,1,2
 180 14 180 14 180 132 c 2,3,-1
 180 415 l 1,4,-1
 78 415 l 1,5,-1
 78 500 l 1,6,-1
 379 500 l 1,7,-1
 379 415 l 1,8,-1
 271 415 l 1,9,-1
 271 142 l 2,10,11
 271 69 271 69 335 47 c 1,0,-1
EndSplineSet
EndChar

StartChar: Sigma
Encoding: 931 931 172
Width: 583
Flags: HMW
HStem: 0 80 634 80
VStem: 109 568 118 487
LayerCount: 2
Fore
SplineSet
401 0 m 2,0,-1
 78 0 l 1,1,-1
 304 384 l 1,2,-1
 94 702 l 1,3,-1
 522 702 l 1,4,-1
 494 611 l 1,5,-1
 261 611 l 1,6,-1
 412 387 l 1,7,-1
 232 83 l 1,8,-1
 379 83 l 2,9,10
 417 83 417 83 437.5 96.5 c 128,-1,11
 458 110 458 110 470 145 c 1,12,-1
 546 106 l 1,13,14
 530 50 530 50 495 25 c 128,-1,15
 460 0 460 0 401 0 c 2,0,-1
EndSplineSet
EndChar

StartChar: sigma
Encoding: 963 963 173
Width: 560
Flags: HMW
HStem: -12 75 417 78 620 55
VStem: 208 341 237 103 459 90
LayerCount: 2
Fore
SplineSet
451 310 m 2,0,-1
 451 175 l 2,1,2
 451 -19 451 -19 266 -19 c 0,3,4
 171 -19 171 -19 124.5 32.5 c 128,-1,5
 78 84 78 84 78 175 c 2,6,-1
 78 354 l 2,7,8
 78 402 78 402 96.5 435.5 c 128,-1,9
 115 469 115 469 145 484 c 0,10,11
 194.259259259 508.62962963 194.259259259 508.62962963 247.62962963 508.62962963 c 1,12,-1
 286 505 l 1,13,14
 318.625 499.9375 318.625 499.9375 342.28125 499.9375 c 128,-1,15
 365.9375 499.9375 365.9375 499.9375 383 503 c 0,16,17
 422 510 422 510 458 543 c 1,18,-1
 523 495 l 1,19,20
 510 468 510 468 482.5 446.5 c 128,-1,21
 455 425 455 425 425 417 c 1,22,23
 451 386 451 386 451 310 c 2,0,-1
328 415 m 0,24,25
 277.997222222 423.511111111 277.997222222 423.511111111 244.270833333 423.511111111 c 128,-1,26
 210.544444444 423.511111111 210.544444444 423.511111111 190.272222222 401.755555556 c 128,-1,27
 170 380 170 380 170 334 c 2,28,-1
 170 186 l 2,29,30
 170 75 170 75 265 75 c 0,31,32
 314 75 314 75 336.5 101 c 128,-1,33
 359 127 359 127 359 186 c 2,34,-1
 359 300 l 2,35,36
 359 335 359 335 351.5 363.5 c 128,-1,37
 344 392 344 392 337.5 403.5 c 128,-1,38
 331 415 331 415 328 415 c 0,24,25
EndSplineSet
EndChar

StartChar: sigma1
Encoding: 962 962 174
Width: 426
Flags: HMW
HStem: -12 75 454 75
VStem: 81 104
LayerCount: 2
Fore
SplineSet
362 -150 m 1,0,-1
 293 -111 l 1,1,2
 306.761904762 -94.8095238095 306.761904762 -94.8095238095 306.761904762 -69.4444444444 c 0,3,4
 306.761904762 -25.9761904762 306.761904762 -25.9761904762 270 -3 c 0,5,6
 230.833333333 20.5 230.833333333 20.5 218.916666667 28.75 c 128,-1,7
 207 37 207 37 188 50 c 128,-1,8
 169 63 169 63 162 69.5 c 128,-1,9
 155 76 155 76 139.5 89.5 c 128,-1,10
 124 103 124 103 118 112 c 128,-1,11
 112 121 112 121 102 135.5 c 128,-1,12
 92 150 92 150 88.5 163 c 0,13,14
 78 202 78 202 78 227 c 2,15,-1
 78 367 l 2,16,17
 78 420 78 420 119.5 462.5 c 128,-1,18
 161 505 161 505 250 505 c 0,19,20
 282 505 282 505 310 498.5 c 128,-1,21
 338 492 338 492 350 485 c 2,22,-1
 362 478 l 1,23,-1
 338 399 l 1,24,25
 305 423 305 423 254.5 423 c 128,-1,26
 204 423 204 423 187 399.5 c 128,-1,27
 170 376 170 376 170 332 c 2,28,-1
 170 252 l 2,29,30
 170 206 170 206 183 178.5 c 128,-1,31
 196 151 196 151 224 127.5 c 128,-1,32
 252 104 252 104 323 59 c 0,33,34
 363 34 363 34 376.210227273 -0.943181818182 c 128,-1,35
 389.420454545 -35.8863636364 389.420454545 -35.8863636364 389.420454545 -54.9772727273 c 0,36,37
 389.420454545 -109.590909091 389.420454545 -109.590909091 362 -150 c 1,0,-1
EndSplineSet
EndChar

StartChar: Rho
Encoding: 929 929 175
Width: 549
Flags: HMW
HStem: 0 21G<78 169 78 78> 0 610<78 295 78 295> 292 80 634 80 647 53
VStem: 70 56 78 95 169 0<0 0 212 212 300 300 610 610> 312 109 448 56 515 95
LayerCount: 2
Fore
SplineSet
169 300 m 1,0,-1
 299 300 l 2,1,2
 343.588235294 300 343.588235294 300 378 322.5 c 0,3,4
 394.661097852 333.393794749 394.661097852 333.393794749 412.5 377 c 0,5,6
 421 397.777777778 421 397.777777778 421 423.388888889 c 2,7,8
 421 470 l 2,9,10
 421 548 421 548 389 579 c 128,-1,11
 357 610 357 610 295 610 c 2,12,-1
 169 610 l 1,13,-1
 169 300 l 1,0,-1
169 0 m 1,14,-1
 78 0 l 1,15,-1
 78 700 l 1,16,-1
 312 700 l 2,17,18
 413 700 413 700 462.5 636 c 128,-1,19
 512 572 512 572 512 471 c 0,20,21
 512 212 512 212 321 212 c 2,22,-1
 169 212 l 1,23,-1
 169 0 l 1,14,-1
EndSplineSet
EndChar

StartChar: rho
Encoding: 961 961 176
Width: 488
Flags: HMW
HStem: -195 21G<168 168> -12 75 454 63 454 75
VStem: 229 103
LayerCount: 2
Fore
SplineSet
168 -195 m 1,0,-1
 78 -211 l 1,1,-1
 78 315 l 2,2,3
 78 404 78 404 127 455.5 c 128,-1,4
 176 507 176 507 268.5 507 c 0,5,6
 361 507 361 507 406 453.5 c 128,-1,7
 451 400 451 400 451 307 c 2,8,-1
 451 172 l 2,9,10
 451 84 451 84 404.5 37 c 128,-1,11
 358 -10 358 -10 266 -10 c 0,12,13
 201 -10 201 -10 168 18 c 1,14,-1
 168 -195 l 1,0,-1
359 183 m 2,15,-1
 359 303 l 2,16,17
 359 370 359 370 334.5 396 c 128,-1,18
 310 422 310 422 264 422 c 0,19,20
 169 422 169 422 169 304 c 2,21,-1
 169 183 l 2,22,23
 169 77 169 77 266 77 c 0,24,25
 314 77 314 77 336.5 102 c 128,-1,26
 359 127 359 127 359 183 c 2,15,-1
EndSplineSet
EndChar

StartChar: Pi
Encoding: 928 928 177
Width: 581
Flags: HMW
HStem: 0 21G<80 171 80 80 419 510 419 419> 327 80 634 80 694 20G
VStem: 80 91<0 609 0 700> 249 95 291 105 419 91<0 609 609 609>
LayerCount: 2
Fore
SplineSet
510 0 m 1,0,-1
 419 0 l 1,1,-1
 419 609 l 1,2,-1
 171 609 l 1,3,-1
 171 0 l 1,4,-1
 80 0 l 1,5,-1
 80 700 l 1,6,-1
 510 700 l 1,7,-1
 510 0 l 1,0,-1
EndSplineSet
EndChar

StartChar: Omicron
Encoding: 927 927 178
Width: 543
Flags: HMW
HStem: -17 80 620 96<228 316.5> 651 80
VStem: 54 56 62 91<185 198 198 487> 62 95 261 81 391 91<199 486 486 506> 419 55 651 95
LayerCount: 2
Fore
SplineSet
482 506 m 2,0,-1
 482 185 l 2,1,2
 482 84 482 84 420.5 36.5 c 128,-1,3
 359 -11 359 -11 273 -11 c 128,-1,4
 187 -11 187 -11 124.5 36.5 c 128,-1,5
 62 84 62 84 62 185 c 2,6,-1
 62 507 l 2,7,8
 62 610 62 610 118.5 663 c 128,-1,9
 175 716 175 716 274 716 c 128,-1,10
 373 716 373 716 427.5 660 c 128,-1,11
 482 604 482 604 482 506 c 2,0,-1
391 199 m 2,12,-1
 391 486 l 2,13,14
 391 552 391 552 363.5 586 c 128,-1,15
 336 620 336 620 272 620 c 128,-1,16
 208 620 208 620 180.5 586.5 c 128,-1,17
 153 553 153 553 153 487 c 2,18,-1
 153 198 l 2,19,20
 153 142 153 142 184.5 111 c 128,-1,21
 216 80 216 80 271 80 c 0,22,23
 326 80 326 80 358.5 111.5 c 128,-1,24
 391 143 391 143 391 199 c 2,12,-1
EndSplineSet
EndChar

StartChar: omicron
Encoding: 959 959 179
Width: 488
Flags: HMW
HStem: -12 75 -10 432<241.5 288.5 241.5 332> 78 434<238.5 294> 454 75
VStem: 78 90 78 283<184 316 316 360.5 174 379> 169 282<141.5 174 174 184 184 316> 490 90
LayerCount: 2
Fore
SplineSet
451 316 m 2,0,-1
 451 184 l 2,1,2
 451 100 451 100 405 45 c 128,-1,3
 359 -10 359 -10 266 -10 c 128,-1,4
 173 -10 173 -10 125.5 45.5 c 128,-1,5
 78 101 78 101 78 184 c 2,6,-1
 78 316 l 2,7,8
 78 411 78 411 126.5 461.5 c 128,-1,9
 175 512 175 512 264 512 c 0,10,11
 353 512 353 512 402 459.5 c 128,-1,12
 451 407 451 407 451 316 c 2,0,-1
361 174 m 2,13,-1
 361 316 l 2,14,15
 361 422 361 422 266 422 c 0,16,17
 169 422 169 422 169 316 c 2,18,-1
 169 174 l 2,19,20
 169 127 169 127 196 102.5 c 128,-1,21
 223 78 223 78 266 78 c 128,-1,22
 309 78 309 78 335 103 c 128,-1,23
 361 128 361 128 361 174 c 2,13,-1
EndSplineSet
EndChar

StartChar: xi
Encoding: 958 958 180
Width: 417
Flags: HMW
VStem: 203 78
LayerCount: 2
Fore
SplineSet
184.5 114.5 m 128,-1,1
 201 90 201 90 224.954545455 85.3636363636 c 128,-1,2
 248.909090909 80.7272727273 248.909090909 80.7272727273 279.506493506 80.7272727273 c 128,-1,3
 310.103896104 80.7272727273 310.103896104 80.7272727273 380 102 c 1,4,-1
 380 -192 l 1,5,-1
 290 -218 l 1,6,-1
 290 -1 l 1,7,8
 274.421052632 -2.68421052632 274.421052632 -2.68421052632 256.447368421 -2.68421052632 c 128,-1,9
 238.473684211 -2.68421052632 238.473684211 -2.68421052632 211.236842105 1.65789473684 c 128,-1,10
 184 6 184 6 151 23 c 128,-1,11
 118 40 118 40 98 76 c 128,-1,12
 78 112 78 112 78 164 c 2,13,-1
 78 348 l 2,14,15
 78 415 78 415 115 457 c 128,-1,16
 152 499 152 499 194 507 c 1,17,18
 163.375 537.625 163.375 537.625 163.375 584.25 c 0,19,20
 163.375 648.713235294 163.375 648.713235294 221 686 c 0,21,22
 255 708 255 708 300 708 c 2,23,-1
 345 708 l 1,24,-1
 324 613 l 1,25,-1
 301 613 l 2,26,27
 255.578947368 613 255.578947368 613 255.578947368 572.574792244 c 0,28,29
 255.578947368 543.684210526 255.578947368 543.684210526 286 524 c 0,30,31
 303 512 303 512 358 494 c 1,32,-1
 332 416 l 1,33,34
 289.217391304 428.52173913 289.217391304 428.52173913 257.595463138 428.52173913 c 0,35,36
 168 428.52173913 168 428.52173913 168 328 c 2,37,-1
 168 182 l 2,38,0
 168 139 168 139 184.5 114.5 c 128,-1,1
EndSplineSet
EndChar

StartChar: Xi
Encoding: 926 926 181
Width: 624
Flags: HMW
HStem: 0 80 595 106 634 80 817 55
VStem: 109 568 165 56 442 121
LayerCount: 2
Fore
SplineSet
469 325 m 1,0,-1
 205 325 l 1,1,-1
 205 413 l 1,2,-1
 469 413 l 1,3,-1
 469 325 l 1,0,-1
527 611 m 1,4,-1
 237 611 l 2,5,6
 162 611 162 611 143 557 c 1,7,-1
 78 595 l 1,8,9
 94 651 94 651 129 676 c 128,-1,10
 164 701 164 701 223 701 c 2,11,-1
 548 701 l 1,12,-1
 527 611 l 1,4,-1
442 0 m 2,13,-1
 117 0 l 1,14,-1
 144 84 l 1,15,-1
 416 84 l 2,16,17
 455 84 455 84 477.5 97.5 c 128,-1,18
 500 111 500 111 512 145 c 1,19,-1
 587 106 l 1,20,21
 571 50 571 50 536 25 c 128,-1,22
 501 0 501 0 442 0 c 2,13,-1
EndSplineSet
EndChar

StartChar: Nu
Encoding: 925 925 182
Width: 643
Flags: HMW
HStem: 0 135 0 186<480 572 480 480> 516 184<80 171> 573 141 597 103
VStem: 72 56 80 91<0 516 0 700> 81 90 234 79 480 92<0 0 186 700> 560 90
LayerCount: 2
Fore
SplineSet
572 0 m 1,0,-1
 480 0 l 1,1,-1
 171 516 l 1,2,-1
 171 0 l 1,3,-1
 80 0 l 1,4,-1
 80 700 l 1,5,-1
 171 700 l 1,6,-1
 480 186 l 1,7,-1
 480 700 l 1,8,-1
 572 700 l 1,9,-1
 572 0 l 1,0,-1
EndSplineSet
EndChar

StartChar: nu
Encoding: 957 957 183
Width: 525
Flags: HMW
HStem: 0 86 497 20G
VStem: 78 410<501 501> 282 42
LayerCount: 2
Fore
SplineSet
331 0 m 1,0,-1
 236 0 l 1,1,-1
 78 501 l 1,2,-1
 177 501 l 1,3,-1
 284 147 l 1,4,-1
 390 501 l 1,5,-1
 488 501 l 1,6,-1
 331 0 l 1,0,-1
EndSplineSet
EndChar

StartChar: Mu
Encoding: 924 924 184
Width: 687
Flags: HMW
HStem: 0 114 0 184<80 347 347 347 347 385 309 347 347 616 347 525> 427 273<80 171> 535 165 594 120
VStem: 72 56 80 91<0 427 0 700> 525 91<0 428 428 428> 552 56 701 90
LayerCount: 2
Fore
SplineSet
616 0 m 1,0,-1
 525 0 l 1,1,-1
 525 428 l 1,2,-1
 385 0 l 1,3,-1
 309 0 l 1,4,-1
 171 427 l 1,5,-1
 171 0 l 1,6,-1
 80 0 l 1,7,-1
 80 700 l 1,8,-1
 171 700 l 1,9,-1
 347 184 l 1,10,-1
 525 700 l 1,11,-1
 616 700 l 1,12,-1
 616 0 l 1,0,-1
EndSplineSet
EndChar

StartChar: Lambda
Encoding: 923 923 185
Width: 529
Flags: HMW
HStem: 0 95 694 20G
VStem: 5 614 119 301<0 0>
LayerCount: 2
Fore
SplineSet
523 0 m 1,0,-1
 420 0 l 1,1,-1
 268 510 l 1,2,-1
 119 0 l 1,3,-1
 18 0 l 1,4,-1
 226 700 l 1,5,-1
 311 700 l 1,6,-1
 523 0 l 1,0,-1
EndSplineSet
EndChar

StartChar: lambda
Encoding: 955 955 186
Width: 592
Flags: HMW
HStem: -207 75 -198 21G 497 20G
VStem: 79 484
LayerCount: 2
Fore
SplineSet
555 37 m 1,0,-1
 497 -17 l 1,1,2
 448 -6 448 -6 419.5 23 c 128,-1,3
 391 52 391 52 375 105 c 2,4,-1
 291 382 l 1,5,6
 271 369 271 369 247 278 c 2,7,-1
 175 0 l 1,8,-1
 78 0 l 1,9,-1
 186 372 l 1,10,11
 205.973977695 429.70260223 205.973977695 429.70260223 217.486988848 444.851301115 c 128,-1,12
 229 460 229 460 232 464.5 c 128,-1,13
 235 469 235 469 247 479 c 2,14,-1
 259 489 l 1,15,-1
 236 560 l 2,16,17
 223 597 223 597 205.5 612 c 128,-1,18
 188 627 188 627 153 629 c 1,19,-1
 173 700 l 1,20,21
 175.392156863 700.039215686 175.392156863 700.039215686 177.741253364 700.039215686 c 0,22,23
 235.294117647 700.039215686 235.294117647 700.039215686 267.647058824 676.019607843 c 128,-1,24
 300 652 300 652 320 593 c 1,25,-1
 456 144 l 1,26,27
 476.026990553 81.9163292848 476.026990553 81.9163292848 505.5 61 c 0,28,29
 525.428571429 46.8571428571 525.428571429 46.8571428571 555 37 c 1,0,-1
EndSplineSet
EndChar

StartChar: kappa
Encoding: 954 954 187
Width: 506
Flags: HMW
HStem: 0 21G<78 169 78 78> 497 20G 694 20G
VStem: 80 101
LayerCount: 2
Fore
SplineSet
469 79 m 1,0,-1
 448 -1 l 1,1,2
 413 -1 413 -1 383 17.5 c 128,-1,3
 353 36 353 36 337.5 54 c 128,-1,4
 322 72 322 72 294 110 c 2,5,-1
 206 231 l 1,6,-1
 169 196 l 1,7,-1
 169 0 l 1,8,-1
 78 0 l 1,9,-1
 78 512 l 1,10,-1
 169 499 l 1,11,-1
 169 312 l 1,12,-1
 342 501 l 1,13,-1
 456 501 l 1,14,-1
 272 299 l 1,15,-1
 381 145 l 1,16,17
 429 81 429 81 469 79 c 1,0,-1
EndSplineSet
EndChar

StartChar: Kappa
Encoding: 922 922 188
Width: 547
Flags: HMW
HStem: 0 21G<78 174 78 78 398 510 398 398> 694 20G
VStem: 77 95 78 96<0 268 427 701>
LayerCount: 2
Fore
SplineSet
510 0 m 1,0,-1
 398 0 l 1,1,-1
 196 301 l 1,2,-1
 174 268 l 1,3,-1
 174 0 l 1,4,-1
 78 0 l 1,5,-1
 78 701 l 1,6,-1
 174 701 l 1,7,-1
 174 427 l 1,8,-1
 358 701 l 1,9,-1
 467 701 l 1,10,-1
 250 384 l 1,11,-1
 510 0 l 1,0,-1
EndSplineSet
EndChar

StartChar: Iota
Encoding: 921 921 189
Width: 306
Flags: HMW
HStem: 0 21G<143 235 143 143> 694 20G
VStem: 143 92<0 612 612 612> 151 56 163 95
LayerCount: 2
Fore
SplineSet
235 0 m 1,0,-1
 143 0 l 1,1,-1
 143 612 l 1,2,-1
 80 614 l 1,3,-1
 80 700 l 1,4,-1
 235 700 l 1,5,-1
 235 0 l 1,0,-1
EndSplineSet
EndChar

StartChar: iota
Encoding: 953 953 190
Width: 194
Flags: HMW
HStem: 0 21G<66 157 66 66> 497 20G 610 104
VStem: 66 91<0 501> 94 85
LayerCount: 2
Fore
SplineSet
157 0 m 1,0,-1
 66 0 l 1,1,-1
 66 501 l 1,2,-1
 157 501 l 1,3,-1
 157 0 l 1,0,-1
EndSplineSet
EndChar

StartChar: theta
Encoding: 952 952 191
Width: 503
Flags: HMW
HStem: -12 75 620 55 634 75
VStem: 107 341 232 102 424 90
LayerCount: 2
Fore
SplineSet
442 505 m 2,0,-1
 442 191 l 2,1,2
 442 102 442 102 392.5 48 c 128,-1,3
 343 -6 343 -6 251.5 -5.5 c 128,-1,4
 160 -5 160 -5 111 48.5 c 128,-1,5
 62 102 62 102 62 191 c 2,6,-1
 62 341 l 1,7,8
 64 405 64 405 115 438 c 1,9,10
 80.8947368421 504.315789474 80.8947368421 504.315789474 80.8947368421 562.105263158 c 0,11,12
 80.8947368421 627.146453089 80.8947368421 627.146453089 127.947368421 668.573226545 c 128,-1,13
 175 710 175 710 250 710 c 1,14,15
 345 708 345 708 393.5 654 c 128,-1,16
 442 600 442 600 442 505 c 2,0,-1
352 191 m 2,17,-1
 352 418 l 1,18,19
 275 415 275 415 213.5 387.5 c 128,-1,20
 152 360 152 360 152 321 c 2,21,-1
 152 185 l 2,22,23
 152 148 152 148 172.5 123 c 0,24,25
 199.666956522 89.8695652174 199.666956522 89.8695652174 250.717391304 89.8695652174 c 1,26,-1
 281.5 93 l 1,27,28
 311 99 311 99 331.5 125.5 c 128,-1,29
 352 152 352 152 352 191 c 2,17,-1
197 477 m 1,30,31
 269.243243243 506.432432432 269.243243243 506.432432432 335.918188459 506.432432432 c 0,32,33
 344 506.432432432 344 506.432432432 352 506 c 1,34,35
 352 565 352 565 325 593.5 c 128,-1,36
 298 622 298 622 254 622 c 0,37,38
 194 622 194 622 177.5 579 c 0,39,40
 172.314285714 565.485714286 172.314285714 565.485714286 172.314285714 550.391020408 c 0,41,42
 172.314285714 517.457142857 172.314285714 517.457142857 197 477 c 1,30,31
EndSplineSet
EndChar

StartChar: Theta
Encoding: 920 920 192
Width: 557
Flags: HMW
HStem: -17 80 199 517<248 429> 238 80 651 80
VStem: 92 56 99 379 100 91<185 198 198 306 390 487> 100 95 299 81 429 91<199 306 306 306 390 486 486 506> 457 55 689 95
LayerCount: 2
Fore
SplineSet
520 506 m 2,0,-1
 520 185 l 2,1,2
 520 84 520 84 458.5 36.5 c 128,-1,3
 397 -11 397 -11 311 -11 c 128,-1,4
 225 -11 225 -11 162.5 36.5 c 128,-1,5
 100 84 100 84 100 185 c 2,6,-1
 100 507 l 2,7,8
 100 610 100 610 156.5 663 c 128,-1,9
 213 716 213 716 312 716 c 128,-1,10
 411 716 411 716 465.5 660 c 128,-1,11
 520 604 520 604 520 506 c 2,0,-1
429 390 m 1,12,-1
 429 486 l 2,13,14
 429 552 429 552 401.5 586 c 128,-1,15
 374 620 374 620 310 620 c 128,-1,16
 246 620 246 620 218.5 586.5 c 128,-1,17
 191 553 191 553 191 487 c 2,18,-1
 191 390 l 1,19,-1
 429 390 l 1,12,-1
429 199 m 2,20,-1
 429 306 l 1,21,-1
 191 306 l 1,22,-1
 191 198 l 2,23,24
 191 142 191 142 222.5 111 c 128,-1,25
 254 80 254 80 309 80 c 0,26,27
 364 80 364 80 396.5 111.5 c 128,-1,28
 429 143 429 143 429 199 c 2,20,-1
EndSplineSet
EndChar

StartChar: Eta
Encoding: 919 919 193
Width: 581
Flags: HMW
HStem: 0 21G<80 171 80 80 420 510 420 420> 327 80 694 20G
VStem: 72 56 80 91<0 325 0 413 413 700> 289 78 420 90<0 325 325 325 413 700> 446 56 551 95
LayerCount: 2
Fore
SplineSet
510 0 m 1,0,-1
 420 0 l 1,1,-1
 420 325 l 1,2,-1
 171 325 l 1,3,-1
 171 0 l 1,4,-1
 80 0 l 1,5,-1
 80 700 l 1,6,-1
 171 700 l 1,7,-1
 171 413 l 1,8,-1
 420 413 l 1,9,-1
 420 700 l 1,10,-1
 510 700 l 1,11,-1
 510 0 l 1,0,-1
EndSplineSet
EndChar

StartChar: eta
Encoding: 951 951 194
Width: 484
Flags: HMW
HStem: 0 21G<78 168 78 78> 454 75 497 20G
VStem: 247 101 421 85
LayerCount: 2
Fore
SplineSet
167 486 m 1,0,1
 203.23125 509.375 203.23125 509.375 261.615625 509.375 c 128,-1,2
 320 509.375 320 509.375 362 491 c 0,3,4
 447 452 447 452 447 346 c 2,5,-1
 447 -210 l 1,6,-1
 357 -186 l 1,7,-1
 357 343 l 2,8,9
 357 387 357 387 329.524509804 407.490196078 c 128,-1,10
 302.049019608 427.980392157 302.049019608 427.980392157 260.090277778 427.980392157 c 128,-1,11
 218.131535948 427.980392157 218.131535948 427.980392157 168 400 c 1,12,-1
 168 0 l 1,13,-1
 78 0 l 1,14,-1
 78 501 l 1,15,-1
 163 501 l 1,16,-1
 167 486 l 1,0,1
EndSplineSet
EndChar

StartChar: zeta
Encoding: 950 950 195
Width: 491
Flags: HMW
VStem: 138 79
LayerCount: 2
Fore
SplineSet
407 -183 m 1,0,-1
 316 -209 l 1,1,-1
 316 3 l 1,2,3
 289.644859813 -1.20560747664 289.644859813 -1.20560747664 265.60869945 -1.20560747664 c 0,4,5
 203.91588785 -1.20560747664 203.91588785 -1.20560747664 157.5 26.5 c 0,6,7
 78.0303030303 73.9354005168 78.0303030303 73.9354005168 78.0303030303 177.313131313 c 0,8,9
 78.0303030303 260.634920635 78.0303030303 260.634920635 114 336 c 0,10,11
 178 470 178 470 318 612 c 1,12,-1
 146 612 l 1,13,-1
 146 700 l 1,14,-1
 418 700 l 1,15,-1
 454 618 l 1,16,17
 325 516 325 516 224 341 c 0,18,19
 174.109375 253.1925 174.109375 253.1925 174.109375 187.960449219 c 0,20,21
 174.109375 140.890625 174.109375 140.890625 201.432347074 113.003823138 c 128,-1,22
 228.755319149 85.1170212766 228.755319149 85.1170212766 283.856382979 85.1170212766 c 128,-1,23
 338.957446809 85.1170212766 338.957446809 85.1170212766 407 103 c 1,24,-1
 407 -183 l 1,0,-1
EndSplineSet
EndChar

StartChar: Zeta
Encoding: 918 918 196
Width: 602
Flags: HMW
HStem: 0 80 634 80
VStem: 69 568 78 487<0 83 83 83>
LayerCount: 2
Fore
SplineSet
565 0 m 1,0,-1
 78 0 l 1,1,-1
 78 83 l 1,2,-1
 444 611 l 1,3,-1
 91 611 l 1,4,-1
 91 700 l 1,5,-1
 559 700 l 1,6,-1
 559 611 l 1,7,-1
 192 85 l 1,8,-1
 565 85 l 1,9,-1
 565 0 l 1,0,-1
EndSplineSet
EndChar

StartChar: Epsilon
Encoding: 917 917 197
Width: 449
Flags: HMW
HStem: 0 82<169 410 169 410> 327 80 610 90<169 412 169 169> 634 80
VStem: 78 91<82 325 413 610>
LayerCount: 2
Fore
SplineSet
410 0 m 1,0,-1
 78 0 l 1,1,-1
 78 700 l 1,2,-1
 412 700 l 1,3,-1
 412 610 l 1,4,-1
 169 610 l 1,5,-1
 169 413 l 1,6,-1
 325 413 l 1,7,-1
 298 325 l 1,8,-1
 169 325 l 1,9,-1
 169 82 l 1,10,-1
 410 82 l 1,11,-1
 410 0 l 1,0,-1
EndSplineSet
EndChar

StartChar: epsilon
Encoding: 949 949 198
Width: 460
Flags: HMW
HStem: -12 75 336 68 634 75
VStem: 68 85 80 101 428 90
LayerCount: 2
Fore
SplineSet
265.222222222 429.666666667 m 0,0,1
 187.960784314 429.666666667 187.960784314 429.666666667 187.960784314 365.740868897 c 0,2,3
 187.960784314 338.254901961 187.960784314 338.254901961 211.980392157 319.62745098 c 128,-1,4
 236 301 236 301 276 301 c 2,5,-1
 352 301 l 1,6,-1
 325 213 l 1,7,-1
 262 213 l 2,8,9
 169 213 169 213 169 152 c 0,10,11
 169 117 169 117 194.820512821 98.9743589744 c 128,-1,12
 220.641025641 80.9487179487 220.641025641 80.9487179487 266.933596318 80.9487179487 c 0,13,14
 333.747252747 80.9487179487 333.747252747 80.9487179487 381 103 c 2,15,-1
 396 110 l 1,16,-1
 423 23 l 1,17,18
 345 -11 345 -11 260.5 -11 c 128,-1,19
 176 -11 176 -11 130 30 c 0,20,21
 78.3950617284 75.9957058508 78.3950617284 75.9957058508 78.3950617284 149.504801097 c 0,22,23
 78.3950617284 239.543209877 78.3950617284 239.543209877 146 277 c 1,24,25
 125 292 125 292 111.181818182 322.659090909 c 128,-1,26
 97.3636363636 353.318181818 97.3636363636 353.318181818 97.3636363636 371.977272727 c 128,-1,27
 97.3636363636 390.636363636 97.3636363636 390.636363636 99 401 c 0,28,29
 106 455 106 455 149.254237288 483.016949153 c 128,-1,30
 192.508474576 511.033898305 192.508474576 511.033898305 243.883797759 511.033898305 c 0,31,32
 297.159806295 511.033898305 297.159806295 511.033898305 353 496 c 1,33,-1
 355 414 l 1,34,35
 308 429.666666667 308 429.666666667 265.222222222 429.666666667 c 0,0,1
EndSplineSet
EndChar

StartChar: delta
Encoding: 948 948 199
Width: 488
Flags: HMW
HStem: -12 75 817 55
VStem: 127 341 239 102 459 90
LayerCount: 2
Fore
SplineSet
183 492 m 1,0,1
 144.34939759 528.50334672 144.34939759 528.50334672 144.34939759 578.441432396 c 128,-1,2
 144.34939759 628.379518072 144.34939759 628.379518072 182.174698795 666.689759036 c 128,-1,3
 220 705 220 705 293 705 c 2,4,-1
 344 705 l 1,5,-1
 323 612 l 1,6,-1
 284 612 l 2,7,8
 265 612 265 612 254.409722222 600.986111111 c 128,-1,9
 243.819444444 589.972222222 243.819444444 589.972222222 243.819444444 580.520833333 c 0,10,11
 243.819444444 547.872519841 243.819444444 547.872519841 281.409722222 521.936259921 c 128,-1,12
 319 496 319 496 335 484.5 c 128,-1,13
 351 473 351 473 379.5 447.5 c 128,-1,14
 408 422 408 422 419.5 402.5 c 0,15,16
 451 349.086956522 451 349.086956522 451 288 c 2,17,-1
 451 184 l 2,18,19
 451 -10 451 -10 266 -10 c 0,20,21
 171 -10 171 -10 124.5 41.5 c 128,-1,22
 78 93 78 93 78 184 c 2,23,-1
 78 310 l 2,24,25
 78 386 78 386 107.5 432 c 128,-1,26
 137 478 137 478 183 492 c 1,0,1
361 177 m 2,27,-1
 361 272 l 2,28,29
 361 374 361 374 261 427 c 1,30,31
 205 422 205 422 186.5 388 c 128,-1,32
 168 354 168 354 168 295 c 2,33,-1
 168 177 l 2,34,35
 168 128 168 128 196.5 102.5 c 128,-1,36
 225 77 225 77 265.5 77 c 128,-1,37
 306 77 306 77 333.5 100 c 128,-1,38
 361 123 361 123 361 177 c 2,27,-1
EndSplineSet
EndChar

StartChar: _196
Encoding: 65540 -1 200
Width: 620
Flags: HMW
HStem: 0 21G<78 583 78 78> 0 65 245 55 622 91
VStem: 97 586 137 386
LayerCount: 2
Fore
SplineSet
583 0 m 1,0,-1
 78 0 l 1,1,-1
 281 700 l 1,2,-1
 371 700 l 1,3,-1
 583 0 l 1,0,-1
460 83 m 1,4,-1
 329 528 l 1,5,-1
 201 83 l 1,6,-1
 460 83 l 1,4,-1
EndSplineSet
EndChar

StartChar: Gamma
Encoding: 915 915 201
Width: 449
Flags: HMW
HStem: 0 21G<78 170 78 78> 327 80 634 80
VStem: 79 105
LayerCount: 2
Fore
SplineSet
170 0 m 1,0,-1
 78 0 l 1,1,-1
 78 700 l 1,2,-1
 412 700 l 1,3,-1
 412 610 l 1,4,-1
 170 610 l 1,5,-1
 170 0 l 1,0,-1
EndSplineSet
EndChar

StartChar: gamma
Encoding: 947 947 202
Width: 479
Flags: HMW
HStem: 0 21G 0 86 497 20G
VStem: 14 472 207 85
LayerCount: 2
Fore
SplineSet
268 -47 m 1,0,1
 252.2 -91.9692307692 252.2 -91.9692307692 252.2 -129.72 c 0,2,3
 252.2 -141.84 252.2 -141.84 267 -167 c 1,4,-1
 191 -198 l 1,5,6
 160.611111111 -168.877314815 160.611111111 -168.877314815 160.611111111 -113.825617284 c 0,7,8
 160.611111111 -86 160.611111111 -86 170 -60 c 1,9,-1
 193 12 l 1,10,11
 192 13 192 13 182.5 20.5 c 128,-1,12
 173 28 173 28 171 30.5 c 128,-1,13
 169 33 169 33 160.5 43 c 128,-1,14
 152 53 152 53 147 63 c 0,15,16
 130.5 96 130.5 96 120 129 c 2,17,-1
 12 501 l 1,18,-1
 109 501 l 1,19,-1
 181 223 l 2,20,21
 205 132 205 132 225 119 c 1,22,-1
 309 396 l 2,23,24
 325 449 325 449 353.5 478 c 128,-1,25
 382 507 382 507 431 518 c 1,26,-1
 489 464 l 1,27,28
 433.696969697 445.565656566 433.696969697 445.565656566 412 408.5 c 0,29,30
 400 388 400 388 390 357 c 2,31,-1
 268 -47 l 1,0,1
EndSplineSet
EndChar

StartChar: beta
Encoding: 946 946 203
Width: 485
Flags: HMW
HStem: -15 21G<168 168> -12 75 359 68 656 75
VStem: 85 101 416 90 448 90
LayerCount: 2
Fore
SplineSet
232.1 -18.4 m 128,-1,1
 215.6 -18.4 215.6 -18.4 168 -15 c 1,2,-1
 168 -161 l 1,3,-1
 78 -161 l 1,4,-1
 78 537 l 2,5,6
 78 612 78 612 117 656.5 c 128,-1,7
 156 701 156 701 228 701 c 0,8,9
 274 701 274 701 309 677.5 c 0,10,11
 368.315789474 637.673684211 368.315789474 637.673684211 368.315789474 569.231301939 c 0,12,13
 368.315789474 518.639097744 368.315789474 518.639097744 334 488 c 1,14,15
 382 474 382 474 415 434.5 c 128,-1,16
 448 395 448 395 448 330 c 2,17,-1
 448 146 l 2,18,19
 448 42.9411764706 448 42.9411764706 369.5 6 c 0,20,21
 325.42384106 -14.7417218543 325.42384106 -14.7417218543 287.01192053 -16.5708609272 c 128,-1,0
 248.6 -18.4 248.6 -18.4 232.1 -18.4 c 128,-1,1
168 80 m 1,22,23
 227.564814815 71.4907407407 227.564814815 71.4907407407 268.013888889 71.4907407407 c 128,-1,24
 308.462962963 71.4907407407 308.462962963 71.4907407407 333.231481481 97.7453703704 c 128,-1,25
 358 124 358 124 358 181 c 2,26,-1
 358 307 l 2,27,28
 358 351 358 351 340.5 377 c 128,-1,29
 323 403 323 403 301.315217391 407.565217391 c 128,-1,30
 279.630434783 412.130434783 279.630434783 412.130434783 263.672022684 412.130434783 c 0,31,32
 217.769021739 412.130434783 217.769021739 412.130434783 168 388 c 1,33,-1
 168 80 l 1,22,23
168 530 m 2,34,-1
 168 478 l 1,35,36
 198 493 198 493 239 505 c 1,37,38
 279 518.333333333 279 518.333333333 279 557.833333333 c 0,39,40
 279 574.166666667 279 574.166666667 266.5 592.083333333 c 128,-1,41
 254 610 254 610 223.5 610 c 128,-1,42
 193 610 193 610 180.5 590 c 128,-1,43
 168 570 168 570 168 530 c 2,34,-1
EndSplineSet
EndChar

StartChar: Beta
Encoding: 914 914 204
Width: 548
Flags: HMW
HStem: 0 80 84 0<169 169 269 269> 327 80 413 0<169 169 257 257> 413 234 634 80
VStem: 78 56 78 91<84 84 84 325 413 610> 78 95 169 306<84 584.5 413 584.5 505.5 584.5 505.5 610> 169 342<84 256 158.5 256 158.5 325 158.5 413 158.5 610> 417 58 515 95
LayerCount: 2
Fore
SplineSet
301 0 m 2,0,-1
 78 0 l 1,1,-1
 78 700 l 1,2,-1
 288 700 l 2,3,4
 370 700 370 700 422.5 655 c 128,-1,5
 475 610 475 610 475 521 c 128,-1,6
 475 432 475 432 409 387 c 0,7,8
 408 386 408 386 408 385 c 2,9,-1
 408 384 l 1,10,11
 452 364 452 364 481.5 319.5 c 128,-1,12
 511 275 511 275 511 206 c 0,13,14
 511 127.304347826 511 127.304347826 467 68 c 0,15,16
 444 37 444 37 401.5 18.5 c 128,-1,17
 359 0 359 0 301 0 c 2,0,-1
169 413 m 1,18,-1
 257 413 l 2,19,20
 371 413 371 413 371 514 c 0,21,22
 371 568 371 568 343 589 c 128,-1,23
 315 610 315 610 262 610 c 2,24,-1
 169 610 l 1,25,-1
 169 413 l 1,18,-1
169 84 m 1,26,-1
 269 84 l 2,27,28
 337 84 337 84 372.5 109.5 c 128,-1,29
 408 135 408 135 408 203 c 128,-1,30
 408 271 408 271 372 298 c 128,-1,31
 336 325 336 325 281 325 c 2,32,-1
 169 325 l 1,33,-1
 169 84 l 1,26,-1
EndSplineSet
EndChar

StartChar: Alpha
Encoding: 913 913 205
Width: 523
Flags: HMW
HStem: 0 21G<18 119 18 18 411 517 411 411> 215 80 245 55 628 86
VStem: -7 663 119 292<0 0>
LayerCount: 2
Fore
SplineSet
517 0 m 1,0,-1
 411 0 l 1,1,-1
 356 205 l 1,2,-1
 172 205 l 1,3,-1
 119 0 l 1,4,-1
 18 0 l 1,5,-1
 203 700 l 1,6,-1
 322 700 l 1,7,-1
 517 0 l 1,0,-1
334 300 m 1,8,-1
 262 550 l 1,9,-1
 194 300 l 1,10,-1
 334 300 l 1,8,-1
EndSplineSet
EndChar

StartChar: alpha
Encoding: 945 945 206
Width: 510
Flags: HMW
HStem: -198 21G -12 75 454 63 454 75
VStem: 243 103 481 85
LayerCount: 2
Fore
SplineSet
225.472222222 506.083333333 m 0,0,1
 293.677083333 506.083333333 293.677083333 506.083333333 358 479 c 1,2,-1
 370 510 l 1,3,-1
 450 486 l 1,4,5
 443 421 443 421 443 389 c 2,6,-1
 443 77 l 1,7,8
 449 49 449 49 473 35 c 1,9,-1
 391 1 l 2,10,11
 388 0 388 0 379 3.5 c 128,-1,12
 370 7 370 7 368 7 c 0,13,14
 309.968421053 -8.68421052632 309.968421053 -8.68421052632 275.957894737 -8.68421052632 c 128,-1,15
 241.947368421 -8.68421052632 241.947368421 -8.68421052632 209.973684211 -4.34210526316 c 128,-1,16
 178 0 178 0 148 17.5 c 128,-1,17
 118 35 118 35 98 73.5 c 128,-1,18
 78 112 78 112 78 169 c 2,19,-1
 78 354 l 2,20,21
 78 423 78 423 109 461 c 128,-1,22
 140 499 140 499 187 504 c 0,23,24
 206.583333333 506.083333333 206.583333333 506.083333333 225.472222222 506.083333333 c 0,0,1
351 395 m 1,25,26
 291.34375 421.513888889 291.34375 421.513888889 235.814429012 421.513888889 c 0,27,28
 206.472222222 421.513888889 206.472222222 421.513888889 187.736111111 404.256944444 c 128,-1,29
 169 387 169 387 169 351 c 2,30,-1
 169 194 l 2,31,32
 169 122 169 122 208 93 c 0,33,34
 228.563636364 77.7090909091 228.563636364 77.7090909091 265.2 77.7090909091 c 128,-1,35
 301.836363636 77.7090909091 301.836363636 77.7090909091 351 90 c 1,36,-1
 351 395 l 1,25,26
EndSplineSet
EndChar

StartChar: upsilondieresistonos
Encoding: 944 944 207
Width: 495
Flags: HMW
HStem: -12 75 0 21G 497 20G
VStem: 70 82 253 101 411 85 419 85
LayerCount: 2
Fore
SplineSet
213 582 m 128,-1,1
 213 566 213 566 201 554 c 128,-1,2
 189 542 189 542 172.5 542 c 128,-1,3
 156 542 156 542 144 554 c 128,-1,4
 132 566 132 566 132 582.5 c 128,-1,5
 132 599 132 599 144 611 c 128,-1,6
 156 623 156 623 172 623 c 128,-1,7
 188 623 188 623 200.5 610.5 c 128,-1,0
 213 598 213 598 213 582 c 128,-1,1
398 554 m 128,-1,9
 386 542 386 542 369.5 542 c 128,-1,10
 353 542 353 542 341 553.5 c 128,-1,11
 329 565 329 565 329 582 c 128,-1,12
 329 599 329 599 341 611 c 128,-1,13
 353 623 353 623 370 623 c 128,-1,14
 387 623 387 623 398.5 611 c 128,-1,15
 410 599 410 599 410 582.5 c 128,-1,8
 410 566 410 566 398 554 c 128,-1,9
296 576 m 1,16,-1
 233 576 l 1,17,-1
 281 687 l 2,18,19
 292.952 716.88 292.952 716.88 325.5232 716.88 c 0,20,21
 333.28 716.88 333.28 716.88 340 714 c 0,22,23
 363.842105263 703.961218837 363.842105263 703.961218837 363.842105263 684.770083102 c 128,-1,24
 363.842105263 665.578947368 363.842105263 665.578947368 352 649 c 2,25,-1
 296 576 l 1,16,-1
367 205 m 2,26,-1
 367 501 l 1,27,-1
 458 501 l 1,28,-1
 458 172 l 2,29,30
 458 -10 458 -10 268 -10 c 128,-1,31
 78 -10 78 -10 78 172 c 2,32,-1
 78 501 l 1,33,-1
 169 501 l 1,34,-1
 169 204 l 2,35,36
 169 135 169 135 189.5 107.5 c 128,-1,37
 210 80 210 80 267.5 80 c 128,-1,38
 325 80 325 80 346 108 c 128,-1,39
 367 136 367 136 367 205 c 2,26,-1
EndSplineSet
EndChar

StartChar: iotadieresistonos
Encoding: 912 912 208
Width: 393
Flags: HMW
HStem: 0 21G<169 260 169 169> 497 20G 576 143 610 104
VStem: 170 85
LayerCount: 2
Fore
SplineSet
260 0 m 1,0,-1
 169 0 l 1,1,-1
 169 501 l 1,2,-1
 260 501 l 1,3,-1
 260 0 l 1,0,-1
242 576 m 1,4,-1
 179 576 l 1,5,-1
 227 687 l 2,6,7
 238.952 716.88 238.952 716.88 271.5232 716.88 c 0,8,9
 279.28 716.88 279.28 716.88 286 714 c 0,10,11
 309.842105263 703.961218837 309.842105263 703.961218837 309.842105263 684.770083102 c 128,-1,12
 309.842105263 665.578947368 309.842105263 665.578947368 298 649 c 2,13,-1
 242 576 l 1,4,-1
345 611 m 128,-1,15
 357 599 357 599 357 582.5 c 128,-1,16
 357 566 357 566 345 554 c 128,-1,17
 333 542 333 542 316 542 c 128,-1,18
 299 542 299 542 287 553.5 c 128,-1,19
 275 565 275 565 275 582 c 128,-1,20
 275 599 275 599 287 611 c 128,-1,21
 299 623 299 623 316 623 c 128,-1,14
 333 623 333 623 345 611 c 128,-1,15
159 582 m 128,-1,23
 159 565 159 565 147 553.5 c 128,-1,24
 135 542 135 542 118.5 542 c 128,-1,25
 102 542 102 542 90 554 c 128,-1,26
 78 566 78 566 78 582.5 c 128,-1,27
 78 599 78 599 90 611 c 128,-1,28
 102 623 102 623 118.5 623 c 128,-1,29
 135 623 135 623 147 611 c 128,-1,22
 159 599 159 599 159 582 c 128,-1,23
EndSplineSet
EndChar

StartChar: Alphatonos
Encoding: 902 902 209
Width: 623
Flags: HMW
HStem: 0 21G<87 188 87 87 480 586 480 480> 245 55 567 143 569 143
VStem: 140 386 188 292<0 0>
LayerCount: 2
Fore
SplineSet
586 0 m 1,0,-1
 480 0 l 1,1,-1
 425 205 l 1,2,-1
 241 205 l 1,3,-1
 188 0 l 1,4,-1
 87 0 l 1,5,-1
 272 700 l 1,6,-1
 391 700 l 1,7,-1
 586 0 l 1,0,-1
403 300 m 1,8,-1
 331 550 l 1,9,-1
 263 300 l 1,10,-1
 403 300 l 1,8,-1
143 567 m 1,11,-1
 80 567 l 1,12,-1
 128 678 l 2,13,14
 139.952 707.88 139.952 707.88 172.5232 707.88 c 0,15,16
 180.28 707.88 180.28 707.88 187 705 c 0,17,18
 210.538461538 694.538461538 210.538461538 694.538461538 210.538461538 675.346153846 c 128,-1,19
 210.538461538 656.153846154 210.538461538 656.153846154 199 640 c 2,20,-1
 143 567 l 1,11,-1
EndSplineSet
EndChar

StartChar: sterling
Encoding: 163 163 210
Width: 475
Flags: HMW
HStem: 0 80 435 80 694 20G
VStem: 78 360<0 83 83 83> 101 320<303 393 303 393>
LayerCount: 2
Fore
SplineSet
283.25 228.40625 m 0,0,1
 283.25 149.307692308 283.25 149.307692308 231 85 c 1,2,-1
 438 85 l 1,3,-1
 438 0 l 1,4,-1
 78 0 l 1,5,-1
 78 83 l 1,6,7
 132 92 132 92 162 130 c 128,-1,8
 192 168 192 168 192 225 c 0,9,10
 192 254 192 254 178 303 c 1,11,-1
 101 303 l 1,12,-1
 101 393 l 1,13,-1
 149 393 l 1,14,15
 125 465 125 465 125 515 c 0,16,17
 125 602 125 602 179.5 655.5 c 128,-1,18
 234 709 234 709 310.5 709 c 128,-1,19
 387 709 387 709 427 684 c 1,20,-1
 399 602 l 1,21,22
 361 623 361 623 313 623 c 128,-1,23
 265 623 265 623 240 588 c 128,-1,24
 215 553 215 553 215 515 c 128,-1,25
 215 477 215 477 242 393 c 1,26,-1
 421 393 l 1,27,-1
 421 303 l 1,28,-1
 271 303 l 1,29,30
 283.25 255.75 283.25 255.75 283.25 228.40625 c 0,0,1
EndSplineSet
EndChar

StartChar: w_w_w
Encoding: 65541 -1 211
Width: 1870
Flags: HMW
HStem: 0 21G<172 269 172 172 434 529 434 434 749 846 749 749 1011 1106 1011 1011 1335 1431 1335 1335 1597 1692 1597 1597> 481 20G<14 113 113 113 311 398 398 398 590 690 690 690 888 975 975 975 1169 1275 1275 1275 1473 1561 1561 1561 1754 1851 1851 1851>
LayerCount: 2
Fore
SplineSet
1381 132 m 1,0,-1
 1473 501 l 1,1,-1
 1561 501 l 1,2,-1
 1649 139 l 1,3,-1
 1754 501 l 1,4,-1
 1851 501 l 1,5,-1
 1692 0 l 1,6,-1
 1597 0 l 1,7,8
 1583 53 1583 53 1555.5 158 c 128,-1,9
 1528 263 1528 263 1514 315 c 1,10,11
 1487 210 1487 210 1431 0 c 1,12,-1
 1335 0 l 1,13,14
 1316 60 1316 60 1278 180.5 c 128,-1,15
 1240 301 1240 301 1221 361 c 1,16,17
 1119.66666667 41 1119.66666667 41 1106 0 c 1,18,-1
 1011 0 l 1,19,20
 957 210 957 210 929 315 c 1,21,22
 910.484848485 239.515151515 910.484848485 239.515151515 846 0 c 1,23,-1
 749 0 l 1,24,25
 694 178 694 178 640 348 c 1,26,-1
 529 0 l 1,27,-1
 434 0 l 1,28,29
 412.666666667 85.3333333333 412.666666667 85.3333333333 352 315 c 1,30,31
 296 105 296 105 269 0 c 1,32,-1
 172 0 l 1,33,34
 146 83 146 83 93 250 c 128,-1,35
 40 417 40 417 14 501 c 1,36,-1
 113 501 l 1,37,38
 133 434 133 434 169.5 304 c 128,-1,39
 206 174 206 174 218 132 c 1,40,41
 311 501 l 1,42,-1
 398 501 l 1,43,44
 414 442 414 442 445 316.5 c 128,-1,45
 476 191 476 191 491 132 c 1,46,47
 506 185 506 185 536 299.5 c 128,-1,48
 566 414 566 414 574.5 444 c 0,49,50
 590 498.705882353 590 498.705882353 590 501 c 1,51,-1
 690 501 l 1,52,53
 708 442 708 442 743.5 316.5 c 128,-1,54
 779 191 779 191 796 132 c 1,55,-1
 888 501 l 1,56,-1
 975 501 l 1,57,58
 990 442 990 442 1021 316.5 c 128,-1,59
 1052 191 1052 191 1068 132 c 1,60,-1
 1169 501 l 1,61,-1
 1275 501 l 1,62,63
 1293 442 1293 442 1328.5 316.5 c 128,-1,64
 1364 191 1364 191 1381 132 c 1,0,-1
EndSplineSet
EndChar

StartChar: f_t
Encoding: 65542 -1 212
Width: 537
Flags: HMW
HStem: -13 21G<440 440> 0 21G<78 170 78 78> 415 86<170 243 170 267 396 476>
VStem: 78 92<0 415 501 532 532 549> 304 92<132 415 501 603 603 603>
LayerCount: 2
Fore
SplineSet
304 603 m 1,0,1
 278.676691729 623.047619048 278.676691729 623.047619048 247.278822055 623.047619048 c 128,-1,2
 215.880952381 623.047619048 215.880952381 623.047619048 192.94047619 603.523809524 c 128,-1,3
 170 584 170 584 170 549 c 2,4,-1
 170 501 l 1,5,-1
 267 501 l 1,6,-1
 243 415 l 1,7,-1
 170 415 l 1,8,-1
 170 0 l 1,9,-1
 78 0 l 1,10,-1
 78 532 l 2,11,12
 78 643 78 643 161.5 686.5 c 0,13,14
 198.753846154 705.907692308 198.753846154 705.907692308 255.561538462 705.907692308 c 128,-1,15
 312.369230769 705.907692308 312.369230769 705.907692308 396 676 c 1,16,-1
 396 501 l 1,17,-1
 500 501 l 1,18,-1
 476 415 l 1,19,-1
 396 415 l 1,20,-1
 396 132 l 2,21,22
 396 69 396 69 467 59 c 1,23,-1
 440 -13 l 1,24,25
 304 -1 304 -1 304 132 c 2,26,-1
 304 603 l 1,0,1
EndSplineSet
EndChar

StartChar: t_t
Encoding: 65543 -1 213
Width: 497
Flags: HMW
HStem: 0 75 442 75
VStem: 49 85 364 85
LayerCount: 2
Fore
SplineSet
441 59 m 1,0,-1
 414 -13 l 1,1,2
 278 -1 278 -1 278 132 c 2,3,-1
 278 415 l 1,4,-1
 136 415 l 1,5,-1
 136 132 l 2,6,7
 136 69 136 69 207 59 c 1,8,-1
 180 -13 l 1,9,10
 44 -1 44 -1 44 132 c 2,11,-1
 44 700 l 1,12,-1
 136 700 l 1,13,-1
 136 501 l 1,14,-1
 278 501 l 1,15,-1
 278 700 l 1,16,-1
 371 700 l 1,17,-1
 371 501 l 1,18,-1
 474 501 l 1,19,20
 466 473 466 473 450 415 c 1,21,-1
 371 415 l 1,22,-1
 371 132 l 2,23,24
 371 69 371 69 441 59 c 1,0,-1
EndSplineSet
EndChar

StartChar: f_f
Encoding: 64256 64256 214
Width: 564
Flags: HMW
HStem: 0 21G<78 170 78 78 312 405 312 312> 448 53 658 49
VStem: 100 56 335 56
LayerCount: 2
Fore
SplineSet
320 596 m 1,0,1
 290.278074866 614.045454545 290.278074866 614.045454545 257.502673797 614.045454545 c 128,-1,2
 224.727272727 614.045454545 224.727272727 614.045454545 197.363636364 593.522727273 c 128,-1,3
 170 573 170 573 170 539 c 2,4,-1
 170 501 l 1,5,-1
 267 501 l 1,6,-1
 243 415 l 1,7,-1
 170 415 l 1,8,-1
 170 0 l 1,9,-1
 78 0 l 1,10,-1
 78 522 l 2,11,12
 78 630 78 630 158.5 678.5 c 0,13,14
 198.543589744 702.625641026 198.543589744 702.625641026 252.597435897 702.625641026 c 128,-1,15
 306.651282051 702.625641026 306.651282051 702.625641026 375 678 c 1,16,17
 410.644736842 702.328947368 410.644736842 702.328947368 449.5 702.328947368 c 128,-1,18
 488.355263158 702.328947368 488.355263158 702.328947368 527 688 c 1,19,-1
 502 605 l 1,20,21
 485.304347826 614.391304348 485.304347826 614.391304348 469.173913043 614.391304348 c 128,-1,22
 453.043478261 614.391304348 453.043478261 614.391304348 437.5 606.5 c 0,23,24
 405 590 405 590 405 539 c 2,25,-1
 405 501 l 1,26,-1
 501 501 l 1,27,-1
 477 415 l 1,28,-1
 405 415 l 1,29,-1
 405 0 l 1,30,-1
 312 0 l 1,31,-1
 312 532 l 2,32,33
 312 566 312 566 320 596 c 1,0,1
EndSplineSet
EndChar

StartChar: f_f_l
Encoding: 64260 64260 215
Width: 665
Flags: HMW
HStem: 0 21G<78 170 78 78 312 405 312 312 535 628 535 535>
VStem: 563 56
LayerCount: 2
Fore
SplineSet
375 678 m 1,0,1
 415.748582231 705.565217391 415.748582231 705.565217391 483.048204159 705.565217391 c 128,-1,2
 550.347826087 705.565217391 550.347826087 705.565217391 628 679 c 1,3,-1
 628 0 l 1,4,-1
 535 0 l 1,5,-1
 535 604 l 1,6,7
 512.45 616.1 512.45 616.1 490.9875 616.1 c 128,-1,8
 469.525 616.1 469.525 616.1 449.5 608 c 0,9,10
 405 590 405 590 405 542 c 2,11,-1
 405 501 l 1,12,-1
 501 501 l 1,13,14
 493 473 493 473 477 415 c 1,15,-1
 405 415 l 1,16,-1
 405 0 l 1,17,-1
 312 0 l 1,18,-1
 312 532 l 2,19,20
 312 566 312 566 320 596 c 1,21,22
 290.278074866 614.045454545 290.278074866 614.045454545 257.502673797 614.045454545 c 128,-1,23
 224.727272727 614.045454545 224.727272727 614.045454545 197.363636364 593.522727273 c 128,-1,24
 170 573 170 573 170 539 c 2,25,-1
 170 501 l 1,26,-1
 267 501 l 1,27,28
 259 473 259 473 243 415 c 1,29,-1
 170 415 l 1,30,-1
 170 0 l 1,31,-1
 78 0 l 1,32,-1
 78 497 l 2,33,34
 78 530 78 530 81 558 c 0,35,36
 93 650 93 650 170.5 685.5 c 0,37,38
 205.547770701 701.554140127 205.547770701 701.554140127 255.49044586 701.554140127 c 128,-1,39
 305.433121019 701.554140127 305.433121019 701.554140127 375 678 c 1,0,1
EndSplineSet
EndChar

StartChar: Hcircumflex
Encoding: 292 292 216
Width: 588
Flags: HMW
HStem: 730 142 825 47
VStem: 78 91<0 325 0 413 413 700> 168 251 287 78 418 90<0 325 325 325 413 700>
LayerCount: 2
Fore
SplineSet
508 0 m 1,0,-1
 418 0 l 1,1,-1
 418 325 l 1,2,-1
 169 325 l 1,3,-1
 169 0 l 1,4,-1
 78 0 l 1,5,-1
 78 700 l 1,6,-1
 169 700 l 1,7,-1
 169 413 l 1,8,-1
 418 413 l 1,9,-1
 418 700 l 1,10,-1
 508 700 l 1,11,-1
 508 0 l 1,0,-1
450 771 m 1,12,-1
 393 732 l 1,13,-1
 307 822 l 1,14,-1
 216 732 l 1,15,-1
 160 771 l 1,16,-1
 308 912 l 1,17,-1
 450 771 l 1,12,-1
EndSplineSet
EndChar

StartChar: Cdotaccent
Encoding: 266 266 217
Width: 432
Flags: HMW
HStem: -12 52 659 51 679 104
VStem: 66 91<183 185 185 504 504 513> 209 100
LayerCount: 2
Fore
SplineSet
412 107 m 1,0,-1
 427 23 l 1,1,2
 341.745951417 -10.0576923077 341.745951417 -10.0576923077 265.350591716 -10.0576923077 c 0,3,4
 248.615384615 -10.0576923077 248.615384615 -10.0576923077 216.307692308 -7.02884615385 c 128,-1,5
 184 -4 184 -4 147.5 15.5 c 128,-1,6
 111 35 111 35 88.5 77.5 c 128,-1,7
 66 120 66 120 66 183 c 2,8,-1
 66 504 l 2,9,10
 66 580 66 580 87.5 619 c 128,-1,11
 109 658 109 658 153 685 c 1,12,13
 198.161290323 710.290322581 198.161290323 710.290322581 259.638917794 710.290322581 c 0,14,15
 336.529032258 710.290322581 336.529032258 710.290322581 402 677 c 1,16,-1
 376 599 l 1,17,18
 328 617 328 617 276.5 617 c 128,-1,19
 225 617 225 617 191 591.5 c 128,-1,20
 157 566 157 566 157 513 c 2,21,-1
 157 185 l 2,22,23
 157 140 157 140 179 115 c 0,24,25
 207.4 82.7272727273 207.4 82.7272727273 269.245454545 82.7272727273 c 128,-1,26
 331.090909091 82.7272727273 331.090909091 82.7272727273 412 107 c 1,0,-1
300 745.5 m 128,-1,28
 285 730 285 730 265.5 730 c 128,-1,29
 246 730 246 730 230.5 745.5 c 128,-1,30
 215 761 215 761 215 780.5 c 128,-1,31
 215 800 215 800 230.5 815 c 128,-1,32
 246 830 246 830 266 830 c 128,-1,33
 286 830 286 830 300.5 815 c 128,-1,34
 315 800 315 800 315 780.5 c 128,-1,27
 315 761 315 761 300 745.5 c 128,-1,28
EndSplineSet
EndChar

StartChar: Ccircumflex
Encoding: 264 264 218
Width: 432
Flags: HMW
HStem: -12 52 659 51 730 142 825 47
VStem: 120 251 402 10
LayerCount: 2
Fore
SplineSet
402 771 m 1,0,-1
 345 732 l 1,1,-1
 259 822 l 1,2,-1
 168 732 l 1,3,-1
 112 771 l 1,4,-1
 260 912 l 1,5,-1
 402 771 l 1,0,-1
412 107 m 1,6,-1
 427 23 l 1,7,8
 341.745951417 -10.0576923077 341.745951417 -10.0576923077 265.350591716 -10.0576923077 c 0,9,10
 248.615384615 -10.0576923077 248.615384615 -10.0576923077 216.307692308 -7.02884615385 c 128,-1,11
 184 -4 184 -4 147.5 15.5 c 128,-1,12
 111 35 111 35 88.5 77.5 c 128,-1,13
 66 120 66 120 66 183 c 2,14,-1
 66 504 l 2,15,16
 66 580 66 580 87.5 619 c 128,-1,17
 109 658 109 658 153 685 c 1,18,19
 198.161290323 710.290322581 198.161290323 710.290322581 259.638917794 710.290322581 c 0,20,21
 336.529032258 710.290322581 336.529032258 710.290322581 402 677 c 1,22,-1
 376 599 l 1,23,24
 328 617 328 617 276.5 617 c 128,-1,25
 225 617 225 617 191 591.5 c 128,-1,26
 157 566 157 566 157 513 c 2,27,-1
 157 185 l 2,28,29
 157 140 157 140 179 115 c 0,30,31
 207.4 82.7272727273 207.4 82.7272727273 269.245454545 82.7272727273 c 128,-1,32
 331.090909091 82.7272727273 331.090909091 82.7272727273 412 107 c 1,6,-1
EndSplineSet
EndChar

StartChar: cdotaccent
Encoding: 267 267 219
Width: 437
Flags: HMW
HStem: -12 51 460 69 487 104
VStem: 78 91<180 308 308 314> 208 100
LayerCount: 2
Fore
SplineSet
289.18 78.8 m 0,0,1
 334.933333333 78.8 334.933333333 78.8 376 92 c 1,2,-1
 400 6 l 1,3,4
 336 -11.0666666667 336 -11.0666666667 284 -11.0666666667 c 128,-1,5
 232 -11.0666666667 232 -11.0666666667 181.5 5.46666666667 c 0,6,7
 78 39.3518151815 78 39.3518151815 78 180 c 2,8,-1
 78 308 l 2,9,10
 78 379 78 379 106 427 c 0,11,12
 154.239130435 509.695652174 154.239130435 509.695652174 263.506616257 509.695652174 c 0,13,14
 329.913043478 509.695652174 329.913043478 509.695652174 398 478 c 1,15,-1
 373 402 l 1,16,17
 321.083333333 422.416666667 321.083333333 422.416666667 285.770833333 422.416666667 c 128,-1,18
 250.458333333 422.416666667 250.458333333 422.416666667 226.5 412 c 0,19,20
 169 387 169 387 169 314 c 2,21,-1
 169 169 l 2,22,23
 169 78.8 169 78.8 289.18 78.8 c 0,0,1
299 553.5 m 128,-1,25
 284 538 284 538 264.5 538 c 128,-1,26
 245 538 245 538 229.5 553.5 c 128,-1,27
 214 569 214 569 214 588.5 c 128,-1,28
 214 608 214 608 229.5 623 c 128,-1,29
 245 638 245 638 264.5 638 c 128,-1,30
 284 638 284 638 299 623 c 128,-1,31
 314 608 314 608 314 588.5 c 128,-1,24
 314 569 314 569 299 553.5 c 128,-1,25
EndSplineSet
EndChar

StartChar: ccircumflex
Encoding: 265 265 220
Width: 439
Flags: HMW
HStem: -12 51 460 69 538 142
VStem: 78 91<180 308 308 314> 120 251
LayerCount: 2
Fore
SplineSet
289.18 78.8 m 0,0,1
 334.933333333 78.8 334.933333333 78.8 376 92 c 1,2,-1
 400 6 l 1,3,4
 336 -11.0666666667 336 -11.0666666667 284 -11.0666666667 c 128,-1,5
 232 -11.0666666667 232 -11.0666666667 181.5 5.46666666667 c 0,6,7
 78 39.3518151815 78 39.3518151815 78 180 c 2,8,-1
 78 308 l 2,9,10
 78 379 78 379 106 427 c 0,11,12
 154.239130435 509.695652174 154.239130435 509.695652174 263.506616257 509.695652174 c 0,13,14
 329.913043478 509.695652174 329.913043478 509.695652174 398 478 c 1,15,-1
 373 402 l 1,16,17
 321.083333333 422.416666667 321.083333333 422.416666667 285.770833333 422.416666667 c 128,-1,18
 250.458333333 422.416666667 250.458333333 422.416666667 226.5 412 c 0,19,20
 169 387 169 387 169 314 c 2,21,-1
 169 169 l 2,22,23
 169 78.8 169 78.8 289.18 78.8 c 0,0,1
402 579 m 1,24,-1
 345 540 l 1,25,-1
 259 630 l 1,26,-1
 168 540 l 1,27,-1
 112 579 l 1,28,-1
 260 720 l 1,29,-1
 402 579 l 1,24,-1
EndSplineSet
EndChar

StartChar: Idotaccent
Encoding: 304 304 221
Width: 320
Flags: HMW
HStem: 679 104
VStem: 134 100 141 92<0 612 612 612>
LayerCount: 2
Fore
SplineSet
233 0 m 1,0,-1
 141 0 l 1,1,-1
 141 612 l 1,2,-1
 78 614 l 1,3,-1
 78 700 l 1,4,-1
 233 700 l 1,5,-1
 233 0 l 1,0,-1
225 745.5 m 128,-1,7
 210 730 210 730 190.5 730 c 128,-1,8
 171 730 171 730 155.5 745.5 c 128,-1,9
 140 761 140 761 140 780.5 c 128,-1,10
 140 800 140 800 155.5 815 c 128,-1,11
 171 830 171 830 190.5 830 c 128,-1,12
 210 830 210 830 225 815 c 128,-1,13
 240 800 240 800 240 780.5 c 128,-1,6
 240 761 240 761 225 745.5 c 128,-1,7
EndSplineSet
EndChar

StartChar: Hbar
Encoding: 294 294 222
Width: 685
Flags: HMW
HStem: 389 80
VStem: 78 527<476 564 476 564> 127 91<0 325 0 413 413 476 564 700> 336 78 467 90<0 325 325 325 413 476 564 700>
LayerCount: 2
Fore
SplineSet
557 0 m 1,0,-1
 467 0 l 1,1,-1
 467 325 l 1,2,-1
 218 325 l 1,3,-1
 218 0 l 1,4,-1
 127 0 l 1,5,-1
 127 476 l 1,6,-1
 78 476 l 1,7,-1
 78 564 l 1,8,-1
 127 564 l 1,9,-1
 127 700 l 1,10,-1
 218 700 l 1,11,-1
 218 564 l 1,12,-1
 467 564 l 1,13,-1
 467 700 l 1,14,-1
 557 700 l 1,15,-1
 557 564 l 1,16,-1
 605 564 l 1,17,-1
 605 476 l 1,18,-1
 557 476 l 1,19,-1
 557 0 l 1,0,-1
467 413 m 1,20,-1
 467 476 l 1,21,-1
 218 476 l 1,22,-1
 218 413 l 1,23,-1
 467 413 l 1,20,-1
EndSplineSet
EndChar

StartChar: Gbreve
Encoding: 286 286 223
Width: 537
Flags: HMW
HStem: -10 30 0 21G<394 476 394 394> 659 51 841 0<163 163 233 233 320 320 389 389> 857 20G
VStem: 65 91<189 503 503 512> 233 156<826 841 841 846> 385 91<20 20>
LayerCount: 2
Fore
SplineSet
476 0 m 1,0,-1
 394 0 l 1,1,-1
 385 20 l 1,2,3
 341 -10 341 -10 276 -10 c 0,4,5
 188 -10 188 -10 126.5 40 c 128,-1,6
 65 90 65 90 65 189 c 2,7,-1
 65 503 l 2,8,9
 65 631 65 631 152 684 c 1,10,11
 197.161290323 709.290322581 197.161290323 709.290322581 258.638917794 709.290322581 c 0,12,13
 335.529032258 709.290322581 335.529032258 709.290322581 401 676 c 1,14,-1
 374 598 l 1,15,16
 323 617 323 617 277 617 c 0,17,18
 156 617 156 617 156 512 c 2,19,-1
 156 187 l 2,20,21
 156 81 156 81 275 81 c 0,22,23
 323 81 323 81 354.5 107 c 128,-1,24
 386 133 386 133 386 186 c 2,25,-1
 386 212 l 1,26,-1
 326 212 l 1,27,-1
 296 300 l 1,28,-1
 476 300 l 1,29,-1
 476 0 l 1,0,-1
389 846 m 1,30,-1
 389 841 l 2,31,32
 389 794 389 794 355.5 761 c 128,-1,33
 322 728 322 728 276 728 c 128,-1,34
 230 728 230 728 196.5 761 c 128,-1,35
 163 794 163 794 163 841 c 2,36,-1
 163 846 l 1,37,-1
 233 846 l 1,38,-1
 233 841 l 2,39,40
 233 819 233 819 245 806.5 c 128,-1,41
 257 794 257 794 276 794 c 128,-1,42
 295 794 295 794 307.5 807 c 128,-1,43
 320 820 320 820 320 841 c 2,44,-1
 320 846 l 1,45,-1
 389 846 l 1,30,-1
EndSplineSet
EndChar

StartChar: Jcircumflex
Encoding: 308 308 224
Width: 273
Flags: HMW
HStem: -17 80 841 0<9 9 79 79 166 166 235 235> 857 20G
VStem: 79 156<826 841 841 846> 88 90<141 612 612 612> 188 78
LayerCount: 2
Fore
SplineSet
19 -37 m 1,0,-1
 -9 37 l 1,1,2
 14 37 14 37 33.5 43 c 128,-1,3
 53 49 53 49 70.5 74 c 128,-1,4
 88 99 88 99 88 141 c 2,5,-1
 88 612 l 1,6,-1
 26 614 l 1,7,-1
 26 700 l 1,8,-1
 178 700 l 1,9,-1
 178 132 l 2,10,11
 178 44 178 44 141.5 4 c 128,-1,12
 105 -36 105 -36 19 -37 c 1,0,-1
235 846 m 1,13,-1
 235 841 l 2,14,15
 235 794 235 794 201.5 761 c 128,-1,16
 168 728 168 728 122 728 c 128,-1,17
 76 728 76 728 42.5 761 c 128,-1,18
 9 794 9 794 9 841 c 2,19,-1
 9 846 l 1,20,-1
 79 846 l 1,21,-1
 79 841 l 2,22,23
 79 819 79 819 91 806.5 c 128,-1,24
 103 794 103 794 122 794 c 128,-1,25
 141 794 141 794 153.5 807 c 128,-1,26
 166 820 166 820 166 841 c 2,27,-1
 166 846 l 1,28,-1
 235 846 l 1,13,-1
EndSplineSet
EndChar

StartChar: Zdotaccent
Encoding: 379 379 225
Width: 550
Flags: HMW
HStem: 0 80 634 80 675 104
VStem: 31 487<0 83 83 83> 231 100
LayerCount: 2
Fore
SplineSet
518 0 m 1,0,-1
 31 0 l 1,1,-1
 31 83 l 1,2,-1
 397 611 l 1,3,-1
 44 611 l 1,4,-1
 44 700 l 1,5,-1
 512 700 l 1,6,-1
 512 611 l 1,7,-1
 145 85 l 1,8,-1
 518 85 l 1,9,-1
 518 0 l 1,0,-1
322 741.5 m 128,-1,11
 307 726 307 726 287.5 726 c 128,-1,12
 268 726 268 726 252.5 741.5 c 128,-1,13
 237 757 237 757 237 776.5 c 128,-1,14
 237 796 237 796 252.5 811 c 128,-1,15
 268 826 268 826 288 826 c 128,-1,16
 308 826 308 826 322.5 811 c 128,-1,17
 337 796 337 796 337 776.5 c 128,-1,10
 337 757 337 757 322 741.5 c 128,-1,11
EndSplineSet
EndChar

StartChar: hbar
Encoding: 295 295 226
Width: 545
Flags: HMW
HStem: 0 21G<139 230 139 139 417 508 417 417> 460 49 694 20G
VStem: 78 234<545 633 545 633> 139 56 139 91<0 402 0 489 489 545 633 700> 417 91<0 320 320 346> 453 55
LayerCount: 2
Fore
SplineSet
230 489 m 1,0,1
 266.917257683 509.765957447 266.917257683 509.765957447 322.171394799 509.765957447 c 128,-1,2
 377.425531915 509.765957447 377.425531915 509.765957447 423 491 c 1,3,4
 508 452 508 452 508 346 c 2,5,-1
 508 0 l 1,6,-1
 417 0 l 1,7,-1
 417 320 l 2,8,9
 417 368 417 368 395.5 394 c 128,-1,10
 374 420 374 420 342.5 423.5 c 0,11,12
 330.894736842 424.789473684 330.894736842 424.789473684 319.493074792 424.789473684 c 0,13,14
 266.813765182 424.789473684 266.813765182 424.789473684 230 402 c 1,15,-1
 230 0 l 1,16,-1
 139 0 l 1,17,-1
 139 545 l 1,18,-1
 78 545 l 1,19,-1
 78 633 l 1,20,-1
 139 633 l 1,21,-1
 139 700 l 1,22,-1
 230 700 l 1,23,-1
 230 633 l 1,24,-1
 312 633 l 1,25,-1
 312 545 l 1,26,-1
 230 545 l 1,27,-1
 230 489 l 1,0,1
EndSplineSet
EndChar

StartChar: hcircumflex
Encoding: 293 293 227
Width: 592
Flags: HMW
HStem: 346 21G<532 532> 460 49 694 20G 730 142
VStem: 72 251 254 0<0 0 402 402 489 489 700 700> 441 91<0 320 320 346>
LayerCount: 2
Fore
SplineSet
354 771 m 1,0,-1
 297 732 l 1,1,-1
 211 822 l 1,2,-1
 120 732 l 1,3,-1
 64 771 l 1,4,-1
 212 912 l 1,5,-1
 354 771 l 1,0,-1
254 489 m 1,6,7
 290.917257683 509.765957447 290.917257683 509.765957447 346.171394799 509.765957447 c 128,-1,8
 401.425531915 509.765957447 401.425531915 509.765957447 447 491 c 1,9,10
 532 452 532 452 532 346 c 2,11,-1
 532 0 l 1,12,-1
 441 0 l 1,13,-1
 441 320 l 2,14,15
 441 368 441 368 419.5 394 c 128,-1,16
 398 420 398 420 366.5 423.5 c 0,17,18
 354.894736842 424.789473684 354.894736842 424.789473684 343.493074792 424.789473684 c 0,19,20
 290.813765182 424.789473684 290.813765182 424.789473684 254 402 c 1,21,-1
 254 0 l 1,22,-1
 163 0 l 1,23,-1
 163 700 l 1,24,-1
 254 700 l 1,25,-1
 254 489 l 1,6,7
EndSplineSet
EndChar

StartChar: scedilla
Encoding: 351 351 228
Width: 431
Flags: HMW
HStem: -224 61<201.5 225.5 201.5 229.5> -98 50 454 75
VStem: 36 90<127 134> 48 97<365 365> 252 84 304 27 307 95<116 193.5>
LayerCount: 2
Fore
SplineSet
103 -204 m 1,0,-1
 134 -138 l 1,1,2
 171 -163 171 -163 203.5 -163 c 0,3,4
 272 -163 272 -163 272 -122 c 0,5,6
 272 -100 272 -100 252 -93 c 0,7,8
 245.636363636 -90.7727272727 245.636363636 -90.7727272727 233.25 -90.7727272727 c 128,-1,9
 220.863636364 -90.7727272727 220.863636364 -90.7727272727 197 -101 c 2,10,-1
 156 -120 l 1,11,-1
 127 -78 l 1,12,-1
 178 -12 l 1,13,14
 112 -2 112 -2 75 36.5 c 128,-1,15
 38 75 38 75 36 127 c 1,16,-1
 126 134 l 1,17,18
 128 107 128 107 154 88.5 c 128,-1,19
 180 70 180 70 219 70 c 128,-1,20
 258 70 258 70 282.5 88.5 c 128,-1,21
 307 107 307 107 307 137 c 128,-1,22
 307 167 307 167 282 187 c 128,-1,23
 257 207 257 207 220.5 218.5 c 128,-1,24
 184 230 184 230 147 244 c 128,-1,25
 110 258 110 258 81.5 288 c 0,26,27
 47.4736842105 323.817174515 47.4736842105 323.817174515 47.4736842105 374.829639889 c 128,-1,28
 47.4736842105 425.842105263 47.4736842105 425.842105263 87.7368421053 469.421052632 c 128,-1,29
 128 513 128 513 219 513 c 0,30,31
 251 513 251 513 279 505.5 c 128,-1,32
 307 498 307 498 319 491 c 2,33,-1
 331 484 l 1,34,-1
 304 402 l 1,35,36
 276 426 276 426 226 426 c 128,-1,37
 176 426 176 426 160.275 409.8125 c 128,-1,38
 144.55 393.625 144.55 393.625 144.55 372.60875 c 0,39,40
 144.55 345.848214286 144.55 345.848214286 174.275 329.924107143 c 128,-1,41
 204 314 204 314 241 301.5 c 128,-1,42
 278 289 278 289 314.5 272 c 128,-1,43
 351 255 351 255 376.5 220 c 128,-1,44
 402 185 402 185 402 130 c 128,-1,45
 402 75 402 75 360.5 32.5 c 128,-1,46
 319 -10 319 -10 238 -14 c 1,47,-1
 217 -44 l 1,48,49
 233 -37 233 -37 259.5 -37 c 128,-1,50
 286 -37 286 -37 311 -59.5 c 128,-1,51
 336 -82 336 -82 336 -128.5 c 128,-1,52
 336 -175 336 -175 294.5 -199.5 c 128,-1,53
 253 -224 253 -224 205.5 -224 c 128,-1,54
 158 -224 158 -224 103 -204 c 1,0,-1
EndSplineSet
EndChar

StartChar: gbreve
Encoding: 287 287 229
Width: 492
Flags: HMW
HStem: -64 139 -12 188<78 291.5> 421 53 532 66<270 294.5 270 313> 661 20G
VStem: 78 286<211 322 322 325 325 353.5> 169 226<645 650 614 650> 364 91<-52 27 27 27 211 322 322 353.5>
LayerCount: 2
Fore
SplineSet
395 650 m 1,0,-1
 395 645 l 2,1,2
 395 598 395 598 361.5 565 c 128,-1,3
 328 532 328 532 282 532 c 128,-1,4
 236 532 236 532 202.5 565 c 128,-1,5
 169 598 169 598 169 645 c 2,6,-1
 169 650 l 1,7,-1
 239 650 l 1,8,-1
 239 645 l 2,9,10
 239 623 239 623 251 610.5 c 128,-1,11
 263 598 263 598 282 598 c 128,-1,12
 301 598 301 598 313.5 611 c 128,-1,13
 326 624 326 624 326 645 c 2,14,-1
 326 650 l 1,15,-1
 395 650 l 1,0,-1
315 -210 m 1,16,-1
 293 -139 l 1,17,18
 364 -130 364 -130 364 -52 c 2,19,-1
 364 27 l 1,20,21
 339 -12 339 -12 257.5 -12 c 0,22,23
 176 -12 176 -12 127 36 c 128,-1,24
 78 84 78 84 78 176 c 2,25,-1
 78 325 l 2,26,27
 78 413 78 413 129.5 461.5 c 128,-1,28
 181 510 181 510 261.5 510 c 0,29,30
 342 510 342 510 366 474 c 1,31,-1
 378 501 l 1,32,-1
 455 501 l 1,33,-1
 455 -64 l 2,34,35
 455 -199 455 -199 315 -210 c 1,16,-1
364 211 m 2,36,-1
 364 322 l 2,37,38
 364 370 364 370 338 395.5 c 128,-1,39
 312 421 312 421 265.5 421 c 0,40,41
 219 421 219 421 194 394 c 128,-1,42
 169 367 169 367 169 320 c 2,43,-1
 169 183 l 2,44,45
 169 133 169 133 192.5 104 c 128,-1,46
 216 75 216 75 264 75 c 0,47,48
 364 75 364 75 364 211 c 2,36,-1
EndSplineSet
EndChar

StartChar: jcircumflex
Encoding: 309 309 230
Width: 405
Flags: HMW
HStem: -209 43 -209 70<117 175.5> 457 52 654 67
VStem: 117 79 139 51 194 56
LayerCount: 2
Fore
SplineSet
368 579 m 1,0,-1
 311 540 l 1,1,-1
 225 630 l 1,2,-1
 134 540 l 1,3,-1
 78 579 l 1,4,-1
 226 720 l 1,5,-1
 368 579 l 1,0,-1
190 -42 m 2,6,-1
 190 415 l 1,7,-1
 141 423 l 1,8,-1
 118 501 l 1,9,-1
 281 501 l 1,10,-1
 281 -75 l 1,11,12
 279 -131 279 -131 237 -170 c 128,-1,13
 195 -209 195 -209 139 -209 c 1,14,-1
 117 -139 l 1,15,16
 125.833333333 -139 125.833333333 -139 140.416666667 -132 c 128,-1,17
 155 -125 155 -125 164.5 -115.5 c 0,18,19
 190 -90 190 -90 190 -42 c 2,6,-1
EndSplineSet
EndChar

StartChar: zdotaccent
Encoding: 380 380 231
Width: 482
Flags: HMW
HStem: 0 75 442 75 484 104
VStem: 87 358 204 100
LayerCount: 2
Fore
SplineSet
445 0 m 1,0,-1
 78 0 l 1,1,-1
 78 85 l 1,2,-1
 310 416 l 1,3,-1
 87 416 l 1,4,-1
 87 501 l 1,5,-1
 431 501 l 1,6,-1
 431 418 l 1,7,-1
 198 85 l 1,8,-1
 445 85 l 1,9,-1
 445 0 l 1,0,-1
295 550.5 m 128,-1,11
 280 535 280 535 260.5 535 c 128,-1,12
 241 535 241 535 225.5 550.5 c 128,-1,13
 210 566 210 566 210 585.5 c 128,-1,14
 210 605 210 605 225.5 620 c 128,-1,15
 241 635 241 635 260.5 635 c 128,-1,16
 280 635 280 635 295 620.5 c 128,-1,17
 310 606 310 606 310 586 c 128,-1,10
 310 566 310 566 295 550.5 c 128,-1,11
EndSplineSet
EndChar

StartChar: Gdotaccent
Encoding: 288 288 232
Width: 566
Flags: HMW
HStem: -17 80 678 104 694 20G
VStem: 74 91 236 100 404 91
LayerCount: 2
Fore
SplineSet
327 744.5 m 128,-1,1
 312 729 312 729 292.5 729 c 128,-1,2
 273 729 273 729 257.5 744.5 c 128,-1,3
 242 760 242 760 242 779.5 c 128,-1,4
 242 799 242 799 257.5 814 c 128,-1,5
 273 829 273 829 292.5 829 c 128,-1,6
 312 829 312 829 327 814.5 c 128,-1,7
 342 800 342 800 342 780 c 128,-1,0
 342 760 342 760 327 744.5 c 128,-1,1
496 0 m 1,8,-1
 414 0 l 1,9,-1
 405 20 l 1,10,11
 361 -10 361 -10 296 -10 c 0,12,13
 208 -10 208 -10 146.5 40 c 128,-1,14
 85 90 85 90 85 189 c 2,15,-1
 85 503 l 2,16,17
 85 631 85 631 172 684 c 1,18,19
 217.161290323 709.290322581 217.161290323 709.290322581 278.638917794 709.290322581 c 0,20,21
 355.529032258 709.290322581 355.529032258 709.290322581 421 676 c 1,22,-1
 394 598 l 1,23,24
 343 617 343 617 297 617 c 0,25,26
 176 617 176 617 176 512 c 2,27,-1
 176 187 l 2,28,29
 176 81 176 81 295 81 c 0,30,31
 343 81 343 81 374.5 107 c 128,-1,32
 406 133 406 133 406 186 c 2,33,-1
 406 212 l 1,34,-1
 346 212 l 1,35,-1
 316 300 l 1,36,-1
 496 300 l 1,37,-1
 496 0 l 1,8,-1
EndSplineSet
EndChar

StartChar: Gcircumflex
Encoding: 284 284 233
Width: 537
Flags: HMW
HStem: -10 30 0 21G<394 476 394 394> 659 51 730 142
VStem: 65 91<189 503 503 512> 145 251 385 91<20 20>
LayerCount: 2
Fore
SplineSet
476 0 m 1,0,-1
 394 0 l 1,1,-1
 385 20 l 1,2,3
 341 -10 341 -10 276 -10 c 0,4,5
 188 -10 188 -10 126.5 40 c 128,-1,6
 65 90 65 90 65 189 c 2,7,-1
 65 503 l 2,8,9
 65 631 65 631 152 684 c 1,10,11
 197.161290323 709.290322581 197.161290323 709.290322581 258.638917794 709.290322581 c 0,12,13
 335.529032258 709.290322581 335.529032258 709.290322581 401 676 c 1,14,-1
 374 598 l 1,15,16
 323 617 323 617 277 617 c 0,17,18
 156 617 156 617 156 512 c 2,19,-1
 156 187 l 2,20,21
 156 81 156 81 275 81 c 0,22,23
 323 81 323 81 354.5 107 c 128,-1,24
 386 133 386 133 386 186 c 2,25,-1
 386 212 l 1,26,-1
 326 212 l 1,27,-1
 296 300 l 1,28,-1
 476 300 l 1,29,-1
 476 0 l 1,0,-1
427 771 m 1,30,-1
 370 732 l 1,31,-1
 284 822 l 1,32,-1
 193 732 l 1,33,-1
 137 771 l 1,34,-1
 285 912 l 1,35,-1
 427 771 l 1,30,-1
EndSplineSet
EndChar

StartChar: gdotaccent
Encoding: 289 289 234
Width: 492
Flags: HMW
HStem: -64 139 -12 188<78 291.5> 421 53 486 104
VStem: 78 286<211 322 322 325 325 353.5> 223 100 364 91<-52 27 27 27 211 322 322 353.5>
LayerCount: 2
Fore
SplineSet
314 552.5 m 128,-1,1
 299 537 299 537 279.5 537 c 128,-1,2
 260 537 260 537 244.5 552.5 c 128,-1,3
 229 568 229 568 229 587.5 c 128,-1,4
 229 607 229 607 244.5 622 c 128,-1,5
 260 637 260 637 280 637 c 128,-1,6
 300 637 300 637 314.5 622.5 c 128,-1,7
 329 608 329 608 329 588 c 128,-1,0
 329 568 329 568 314 552.5 c 128,-1,1
315 -210 m 1,8,-1
 293 -139 l 1,9,10
 364 -130 364 -130 364 -52 c 2,11,-1
 364 27 l 1,12,13
 339 -12 339 -12 257.5 -12 c 128,-1,14
 176 -12 176 -12 127 36 c 128,-1,15
 78 84 78 84 78 176 c 2,16,-1
 78 325 l 2,17,18
 78 413 78 413 129.5 461.5 c 128,-1,19
 181 510 181 510 261.5 510 c 128,-1,20
 342 510 342 510 366 474 c 1,21,-1
 378 501 l 1,22,-1
 455 501 l 1,23,-1
 455 -64 l 2,24,25
 455 -199 455 -199 315 -210 c 1,8,-1
364 211 m 2,26,-1
 364 322 l 2,27,28
 364 370 364 370 338 395.5 c 128,-1,29
 312 421 312 421 265.5 421 c 128,-1,30
 219 421 219 421 194 394 c 128,-1,31
 169 367 169 367 169 320 c 2,32,-1
 169 183 l 2,33,34
 169 133 169 133 192.5 104 c 128,-1,35
 216 75 216 75 264 75 c 0,36,37
 364 75 364 75 364 211 c 2,26,-1
EndSplineSet
EndChar

StartChar: gcircumflex
Encoding: 285 285 235
Width: 492
Flags: HMW
HStem: -64 139 -12 188<78 291.5> 421 53 538 142
VStem: 78 286<211 322 322 325 325 353.5> 155 251 364 91<-52 27 27 27 211 322 322 353.5>
LayerCount: 2
Fore
SplineSet
437 579 m 1,0,-1
 380 540 l 1,1,-1
 294 630 l 1,2,-1
 203 540 l 1,3,-1
 147 579 l 1,4,-1
 295 720 l 1,5,-1
 437 579 l 1,0,-1
315 -210 m 1,6,-1
 293 -139 l 1,7,8
 364 -130 364 -130 364 -52 c 2,9,-1
 364 27 l 1,10,11
 339 -12 339 -12 257.5 -12 c 0,12,13
 176 -12 176 -12 127 36 c 128,-1,14
 78 84 78 84 78 176 c 2,15,-1
 78 325 l 2,16,17
 78 413 78 413 129.5 461.5 c 128,-1,18
 181 510 181 510 261.5 510 c 0,19,20
 342 510 342 510 366 474 c 1,21,-1
 378 501 l 1,22,-1
 455 501 l 1,23,-1
 455 -64 l 2,24,25
 455 -199 455 -199 315 -210 c 1,6,-1
364 211 m 2,26,-1
 364 322 l 2,27,28
 364 370 364 370 338 395.5 c 128,-1,29
 312 421 312 421 265.5 421 c 0,30,31
 219 421 219 421 194 394 c 128,-1,32
 169 367 169 367 169 320 c 2,33,-1
 169 183 l 2,34,35
 169 133 169 133 192.5 104 c 128,-1,36
 216 75 216 75 264 75 c 0,37,38
 364 75 364 75 364 211 c 2,26,-1
EndSplineSet
EndChar

StartChar: Ubreve
Encoding: 364 364 236
Width: 566
Flags: HMW
HStem: -17 80 694 20G 837 0<171 171 241 241 328 328 397 397> 853 20G
VStem: 74 91<186 212 212 701> 241 156<822 837 837 842> 404 91<212 701>
LayerCount: 2
Fore
SplineSet
404 212 m 2,0,-1
 404 701 l 1,1,-1
 495 701 l 1,2,-1
 495 186 l 2,3,4
 495 133 495 133 476.5 94 c 128,-1,5
 458 55 458 55 426.5 34 c 128,-1,6
 395 13 395 13 360 3 c 128,-1,7
 325 -7 325 -7 285 -7 c 128,-1,8
 245 -7 245 -7 209.5 3 c 128,-1,9
 174 13 174 13 142.5 34 c 128,-1,10
 111 55 111 55 92.5 94 c 128,-1,11
 74 133 74 133 74 186 c 2,12,-1
 74 701 l 1,13,-1
 165 701 l 1,14,-1
 165 212 l 2,15,16
 165 81 165 81 284.5 81 c 0,17,18
 404 81 404 81 404 212 c 2,0,-1
397 842 m 1,19,-1
 397 837 l 2,20,21
 397 790 397 790 363.5 757 c 128,-1,22
 330 724 330 724 284 724 c 128,-1,23
 238 724 238 724 204.5 757 c 128,-1,24
 171 790 171 790 171 837 c 2,25,-1
 171 842 l 1,26,-1
 241 842 l 1,27,-1
 241 837 l 2,28,29
 241 815 241 815 253 802.5 c 128,-1,30
 265 790 265 790 284 790 c 128,-1,31
 303 790 303 790 315.5 803 c 128,-1,32
 328 816 328 816 328 837 c 2,33,-1
 328 842 l 1,34,-1
 397 842 l 1,19,-1
EndSplineSet
EndChar

StartChar: Scircumflex
Encoding: 348 348 237
Width: 561
Flags: HMW
HStem: -17 80 651 80 825 47
VStem: 37 97<178 189> 54 98 133 251 397 29 412 100<155 283>
LayerCount: 2
Fore
SplineSet
37 178 m 1,0,-1
 134 189 l 1,1,2
 139 142 139 142 176 110 c 128,-1,3
 213 78 213 78 275.5 78 c 128,-1,4
 338 78 338 78 375 108 c 128,-1,5
 412 138 412 138 412 181.5 c 128,-1,6
 412 225 412 225 392.5 254 c 128,-1,7
 373 283 373 283 341 301 c 128,-1,8
 309 319 309 319 271 334 c 128,-1,9
 233 349 233 349 195 365.5 c 128,-1,10
 157 382 157 382 125 402.5 c 0,11,12
 54 447.984375 54 447.984375 54 537 c 0,13,14
 54 607 54 607 112.5 658.5 c 128,-1,15
 171 710 171 710 280 710 c 0,16,17
 363 710 363 710 426 680 c 1,18,-1
 421.5 666.5 l 2,19,20
 417 653 417 653 409.5 631 c 128,-1,21
 402 609 402 609 397 594 c 1,22,23
 338 618 338 618 277.5 618 c 128,-1,24
 217 618 217 618 184.443661972 594.676056338 c 128,-1,25
 151.887323944 571.352112676 151.887323944 571.352112676 151.887323944 534.871015567 c 128,-1,26
 151.887323944 498.389918458 151.887323944 498.389918458 190.943661972 472.694959229 c 128,-1,27
 230 447 230 447 282.5 426.5 c 128,-1,28
 335 406 335 406 387 380.5 c 128,-1,29
 439 355 439 355 475.5 307 c 128,-1,30
 512 259 512 259 512 193 c 0,31,32
 512 103 512 103 453 46 c 128,-1,33
 394 -11 394 -11 279 -11 c 128,-1,34
 164 -11 164 -11 101.5 46.5 c 128,-1,35
 39 104 39 104 37 178 c 1,0,-1
415 771 m 1,36,-1
 358 732 l 1,37,-1
 272 822 l 1,38,-1
 181 732 l 1,39,-1
 125 771 l 1,40,-1
 273 912 l 1,41,-1
 415 771 l 1,36,-1
EndSplineSet
EndChar

StartChar: ubreve
Encoding: 365 365 238
Width: 488
Flags: HMW
HStem: -12 75 77 21G<232 300.5> 497 20G 535 66<258 282.5 258 301> 664 20G
VStem: 78 91<172 180 180 501> 157 226<648 653 617 653> 365 86<0 0>
LayerCount: 2
Fore
SplineSet
383 653 m 1,0,-1
 383 648 l 2,1,2
 383 602 383 602 349.5 568.5 c 128,-1,3
 316 535 316 535 270 535 c 128,-1,4
 224 535 224 535 190.5 568.5 c 128,-1,5
 157 602 157 602 157 648 c 2,6,-1
 157 653 l 1,7,-1
 227 653 l 1,8,-1
 227 648 l 2,9,10
 227 626 227 626 239 613.5 c 128,-1,11
 251 601 251 601 270 601 c 128,-1,12
 289 601 289 601 301.5 614 c 128,-1,13
 314 627 314 627 314 648 c 2,14,-1
 314 653 l 1,15,-1
 383 653 l 1,0,-1
451 0 m 1,16,-1
 365 0 l 1,17,-1
 362 22 l 1,18,19
 322 -11 322 -11 266 -11 c 0,20,21
 78 -11 78 -11 78 172 c 2,22,-1
 78 501 l 1,23,-1
 169 501 l 1,24,-1
 169 180 l 2,25,26
 169 77 169 77 266 77 c 0,27,28
 360 77 360 77 360 183 c 2,29,-1
 360 501 l 1,30,-1
 451 501 l 1,31,-1
 451 0 l 1,16,-1
EndSplineSet
EndChar

StartChar: scircumflex
Encoding: 349 349 239
Width: 481
Flags: HMW
HStem: 454 75 538 142
VStem: 78 90<127 134> 90 97<365 365> 126 251 346 27 349 95<116 193.5>
LayerCount: 2
Fore
SplineSet
408 579 m 1,0,-1
 351 540 l 1,1,-1
 265 630 l 1,2,-1
 174 540 l 1,3,-1
 118 579 l 1,4,-1
 266 720 l 1,5,-1
 408 579 l 1,0,-1
78 127 m 1,6,-1
 168 134 l 1,7,8
 170 107 170 107 196 88.5 c 128,-1,9
 222 70 222 70 261 70 c 128,-1,10
 300 70 300 70 324.5 88.5 c 128,-1,11
 349 107 349 107 349 137 c 128,-1,12
 349 167 349 167 324 187 c 128,-1,13
 299 207 299 207 262.5 218.5 c 128,-1,14
 226 230 226 230 189 244 c 128,-1,15
 152 258 152 258 123.5 288 c 0,16,17
 89.4736842105 323.817174515 89.4736842105 323.817174515 89.4736842105 374.829639889 c 128,-1,18
 89.4736842105 425.842105263 89.4736842105 425.842105263 129.736842105 469.421052632 c 128,-1,19
 170 513 170 513 261 513 c 0,20,21
 293 513 293 513 321 505.5 c 128,-1,22
 349 498 349 498 361 491 c 2,23,-1
 373 484 l 1,24,-1
 346 402 l 1,25,26
 318 426 318 426 268 426 c 128,-1,27
 218 426 218 426 202.275 409.8125 c 128,-1,28
 186.55 393.625 186.55 393.625 186.55 372.60875 c 0,29,30
 186.55 345.848214286 186.55 345.848214286 216.275 329.924107143 c 128,-1,31
 246 314 246 314 283 301.5 c 128,-1,32
 320 289 320 289 356.5 272 c 128,-1,33
 393 255 393 255 418.5 220 c 128,-1,34
 444 185 444 185 444 128.5 c 128,-1,35
 444 72 444 72 398.5 28.5 c 128,-1,36
 353 -15 353 -15 265.5 -15 c 128,-1,37
 178 -15 178 -15 129 26 c 128,-1,38
 80 67 80 67 78 127 c 1,6,-1
EndSplineSet
EndChar

StartChar: Rcommaaccent
Encoding: 342 342 240
Width: 564
Flags: HMW
HStem: -124 111 300 400<169 304 304 318 318 360.5>
VStem: 78 91<0 212 300 609> 169 343<0 532 435.5 532 435.5 609 300 532> 236 37
LayerCount: 2
Fore
SplineSet
513 0 m 1,0,-1
 420 0 l 1,1,-1
 347 214 l 1,2,3
 339 212 339 212 324 212 c 2,4,-1
 169 212 l 1,5,-1
 169 0 l 1,6,-1
 78 0 l 1,7,-1
 78 700 l 1,8,-1
 318 700 l 2,9,10
 414 700 414 700 463 635 c 128,-1,11
 512 570 512 570 512 470 c 0,12,13
 512 347.444444444 512 347.444444444 477 293 c 0,14,15
 459 265 459 265 431 244 c 1,16,-1
 513 0 l 1,0,-1
169 300 m 1,17,-1
 304 300 l 2,18,19
 361.21875 300 361.21875 300 383.5 331 c 0,20,21
 408.737907762 366.113610799 408.737907762 366.113610799 412.368953881 394.556805399 c 0,22,23
 417 430.833333333 417 430.833333333 417 470 c 0,24,25
 417 548 417 548 384.5 578.5 c 128,-1,26
 352 609 352 609 290 609 c 2,27,-1
 169 609 l 1,28,-1
 169 300 l 1,17,-1
263 -208 m 1,29,-1
 204 -179 l 1,30,31
 248.130434783 -153.782608696 248.130434783 -153.782608696 273 -127 c 1,32,-1
 262 -124 l 1,33,34
 236 -109 236 -109 236.5 -84.5 c 128,-1,35
 237 -60 237 -60 250.017857143 -47.4642857143 c 128,-1,36
 263.035714286 -34.9285714286 263.035714286 -34.9285714286 282.038265306 -34.9285714286 c 0,37,38
 305.295918367 -34.9285714286 305.295918367 -34.9285714286 317.155312125 -52.9754749726 c 128,-1,39
 329.014705882 -71.0223785166 329.014705882 -71.0223785166 329.014705882 -90.7644896194 c 0,40,41
 329.014705882 -149.867647059 329.014705882 -149.867647059 263 -208 c 1,29,-1
EndSplineSet
EndChar

StartChar: kgreenlandic
Encoding: 312 312 241
Width: 506
Flags: HMW
HStem: 0 21G<78 169 78 78> 497 20G 694 20G
VStem: 80 101
LayerCount: 2
Fore
SplineSet
469 79 m 1,0,-1
 448 -1 l 1,1,2
 413 -1 413 -1 383 17.5 c 128,-1,3
 353 36 353 36 337.5 54 c 128,-1,4
 322 72 322 72 294 110 c 2,5,-1
 206 231 l 1,6,-1
 169 196 l 1,7,-1
 169 0 l 1,8,-1
 78 0 l 1,9,-1
 78 512 l 1,10,-1
 169 499 l 1,11,-1
 169 312 l 1,12,-1
 342 501 l 1,13,-1
 456 501 l 1,14,-1
 272 299 l 1,15,-1
 381 145 l 1,16,17
 429 81 429 81 469 79 c 1,0,-1
EndSplineSet
EndChar

StartChar: Aogonek
Encoding: 260 260 242
Width: 648
Flags: HMW
HStem: -213 50 0 21G<78 179 78 78 471 511 471 471 576 576 576 577> 280 20G<254 394 394 394>
VStem: 179 292<0 0> 422 68
LayerCount: 2
Fore
SplineSet
566 -115 m 1,0,-1
 611 -163 l 1,1,2
 579 -213 579 -213 506 -213 c 0,3,4
 477 -213 477 -213 446.939393939 -191.666666667 c 0,5,6
 416.878787879 -170.333333333 416.878787879 -170.333333333 416.878787879 -127.605142332 c 0,7,8
 416.878787879 -124.848484848 416.878787879 -124.848484848 417 -122 c 0,9,10
 417 -59 417 -59 511 0 c 1,11,-1
 471 0 l 1,12,-1
 416 205 l 1,13,-1
 232 205 l 1,14,-1
 179 0 l 1,15,-1
 78 0 l 1,16,-1
 263 700 l 1,17,-1
 382 700 l 1,18,-1
 577 0 l 1,19,-1
 576 0 l 1,20,21
 480 -80 480 -80 481 -121 c 1,22,23
 483 -152 483 -152 515.5 -152 c 0,24,25
 548 -152 548 -152 566 -115 c 1,0,-1
394 300 m 1,26,-1
 322 550 l 1,27,-1
 254 300 l 1,28,-1
 394 300 l 1,26,-1
EndSplineSet
EndChar

